<?xml version="1.0" encoding="utf-8"?>
<!-- Generator: Adobe Illustrator 27.5.0, SVG Export Plug-In . SVG Version: 6.00 Build 0)  -->
<svg version="1.1" xmlns="http://www.w3.org/2000/svg" xmlns:xlink="http://www.w3.org/1999/xlink" x="0px" y="0px"
	 viewBox="0 0 750 500" style="enable-background:new 0 0 750 500;" xml:space="preserve">
<g id="BACKGROUND">
	<g>
		<defs>
			<rect id="SVGID_1_" x="0.006" y="0.015" width="750" height="500"/>
		</defs>
		<clipPath id="SVGID_00000136406827869884564470000007187055366954556038_">
			<use xlink:href="#SVGID_1_"  style="overflow:visible;"/>
		</clipPath>
		
			<rect x="0.006" y="0.015" style="clip-path:url(#SVGID_00000136406827869884564470000007187055366954556038_);fill:#FFF2E3;" width="750" height="500"/>
		<g style="clip-path:url(#SVGID_00000136406827869884564470000007187055366954556038_);">
			<g>
				<path style="fill:#FFAF4F;" d="M499.703,256.817c-9.161,1.59-18.46,1.042-27.255,4.512c-6.021,2.376-15.43,6.955-12.883,14.934
					c3.812,11.941,15.026,22.898,25.775,28.92c3.225,1.807,6.994,2.664,10.683,2.389c3.965-0.295,7.614-1.947,11.104-3.742
					c4.259-2.19,8.48-4.282,13.019-5.847c8.492-2.927,17.355-4.536,26.123-6.383c4.097-0.863,8.436-1.544,12.363-3.028
					c2.321-0.877,5.054-2.453,5.382-5.18c0.407-3.382-2.976-5.996-5.326-7.817c-3.141-2.434-6.646-4.131-10.296-5.654
					c-4.412-1.841-8.441-3.905-12.377-6.625c-3.441-2.378-6.847-4.862-10.735-6.472c-3.832-1.586-7.998-2.36-12.144-2.253
					C508.565,254.691,504.18,256.04,499.703,256.817z"/>
				<path style="fill:#FFD2BD;" d="M475.504,265.176c-0.179,1.792,0.307,3.698,0.472,5.436c0.326,3.436,0.483,6.9,0.03,10.332
					c-0.276,2.095-0.793,4.207-1.953,5.973c-2.637,4.017-7.903,5.429-12.04,7.347c-2.368,1.098-3.882,2.047-3.281,4.934
					c0.884,4.246,2.4,9.257,5.232,12.655c3.399,4.08,14.18,1.271,17.766-1.276c3.473-2.466,2.708-6.959,2.791-10.65
					c0.231-10.25,10.614-16.597,8.683-27.57c-0.803-4.56-3.455-9.152-7.753-11.204c-3.188-1.522-7.624-1.51-9.394,2.027
					C475.738,263.819,475.572,264.489,475.504,265.176z"/>
			</g>
			<g>
				<path style="fill:#44C994;" d="M446.796,358.46c-9.016-29.768-10.12-68.764-40.942-84.111
					c-14.787-7.363-31.866-8.948-48.343-7.788c-10.85,0.764-44.89,12.153-29.69,29.26c4.477,5.039,12.098,5.957,18.307,7.215
					c4.211,0.853,8.449,2.028,12.122,4.327c3.876,2.427,6.393,6.083,8.617,9.981c2.935,5.145,5.517,11.499,10.872,14.643
					c3.244,1.905,6.706,1.182,10.109,2.356c5.499,1.898,5.807,9.317,6.394,14.104c2.415,19.691,2.326,40.016,9.318,58.846
					c5.203,14.012,16.884,32.616,34.159,31.723c14.207-0.734,22.92-15.641,23.788-28.528c1.139-16.915-7.896-32.01-13.255-47.525
					C447.742,361.49,447.259,359.987,446.796,358.46z"/>
				<path style="fill:#FFFCF7;" d="M450.162,400.732c-1.38-8.395-3.215-17.601-6.564-25.451c-2.51-5.882-8.019-9.527-14.432-7.198
					c-2.982,1.083-5.517,3.11-7.9,5.205c-4.562,4.01-12.43,9.55-11.902,16.359c0.365,4.705,2.523,9.707,3.834,14.217
					c1.036,3.565,1.962,7.197,3.534,10.575c6.121,13.153,20.386,12.792,29.581,2.676
					C450.653,412.337,451.173,406.881,450.162,400.732z M445.324,411.431c-2.029,4.037-6.792,7.359-11.013,8.718
					c-7.863,2.53-12.691-3.89-15.043-10.45c-1.419-3.959-2.42-8.105-3.588-12.143c-0.503-1.737-2.102-5.214-2.015-7.097
					c0.367-7.989,7.721-14.209,14.443-17.374c7.715-3.633,11.347,2.087,13.377,8.961
					C443.836,390.008,449.297,403.528,445.324,411.431z"/>
			</g>
			<g>
				<path style="fill:#7FC4D4;" d="M517.226,521.486c0.109-0.084,0.216-0.164,0.322-0.24c10.572-7.634,23.135-12.436,36.068-14.01
					c11.217-1.366,20.536,0.411,31.201,3.412c3.859,1.086,8.139,1.577,11.767-0.13c10.629-5.002,10.457-19.189,9.954-29.091
					c-0.614-12.096-2.425-24.132-5.398-35.873c-2.394-9.453-5.736-19.757-14.424-25.309c-11.674-7.461-21.873,3.104-29.057,11.646
					c-7.324,8.71-16.866,18.019-29.391,14.993c-10.99-2.656-16.07-14.905-23.687-22.052c-12.349-11.588-17.806,7.096-20.485,16.68
					c-8.292,29.661-16.697,61.897-12.914,92.918c0.426,3.496,1.082,7.106,3.13,9.973
					C486.399,561.322,508.222,528.402,517.226,521.486z"/>
				<g>
					<path style="fill:#FFFCF7;" d="M571.901,454.496c-1.1-2.491-2.2-4.981-3.3-7.472c-0.527-1.192-2.268-1.471-3.302-0.866
						c-1.229,0.719-1.395,2.105-0.866,3.302c1.1,2.491,2.2,4.981,3.3,7.472c0.527,1.192,2.268,1.471,3.302,0.866
						C572.264,457.079,572.43,455.693,571.901,454.496z"/>
					<path style="fill:#FFFCF7;" d="M584.491,462.393l-5.9-13.407c-1.248-2.837-5.408-0.383-4.168,2.436l5.9,13.407
						C581.572,467.666,585.732,465.212,584.491,462.393z"/>
					<path style="fill:#FFFCF7;" d="M573.339,437.7c-0.701-1.259-1.402-2.519-2.103-3.778c-0.633-1.138-2.194-1.514-3.302-0.866
						c-1.147,0.671-1.502,2.159-0.866,3.302c0.701,1.259,1.402,2.519,2.103,3.778c0.633,1.138,2.194,1.514,3.302,0.866
						C573.621,440.331,573.975,438.843,573.339,437.7z"/>
					<path style="fill:#FFFCF7;" d="M584.967,442.449c-1.049-3.17-2.311-6.259-3.766-9.264c-1.354-2.795-5.517-0.35-4.168,2.436
						c1.276,2.635,2.36,5.332,3.28,8.111C581.284,446.667,585.946,445.41,584.967,442.449z"/>
					<path style="fill:#FFFCF7;" d="M594.818,462.236c-1.788-3.933-3.577-7.865-5.365-11.797c-1.284-2.824-5.445-0.373-4.168,2.436
						c1.788,3.932,3.577,7.865,5.365,11.798C591.935,467.495,596.096,465.045,594.818,462.236z"/>
					<path style="fill:#FFFCF7;" d="M595.256,444.171c-0.827-2.827-1.998-5.536-3.502-8.068c-1.585-2.668-5.759-0.243-4.168,2.436
						c1.303,2.194,2.299,4.466,3.016,6.915C591.473,448.429,596.132,447.164,595.256,444.171z"/>
				</g>
			</g>
			<g>
				<path style="fill:#0F4F5E;" d="M78.355,359.271c-0.515-1.417-0.977-2.76-1.325-3.998c-1.259-4.481-2.373-9.319-4.955-13.264
					c-3.586-5.479-9.688-6.055-15.707-5.138c-12.083,1.841-28.693,7.938-30.734,21.853c-0.851,5.801,2.077,11.191,2.696,16.896
					c0.703,6.474,0.188,13.009,0.25,19.502c0.071,7.38,3.443,16.098,10.936,18.756c6.729,2.387,14.293-0.939,19.148-5.664
					c3.789-3.689,4.902-8.834,7.885-13.027c3.703-5.206,10.545-4.951,14.216-9.777C86.168,378.312,81.358,367.535,78.355,359.271z"
					/>
				<path style="fill:#FFD2BD;" d="M126.273,351.961c-5.401-11.052-17.265-16.509-31.516-11.51
					c-12.643,4.435-25.928,11.94-34.088,22.806c-8.214,10.939-5.684,26.802-15.556,36.396c-6.145,5.972-13.764,10.12-20.306,15.607
					c-9.258,7.765-15.063,18.047-13.211,30.446c1.842,12.331,10.895,22.241,23.347,24.193c9.451,1.482,19.189-1.684,25.764-8.685
					c7.384-7.862,9.176-19.048,14.955-27.906c5.646-8.654,15.844-13.066,24.384-18.222c17.023-10.278,29.281-28.117,29.363-48.475
					C129.43,361.104,128.312,356.134,126.273,351.961z"/>
				<path style="fill:#FFAF4F;" d="M149.689,383.937c-0.515-1.417-0.976-2.76-1.324-3.998c-1.26-4.481-2.373-9.32-4.955-13.264
					c-3.586-5.478-9.688-6.055-15.707-5.137c-12.082,1.841-28.693,7.938-30.734,21.853c-0.851,5.801,2.077,11.191,2.697,16.896
					c0.703,6.474,0.188,13.009,0.25,19.502c0.071,7.38,3.443,16.098,10.936,18.756c6.729,2.387,14.293-0.939,19.148-5.664
					c3.789-3.689,4.902-8.834,7.885-13.027c3.703-5.206,10.545-4.951,14.216-9.777C157.501,402.979,152.691,392.202,149.689,383.937
					z"/>
				<path style="fill:#0F4F5E;" d="M775.689,198.937c-0.515-1.417-0.976-2.76-1.325-3.998c-1.259-4.481-2.373-9.32-4.955-13.264
					c-3.586-5.479-9.688-6.055-15.707-5.137c-12.083,1.841-28.693,7.938-30.734,21.853c-0.851,5.801,2.077,11.191,2.696,16.896
					c0.703,6.474,0.188,13.009,0.25,19.502c0.071,7.38,3.443,16.098,10.936,18.756c6.729,2.387,14.293-0.939,19.148-5.664
					c3.789-3.689,4.902-8.834,7.885-13.027c3.703-5.206,10.545-4.951,14.217-9.777C783.501,217.979,778.691,207.202,775.689,198.937
					z"/>
				<path style="fill:#FFFFFF;" d="M711.032,336.107c-0.951-2.618-1.804-5.099-2.447-7.386c-2.327-8.278-4.384-17.216-9.153-24.502
					c-6.625-10.12-17.896-11.185-29.015-9.49c-22.32,3.401-53.004,14.663-56.775,40.369c-1.572,10.717,3.837,20.674,4.981,31.212
					c1.298,11.959,0.348,24.031,0.463,36.027c0.131,13.633,6.361,29.738,20.202,34.649c12.431,4.409,26.404-1.734,35.371-10.463
					c7-6.814,9.056-16.319,14.565-24.064c6.841-9.617,19.48-9.146,26.262-18.06C725.464,371.282,716.579,351.374,711.032,336.107z"
					/>
				<path style="fill:#44C994;" d="M107.771,510.139c0.077-0.059,0.153-0.116,0.227-0.169c7.46-5.387,16.325-8.775,25.451-9.886
					c7.915-0.964,14.491,0.29,22.016,2.407c2.723,0.766,5.743,1.113,8.303-0.092c7.5-3.53,7.379-13.54,7.024-20.527
					c-0.434-8.535-1.711-17.028-3.809-25.313c-1.689-6.67-4.048-13.941-10.178-17.859c-8.238-5.265-15.434,2.19-20.503,8.218
					c-5.168,6.146-11.901,12.715-20.739,10.579c-7.755-1.874-11.34-10.517-16.714-15.561c-8.714-8.176-12.564,5.007-14.455,11.77
					c-5.851,20.93-11.782,43.676-9.112,65.565c0.301,2.467,0.764,5.015,2.209,7.037C86.019,538.249,101.418,515.02,107.771,510.139z
					"/>
				<g>
					<path style="fill:#FFFCF7;" d="M146.351,462.869c-0.776-1.757-1.553-3.515-2.329-5.272c-0.372-0.841-1.6-1.038-2.33-0.611
						c-0.867,0.507-0.984,1.485-0.611,2.33c0.776,1.757,1.553,3.515,2.329,5.272c0.372,0.841,1.6,1.038,2.33,0.611
						C146.607,464.692,146.724,463.714,146.351,462.869z"/>
					<path style="fill:#FFFCF7;" d="M155.235,468.442l-4.163-9.46c-0.881-2.002-3.816-0.27-2.941,1.719l4.163,9.46
						C153.175,472.163,156.111,470.431,155.235,468.442z"/>
					<path style="fill:#FFFCF7;" d="M147.366,451.018c-0.494-0.889-0.989-1.777-1.484-2.666c-0.447-0.803-1.548-1.068-2.33-0.611
						c-0.81,0.473-1.06,1.523-0.611,2.33c0.495,0.889,0.989,1.777,1.484,2.666c0.447,0.803,1.548,1.068,2.33,0.611
						C147.565,452.874,147.815,451.824,147.366,451.018z"/>
					<path style="fill:#FFFCF7;" d="M155.571,454.369c-0.74-2.237-1.631-4.417-2.658-6.537c-0.955-1.972-3.893-0.247-2.941,1.719
						c0.9,1.859,1.665,3.762,2.314,5.723C152.972,457.345,156.262,456.458,155.571,454.369z"/>
					<path style="fill:#FFFCF7;" d="M162.523,468.331c-1.262-2.775-2.524-5.55-3.786-8.325c-0.906-1.992-3.842-0.263-2.941,1.719
						c1.262,2.775,2.524,5.55,3.786,8.325C160.488,472.042,163.424,470.313,162.523,468.331z"/>
					<path style="fill:#FFFCF7;" d="M162.831,455.584c-0.584-1.995-1.41-3.906-2.471-5.693c-1.118-1.883-4.064-0.172-2.941,1.719
						c0.92,1.548,1.622,3.151,2.128,4.88C160.161,458.589,163.449,457.695,162.831,455.584z"/>
				</g>
				<path style="fill:#FFFCF7;" d="M51.813,444.833c-1.044-1.511-2.225-1.563-3.915-1.647c-5.303-0.262-11.134,2.972-14.727-3.061
					c-2.309-3.881-0.999-9.141-3.478-12.97c-4.123-6.366-9.5,0.012-10.546,4.978c-1.179,5.596-1.777,11.444-0.467,17.011
					c3.504,14.889,22.405,20.164,31.101,6.247C51.397,452.807,53.847,447.777,51.813,444.833z"/>
				<path style="fill:#FFFCF7;" d="M121.229,426.454c-1.978,5.058-8.163,4.385-10.817,0.516c-1.589-2.316-1.709-5.101-1.311-7.778
					c0.558-3.761,2.019-7.178,1.906-11.043c-0.244-8.333-7.405-18.653-0.708-26.034c1.47-1.62-0.932-4.036-2.408-2.408
					c-4.081,4.499-4.281,10.199-3.076,15.919c1.008,4.782,3.147,9.412,2.751,14.41c-0.326,4.12-2.316,8.022-2.106,12.212
					c0.519,10.364,14.672,16.317,19.054,5.112C125.312,425.318,122.02,424.433,121.229,426.454z"/>
			</g>
			<g>
				<path style="fill:#FFFFFF;" d="M362.87,436.384c7.473,4.688,10.421-5.051,15.99-6.626c1.669-0.472,3.359-0.389,5.035,0.072
					c-6.351-15.395-12.334-26.402-15.288-23.997c-2.191,1.784-8.024,9.974-13.543,18.08
					C357.303,428.391,359.558,434.306,362.87,436.384z"/>
				<path style="fill:#FFAF4F;" d="M386.58,436.536c-2.822-1.678-6.596,0.183-9.459,1.849c-3.96,2.304-6.935,11.661-12.051,11.725
					c-7.086,0.089-9.589-15.513-12.878-21.947c-4.903,7.305-8.936,13.551-8.936,13.551c-4.265-9.909-11.577-25.966-19.578-42.355
					c-2.765,4.396-6.45,14.297-11.047,12.644c-10.086-3.626-12.866-31.311-25.149-14.518c-4.599,6.288-10.251,13.513-20.451,9.348
					c-7.619-3.111-10.703-13.771-13.897-21.642c-23.693,36.177-52.031,86.266-61.811,116.055h215.074
					C405.778,492.916,396.183,461.208,386.58,436.536z"/>
				<path style="fill:#FFFFFF;" d="M275.933,399.71c5.724-5.513,8.089-16.986,16.478-19.582c6.503-2.012,10.897,4.402,13.773,9.19
					c2.676,4.456,6.03,14.655,12.163,9.042c1.138-1.041,2.079-2.409,2.918-3.911c-13.24-26.754-27.693-52.85-33.142-53.035
					c-3.787-0.129-16.66,16.209-31.978,39.217C259.865,389.126,265.945,409.33,275.933,399.71z"/>
			</g>
			<g>
				<path style="fill:#7FC4D4;" d="M267.51,207.445c-2.431-5.194-8.016-8.269-13.423-7.198
					c-2.753-12.536-14.027-24.231-27.351-24.19c-14.104,0.043-23.448,11.231-28.809,23.129c-2.671-5.067-6.448-9.722-12.603-10.115
					c-3.057-0.195-5.974,1.008-7.926,3.39c-2.78-7.615-11.326-11.466-19.213-10.497c-7.359,0.904-14.001,6.724-13.595,14.035
					c-14.482-2.667-26.196,14.833-22.948,28.494c1.696,7.133,7.63,13.049,14.765,14.742c8.172,1.939,14.866-2.481,20.793-7.515
					c8.888,7.328,16.845,17.388,28.619,19.747c11.411,2.285,22.759-3.106,30.489-11.321c15.725,7.156,34.585,3.447,45.752-10.152
					C266.973,224.011,271.087,215.089,267.51,207.445z"/>
				<path style="fill:#FFFFFF;" d="M152.93,286.329c0-3.685,6.673-25.579,6.673-25.579s6.673,21.894,6.673,25.579
					s-2.988,6.673-6.673,6.673C155.918,293.002,152.93,290.014,152.93,286.329z"/>
				<path style="fill:#FFFFFF;" d="M179.814,319.055c0-3.141,5.688-21.805,5.688-21.805s5.688,18.663,5.688,21.805
					c0,3.142-2.547,5.688-5.688,5.688C182.36,324.743,179.814,322.196,179.814,319.055z"/>
				<path style="fill:#FFFFFF;" d="M197.314,400.055c0-3.141,5.688-21.805,5.688-21.805s5.688,18.663,5.688,21.805
					s-2.547,5.688-5.688,5.688C199.86,405.743,197.314,403.196,197.314,400.055z"/>
				<path style="fill:#FFFFFF;" d="M219.781,279.973c0-3.346,6.058-23.223,6.058-23.223s6.058,19.877,6.058,23.223
					c0,3.346-2.712,6.058-6.058,6.058S219.781,283.319,219.781,279.973z"/>
				<path style="fill:#FFFFFF;" d="M232.276,338.906c0-3.228,5.845-22.406,5.845-22.406s5.845,19.178,5.845,22.406
					s-2.617,5.845-5.845,5.845C234.893,344.752,232.276,342.135,232.276,338.906z"/>
				<path style="fill:#FFFFFF;" d="M196.856,279.906c0-1.221,2.211-8.477,2.211-8.477s2.211,7.256,2.211,8.477
					c0,1.221-0.99,2.211-2.211,2.211S196.856,281.127,196.856,279.906z"/>
				<path style="fill:#FFFFFF;" d="M148.348,338.692c0-1.221,2.211-8.477,2.211-8.477s2.211,7.256,2.211,8.477
					c0,1.221-0.99,2.211-2.211,2.211S148.348,339.913,148.348,338.692z"/>
				<path style="fill:#FFFFFF;" d="M220.699,314.026c0-1.221,2.211-8.477,2.211-8.477s2.211,7.256,2.211,8.477
					c0,1.221-0.99,2.211-2.211,2.211S220.699,315.248,220.699,314.026z"/>
				<path style="fill:#FFFFFF;" d="M180.437,358.012c0-2.343,4.242-16.262,4.242-16.262s4.242,13.919,4.242,16.262
					c0,2.343-1.899,4.242-4.242,4.242S180.437,360.355,180.437,358.012z"/>
				<path style="fill:#FFFFFF;" d="M185.104,438.679c0-2.343,4.242-16.262,4.242-16.262s4.242,13.919,4.242,16.262
					c0,2.343-1.899,4.242-4.242,4.242S185.104,441.022,185.104,438.679z"/>
			</g>
			<g>
				<path style="fill:#FFFFFF;" d="M597.635,345.24c-3.017-15.298-19.299-22.65-32.579-16.636c-2.638-5.8-5.208-10.612-6.807-13.837
					c-8.096,2.422-78.891,27.99-88.616,30.345c1.085,3.798,17.819,84.467,74.974,61.348c18.208-7.365,26.439-18.627,29.081-30.882
					C587.634,371.493,600.875,361.664,597.635,345.24z M589.074,350.893c-0.695,8.214-7.135,12.689-14.389,15.207
					c0.069-10.039-2.709-20.239-6.113-29.124C578.26,332.902,590.114,338.59,589.074,350.893z"/>
			</g>
			<g>
				<path style="fill:#FFAF4F;" d="M749.391,495.98l-89.633,21.833c-2.286,0.557-4.591-0.845-5.148-3.131l-25.315-103.926
					c-0.557-2.286,0.845-4.591,3.131-5.148l89.633-21.833c2.286-0.557,4.591,0.845,5.148,3.131l25.315,103.926
					C753.079,493.119,751.677,495.423,749.391,495.98z"/>
				<path style="fill:#FFFFFF;" d="M725.529,417.019l-80.896,19.705c-1.281,0.312-2.572-0.473-2.884-1.754l-5.302-21.764
					c-0.312-1.281,0.473-2.572,1.754-2.884l80.897-19.705c1.281-0.312,2.572,0.473,2.884,1.754l5.301,21.764
					C727.596,415.415,726.81,416.707,725.529,417.019z"/>
				<g>
					<g>
						<path style="fill:#44C994;" d="M665.022,459.673l-15.394,3.75c-0.494,0.12-0.993-0.183-1.113-0.677l-3.75-15.394
							c-0.12-0.494,0.183-0.992,0.677-1.113l15.394-3.75c0.494-0.12,0.992,0.183,1.113,0.677l3.75,15.394
							C665.819,459.054,665.516,459.552,665.022,459.673z"/>
						<path style="fill:#44C994;" d="M686.855,454.354l-15.394,3.75c-0.494,0.12-0.992-0.183-1.113-0.677l-3.75-15.394
							c-0.12-0.494,0.183-0.992,0.677-1.113l15.394-3.75c0.494-0.12,0.992,0.183,1.113,0.677l3.75,15.394
							C687.653,453.736,687.349,454.234,686.855,454.354z"/>
						<path style="fill:#44C994;" d="M708.688,449.036l-15.394,3.75c-0.494,0.12-0.993-0.183-1.113-0.677l-3.75-15.394
							c-0.12-0.494,0.183-0.992,0.677-1.113l15.394-3.75c0.494-0.12,0.992,0.183,1.113,0.677l3.75,15.394
							C709.486,448.418,709.183,448.916,708.688,449.036z"/>
					</g>
					<g>
						<path style="fill:#44C994;" d="M670.062,480.366l-15.394,3.75c-0.494,0.12-0.993-0.183-1.113-0.677l-3.75-15.394
							c-0.12-0.494,0.183-0.992,0.677-1.113l15.394-3.75c0.494-0.12,0.992,0.183,1.113,0.677l3.75,15.394
							C670.86,479.747,670.557,480.245,670.062,480.366z"/>
						<path style="fill:#44C994;" d="M691.896,475.047l-15.394,3.75c-0.494,0.12-0.992-0.183-1.113-0.677l-3.75-15.394
							c-0.12-0.494,0.183-0.993,0.677-1.113l15.394-3.75c0.494-0.12,0.992,0.183,1.113,0.677l3.75,15.394
							C692.693,474.429,692.39,474.927,691.896,475.047z"/>
						<path style="fill:#44C994;" d="M713.729,469.729l-15.394,3.75c-0.494,0.12-0.992-0.183-1.113-0.677l-3.75-15.394
							c-0.12-0.494,0.183-0.993,0.677-1.113l15.394-3.75c0.494-0.12,0.993,0.183,1.113,0.677l3.75,15.394
							C714.526,469.11,714.223,469.609,713.729,469.729z"/>
					</g>
					<g>
						<path style="fill:#44C994;" d="M675.103,501.059l-15.394,3.75c-0.494,0.12-0.992-0.183-1.113-0.677l-3.75-15.394
							c-0.12-0.494,0.183-0.993,0.677-1.113l15.394-3.75c0.494-0.12,0.993,0.183,1.113,0.677l3.75,15.394
							C675.9,500.44,675.597,500.938,675.103,501.059z"/>
						<path style="fill:#44C994;" d="M696.936,495.74l-15.394,3.75c-0.494,0.12-0.992-0.183-1.113-0.677l-3.75-15.394
							c-0.12-0.494,0.183-0.992,0.677-1.113l15.394-3.75c0.494-0.12,0.992,0.183,1.113,0.677l3.75,15.394
							C697.733,495.121,697.43,495.62,696.936,495.74z"/>
						<path style="fill:#44C994;" d="M718.77,490.422l-15.394,3.75c-0.494,0.12-0.992-0.183-1.113-0.677l-3.75-15.394
							c-0.12-0.494,0.183-0.992,0.677-1.113l15.394-3.75c0.494-0.12,0.992,0.183,1.113,0.677l3.75,15.394
							C719.567,489.803,719.264,490.301,718.77,490.422z"/>
					</g>
				</g>
				<path style="fill:#FFD2BD;" d="M736.004,457.781l-16.789,4.089c-0.63,0.153-1.264-0.233-1.418-0.862l-7.082-29.074
					c-0.153-0.63,0.233-1.264,0.862-1.418l16.789-4.089c0.63-0.153,1.264,0.233,1.418,0.862l7.082,29.074
					C737.019,456.993,736.633,457.628,736.004,457.781z"/>
				<path style="fill:#0F4F5E;" d="M742.61,484.332l-17.051,4.153c-0.557,0.136-1.119-0.206-1.255-0.763l-5.492-22.548
					c-0.136-0.557,0.206-1.119,0.763-1.255l17.051-4.153c0.557-0.136,1.119,0.206,1.255,0.763l5.492,22.548
					C743.509,483.635,743.167,484.197,742.61,484.332z"/>
			</g>
			<g>
				<g>
					<path style="fill:none;stroke:#FFFFFF;stroke-miterlimit:10;" d="M292.647,140.051c-3.08,11.57,1.202,23.634,4.224,35.219
						c4.304,16.499,6.06,34.077,1.685,50.557c-3.241,12.207-9.703,23.339-13.335,35.435c-5.047,16.808-4.357,35.283,1.931,51.667"/>
					<g>
						<path style="fill:#FFAF4F;" d="M265.795,49.51c11.559,0,21.472,7.041,25.69,17.067c4.218-10.026,14.131-17.067,25.691-17.067
							C332.564,49.51,345,56.613,345,72c0,37.631-53.514,68.693-53.514,68.693S237.5,117.184,237.5,81
							C237.5,65.613,250.408,49.51,265.795,49.51z"/>
						<polygon style="fill:#FFAF4F;" points="295.208,138.295 291.486,138.15 287.764,138.295 284.357,146.704 291.486,146.704 
							298.614,146.704 						"/>
					</g>
				</g>
				<g>
					<path style="fill:none;stroke:#FFFFFF;stroke-miterlimit:10;" d="M320.818,147.723c-2.168,8.145,0.846,16.637,2.974,24.793
						c3.03,11.615,4.266,23.989,1.186,35.591c-2.281,8.593-6.83,16.43-9.388,24.945c-3.553,11.832-3.067,24.838,1.359,36.372"/>
					<g>
						<path style="fill:#44C994;" d="M301.915,83.985c8.138,0,15.116,4.957,18.085,12.015c2.969-7.058,9.948-12.015,18.085-12.015
							c10.832,0,20.415,4.182,20.415,15.015c0,26.491-38.5,49.175-38.5,49.175s-40-23.203-40-48.675
							C280,88.668,291.082,83.985,301.915,83.985z"/>
						<polygon style="fill:#44C994;" points="322.62,146.487 320,146.385 317.38,146.487 314.982,152.407 320,152.407 
							325.018,152.407 						"/>
					</g>
				</g>
			</g>
			<g>
				<g>
					<path style="fill:#FFFFFF;" d="M97.726,32.127c-3.729,0-6.936,2.204-8.411,5.377c-1.476-3.172-4.682-5.377-8.411-5.377
						c-5.126,0-9.282,4.156-9.282,9.282c0,12.859,17.693,20.013,17.693,20.013s17.693-7.348,17.693-20.013
						C107.008,36.282,102.852,32.127,97.726,32.127z"/>
					<path style="fill:#FFFFFF;" d="M119.201,69.054c0-3.729-2.204-6.936-5.376-8.411c3.172-1.476,5.376-4.682,5.376-8.411
						c0-5.126-4.155-9.281-9.281-9.281c-12.859,0-20.013,17.693-20.013,17.693s7.348,17.693,20.013,17.693
						C115.046,78.336,119.201,74.18,119.201,69.054z"/>
					<path style="fill:#FFFFFF;" d="M82.274,90.529c3.729,0,6.936-2.204,8.411-5.377c1.476,3.172,4.682,5.377,8.411,5.377
						c5.126,0,9.282-4.156,9.282-9.282c0-12.859-17.693-20.013-17.693-20.013s-17.693,7.348-17.693,20.013
						C72.992,86.373,77.148,90.529,82.274,90.529z"/>
					<path style="fill:#FFFFFF;" d="M60.799,53.601c0,3.729,2.204,6.936,5.376,8.411c-3.172,1.475-5.376,4.682-5.376,8.411
						c0,5.126,4.155,9.281,9.281,9.281c12.859,0,20.013-17.693,20.013-17.693S82.746,44.32,70.08,44.32
						C64.954,44.32,60.799,48.475,60.799,53.601z"/>
				</g>
				
					<ellipse transform="matrix(0.8849 -0.4658 0.4658 0.8849 -18.2073 48.9872)" style="fill:#FFAF4F;" cx="90" cy="61.328" rx="12.328" ry="12.328"/>
			</g>
			<g>
				<g>
					<path style="fill:#7FC4D4;" d="M32.863,70.622c-2.347,0-4.365,1.387-5.294,3.384c-0.929-1.997-2.947-3.384-5.294-3.384
						c-3.226,0-5.841,2.615-5.841,5.841c0,8.093,11.135,12.595,11.135,12.595s11.135-4.624,11.135-12.595
						C38.704,73.238,36.089,70.622,32.863,70.622z"/>
					<path style="fill:#7FC4D4;" d="M46.378,93.863c0-2.347-1.387-4.365-3.384-5.294c1.996-0.929,3.384-2.947,3.384-5.294
						c0-3.226-2.615-5.841-5.841-5.841c-8.093,0-12.595,11.135-12.595,11.135s4.624,11.135,12.595,11.135
						C43.762,99.704,46.378,97.089,46.378,93.863z"/>
					<path style="fill:#7FC4D4;" d="M23.137,107.378c2.347,0,4.365-1.387,5.294-3.384c0.929,1.997,2.947,3.384,5.294,3.384
						c3.226,0,5.841-2.615,5.841-5.841c0-8.093-11.135-12.595-11.135-12.595s-11.135,4.624-11.135,12.595
						C17.296,104.762,19.911,107.378,23.137,107.378z"/>
					<path style="fill:#7FC4D4;" d="M9.622,84.137c0,2.347,1.387,4.365,3.384,5.294c-1.997,0.929-3.384,2.947-3.384,5.294
						c0,3.226,2.615,5.841,5.841,5.841c8.093,0,12.595-11.135,12.595-11.135s-4.624-11.135-12.595-11.135
						C12.238,78.296,9.622,80.911,9.622,84.137z"/>
				</g>
				<circle style="fill:#44C994;" cx="28" cy="89" r="7.758"/>
			</g>
			<g>
				<g>
					<path style="fill:#0F4F5E;" d="M32.863,21.622c-2.347,0-4.365,1.387-5.294,3.384c-0.929-1.997-2.947-3.384-5.294-3.384
						c-3.226,0-5.841,2.615-5.841,5.841c0,8.093,11.135,12.595,11.135,12.595s11.135-4.624,11.135-12.595
						C38.704,24.238,36.089,21.622,32.863,21.622z"/>
					<path style="fill:#0F4F5E;" d="M46.378,44.863c0-2.347-1.387-4.365-3.384-5.294c1.996-0.929,3.384-2.947,3.384-5.294
						c0-3.226-2.615-5.841-5.841-5.841c-8.093,0-12.595,11.135-12.595,11.135s4.624,11.135,12.595,11.135
						C43.762,50.704,46.378,48.089,46.378,44.863z"/>
					<path style="fill:#0F4F5E;" d="M23.137,58.378c2.347,0,4.365-1.387,5.294-3.384c0.929,1.997,2.947,3.384,5.294,3.384
						c3.226,0,5.841-2.615,5.841-5.841c0-8.093-11.135-12.595-11.135-12.595s-11.135,4.624-11.135,12.595
						C17.296,55.762,19.911,58.378,23.137,58.378z"/>
					<path style="fill:#0F4F5E;" d="M9.622,35.137c0,2.347,1.387,4.365,3.384,5.294c-1.997,0.929-3.384,2.947-3.384,5.294
						c0,3.226,2.615,5.841,5.841,5.841c8.093,0,12.595-11.135,12.595-11.135s-4.624-11.135-12.595-11.135
						C12.238,29.296,9.622,31.911,9.622,35.137z"/>
				</g>
				<circle style="fill:#FFFFFF;" cx="28" cy="40" r="7.758"/>
			</g>
			<g>
				<g>
					<path style="fill:none;" d="M414.328,135.857c-7.228,12.712-14.945,20.541-17.065,28.313h54.626v-37.033
						C429.638,127.159,416.324,132.347,414.328,135.857z"/>
					<path style="fill:none;" d="M458.427,127.281v36.889h48.604c-2.12-7.771-9.837-15.601-17.065-28.313
						C488.158,132.677,477.047,128.125,458.427,127.281z"/>
					<path style="fill:#7FC4D4;" d="M548.361,187.678c-2.18-15.256-33.53-23.275-33.53-23.275s-9.341-16.361-18.37-32.24
						c-4.54-7.983-23.246-12.345-43.14-12.494v0.006c-20.752-0.19-40.772,4.191-45.49,12.488c-9.029,15.879-18.37,32.24-18.37,32.24
						s-21.387,8.095-23.566,23.351c-2.179,15.256,0,25.219,0,25.219h87.426h5.105h86.917
						C545.344,212.974,550.541,202.934,548.361,187.678z M451.889,164.169h-54.626c4.045-6.288,8.761-16.577,17.065-28.313
						c2.332-3.296,15.31-8.698,37.561-8.72V164.169z M458.427,164.169v-36.889c18.62,0.844,29.513,5.53,31.539,8.576
						c8.234,12.378,13.379,21.167,17.065,28.313H458.427z"/>
					<path style="fill:#FFFFFF;" d="M543.186,196.311c0.415,3.419,2.476,5.398,5.188,6c0.566-3.853,0.772-8.624,0.053-14.071
						C544.469,188.539,542.746,192.689,543.186,196.311z"/>
				</g>
				<g>
					<g>
						
							<ellipse transform="matrix(0.9223 -0.3864 0.3864 0.9223 -51.4644 169.925)" style="fill:#0F4F5E;" cx="396.935" cy="212.974" rx="15.879" ry="15.879"/>
						<circle style="fill:#FFFFFF;" cx="396.935" cy="212.974" r="3.445"/>
					</g>
					<g>
						
							<ellipse transform="matrix(0.7071 -0.7071 0.7071 0.7071 -0.8326 423.9374)" style="fill:#0F4F5E;" cx="511.321" cy="212.974" rx="15.879" ry="15.879"/>
						<path style="fill:#FFFFFF;" d="M507.877,212.974c0-1.903,1.542-3.445,3.445-3.445c1.902,0,3.445,1.542,3.445,3.445
							c0,1.902-1.542,3.445-3.445,3.445C509.419,216.419,507.877,214.876,507.877,212.974z"/>
					</g>
				</g>
				<path style="fill:#FFFFFF;" d="M446.11,171.172h-10.504c-3.31,0-3.316,5.145,0,5.145h10.504
					C449.421,176.317,449.426,171.172,446.11,171.172z"/>
				<path style="fill:#FFFFFF;" d="M473.333,170.77c-3.643-0.1-7.287-0.201-10.93-0.301c-3.312-0.091-3.31,5.053,0,5.145
					c3.643,0.1,7.287,0.201,10.93,0.301C476.645,176.006,476.643,170.861,473.333,170.77z"/>
			</g>
			<g>
				<path style="fill:#FFA188;" d="M111.075,158.204c-1.844-0.82-15.623,8.665-20.58,12.11c0.284-0.197,15.103-39.708,8.765-43.648
					c-4.169-2.592-12.821,27.019-17.04,28.307c0,0,1.138-42.4-6.894-40.055c-4.299,1.255-9.636,42.157-9.477,44.544
					c-0.748-11.261-5.014-50.097-12.745-46.947c-3.167,1.29-0.146,62.012-4.928,60.109c-3.123-1.243-20.495-14.172-21.609-9.317
					c-2.297,10.012,15.165,17.283,19.879,46.234c4.806,29.518,3.044,85.6,3.133,107.866h32.918
					c-0.359-12.427,0.123-115.577,6.395-126.428c3.915-6.774,23.375-28.85,23.463-29.52
					C112.528,160.146,112.334,158.764,111.075,158.204z"/>
				<path style="fill:#7FC4D4;" d="M85.227,237.338c-0.02,1.608-0.193,3.193-0.451,4.766c1.826,0.079,3.651,0.206,5.482,0.441
					c3.168,0.405,18.126,3.069,8.842,9.098c-3.339,2.168-8.493,2.609-12.322,3.334c-5.157,0.977-10.357,1.704-15.583,2.189
					c-9.595,0.891-19.303,1.709-28.923,0.713c-1.977-0.205-8.674-0.82-8.873-3.875c-0.124-1.908,2.611-2.806,3.97-3.54
					c3.7-1.999,7.565-3.378,11.603-4.371c-0.124-1.549-0.268-3.097-0.421-4.645c-5.938,1.337-12.419,3.454-17.184,7.123
					c-2.37,1.825-4.488,4.24-3.552,7.409c1.625,5.5,9.011,6.017,13.694,6.262c17.884,0.938,36.96,0.383,54.298-4.517
					c4.528-1.28,10.973-3.582,11.391-9.095C107.895,239.425,95.139,237.512,85.227,237.338z"/>
				<path style="fill:#44C994;" d="M85.887,224.951c-0.154,1.595-0.32,3.188-0.499,4.779c1.622,0.084,3.244,0.205,4.871,0.413
					c3.168,0.405,18.126,3.069,8.842,9.098c-3.339,2.168-8.493,2.609-12.322,3.334c-5.157,0.977-10.357,1.703-15.583,2.189
					c-9.595,0.891-19.303,1.709-28.923,0.713c-1.977-0.205-8.674-0.82-8.873-3.875c-0.124-1.908,2.611-2.806,3.97-3.54
					c3.419-1.847,6.98-3.165,10.687-4.139c-0.133-1.559-0.266-3.119-0.401-4.678c-5.686,1.347-11.764,3.44-16.289,6.925
					c-2.37,1.825-4.488,4.24-3.552,7.409c1.625,5.5,9.011,6.017,13.694,6.262c17.884,0.938,36.96,0.383,54.298-4.517
					c4.528-1.281,10.973-3.583,11.391-9.095C107.88,227.226,95.695,225.199,85.887,224.951z"/>
				<path style="fill:#FFAF4F;" d="M86.983,212.584c-0.406,1.577-0.727,3.17-1.012,4.772c1.427,0.086,2.855,0.203,4.287,0.386
					c3.168,0.405,18.126,3.069,8.842,9.098c-3.339,2.168-8.493,2.608-12.322,3.334c-5.157,0.977-10.357,1.703-15.583,2.189
					c-9.595,0.891-19.303,1.709-28.923,0.713c-1.977-0.205-8.674-0.82-8.873-3.875c-0.124-1.908,2.611-2.806,3.97-3.54
					c2.891-1.562,5.884-2.743,8.979-3.661c-0.177-1.582-0.282-3.167-0.225-4.767c-5.229,1.353-10.635,3.361-14.756,6.535
					c-2.37,1.825-4.488,4.24-3.552,7.409c1.625,5.5,9.011,6.017,13.694,6.262c17.884,0.938,36.96,0.383,54.298-4.517
					c4.528-1.281,10.973-3.582,11.391-9.095C107.855,215.158,96.578,212.956,86.983,212.584z"/>
			</g>
			<g>
				<g>
					<path style="fill:#FFD2BD;" d="M680.712,114.735v51.5c0,12.226,19,12.246,19,0v-51.5
						C699.712,102.509,680.712,102.489,680.712,114.735z"/>
				</g>
				<path style="fill:#44C994;" d="M725.192,51.675c-1.954-10.539-5-22.283-13.204-29.359c-5.889-5.078-13.807-7.433-21.776-7.345
					c-7.969-0.088-15.888,2.267-21.776,7.345c-8.204,7.076-11.25,18.82-13.204,29.359c-2.304,12.422-2.404,25.232-1.783,37.831
					c0.31,6.289,0.92,12.556,1.557,18.816c0.553,5.433,0.316,11.792,3.875,16.167c4.121,5.066,10.295,4.763,16.118,5.256
					c5.07,0.429,25.355,0.429,30.425,0c5.823-0.493,11.997-0.19,16.118-5.256c3.559-4.375,3.322-10.734,3.876-16.167
					c0.638-6.26,1.248-12.527,1.557-18.816C727.596,76.907,727.496,64.097,725.192,51.675z"/>
			</g>
			<g>
				<path style="fill:#35B884;" d="M685.456,65.207c-1.283-3.949-3.009-5.78-4.745-5.712c-1.736-0.068-3.462,1.763-4.745,5.712
					c-1.788,5.502-2.451,14.635-2.877,22.831c-0.502,9.66-0.524,19.622-0.388,29.42c0.056,4.057,0.16,8.101,0.272,12.141
					c0.677,0.045,1.354,0.091,2.025,0.148c2.298,0.195,7.722,0.301,13.438,0.319c0.117-4.195,0.227-8.395,0.285-12.608
					c0.135-9.798,0.113-19.76-0.389-29.42C687.907,79.842,687.244,70.709,685.456,65.207z"/>
				<path style="fill:#35B884;" d="M707.333,88.038c-0.426-8.195-1.089-17.329-2.877-22.831c-1.283-3.949-3.009-5.78-4.745-5.712
					c-1.736-0.068-3.462,1.763-4.745,5.712c-1.788,5.502-2.451,14.635-2.877,22.831c-0.502,9.66-0.524,19.622-0.388,29.42
					c0.058,4.213,0.168,8.412,0.285,12.608c5.716-0.018,11.14-0.124,13.438-0.319c0.672-0.057,1.348-0.103,2.025-0.148
					c0.112-4.04,0.216-8.084,0.272-12.141C707.857,107.659,707.835,97.697,707.333,88.038z"/>
			</g>
			<g>
				<path style="fill:#7FC4D4;" d="M173.222,47.772c-0.666-1.522-1.538-2.902-2.568-4.131c6.195-7.19,7.156-17.361,0.31-23.359
					c2.083-7.885-0.719-17.434-9.781-18.77c-2.518-0.371-3.605,3.482-1.063,3.857c6.197,0.914,8.33,7.093,7.371,12.593
					c-0.168-0.085-0.33-0.173-0.504-0.255c-5.152-2.419-11.139-1.905-16.304,0.178c-3.7,1.492-10.066,4.702-7.823,9.719
					c1.803,4.034,8.048,5.314,11.969,5.253c5.008-0.078,9.799-2.304,12.971-6.179c0.591-0.722,1.116-1.511,1.574-2.351
					c4.167,4.733,2.606,11.573-1.625,16.57c-4.511-3.428-10.576-4.797-16.248-3.507c-5.788,1.317-15.667,9.04-7.55,14.22
					c6.943,4.432,17.375,0.152,23.672-5.034c4.041,5.317,4.406,13.352-0.028,19.539c-0.194,0.27-0.401,0.526-0.609,0.781
					c-4.232-4.465-10.286-7.284-17.414-6.763c-7.552,0.551-19.147,6.725-8.727,13.225c7.73,4.822,18.51,4.855,25.856-0.702
					c2.972,4.703,3.858,10.747,1.475,16.598c-1.21,2.971-3.256,5.467-5.787,7.336c-2.904-2.954-6.528-5.195-10.466-6.295
					c-3.488-0.974-8.596-1.518-11.772,0.729c-3.573,2.527-2.704,6.901,0.058,9.66c5.374,5.368,14.597,4.424,21.295,1.074
					c4.165,5.863,5.148,13.786,0.553,20.134c-1.096,1.514-2.427,2.862-3.918,4.013c-1.73-1.437-3.688-2.615-5.769-3.449
					c-4.624-1.853-21.355-2.905-18.363,6.481c1.117,3.505,6.019,4.676,9.159,5.085c4.516,0.588,9.132-0.339,13.2-2.346
					c0.448-0.221,0.886-0.459,1.319-0.706c2.13,2.467,3.465,5.536,3.28,8.909c-0.419,7.608-8.092,14.093-15.617,12.195
					c-2.497-0.63-3.562,3.227-1.063,3.857c9.018,2.275,18.02-4.081,20.227-12.924c1.318-5.281-0.343-10.341-3.57-14.276
					c5.302-4.298,8.73-10.751,8.219-17.774c-0.296-4.068-1.838-7.971-4.211-11.309c0.16-0.119,0.333-0.233,0.486-0.355
					c9.851-7.817,9.911-20.422,4.065-29.227C174.762,64.131,176.426,55.094,173.222,47.772z M158.494,28.283
					c-2.498,0.74-14.216,1.117-10.455-4.532c1.327-1.994,6.033-2.987,8.222-3.381c3.329-0.598,6.917-0.288,9.898,1.401
					c0.024,0.014,0.045,0.028,0.069,0.042c-0.089,0.175-0.168,0.357-0.264,0.526C164.324,25.216,161.666,27.343,158.494,28.283z
					 M145.968,48.158c-1.849-2.624,0.888-4.412,2.574-5.378c2.516-1.442,5.47-2.025,8.353-1.833
					c3.115,0.207,5.767,1.241,7.896,2.824c-3.875,3.161-8.814,5.261-13.808,5.351C149.785,49.144,146.783,49.314,145.968,48.158z
					 M140.055,125.625c2.31-1.834,7.601-0.609,10.049,0.238c1.544,0.534,3.051,1.312,4.432,2.28
					c-2.339,1.144-4.885,1.854-7.454,2.031C145.008,130.318,135.58,129.179,140.055,125.625z M147.094,99.9
					c-1.497-0.397-8.387-3.371-3.149-6.15c1.687-0.896,5.237-0.061,6.913,0.404c3.014,0.837,5.718,2.437,7.943,4.519
					c-1.083,0.48-2.21,0.868-3.368,1.144C152.761,100.452,149.779,100.612,147.094,99.9z M150.307,72.682
					c-2.627-0.424-5.196-1.353-7.445-2.777c-5.193-3.286,3.902-5.525,6.709-5.771c5.819-0.511,11.012,1.703,14.645,5.393
					C160.309,72.41,155.151,73.464,150.307,72.682z"/>
				<path style="fill:#44C994;" d="M191.457,70.728c1.999,1.459,4.338,2.52,6.921,3.002c4.651,0.868,21.579-2.095,15.34-10.211
					c-4.773-6.21-15.375-2.1-22.019,2.182c-2.174-2.59-2.933-5.941-2.557-9.081c3.433,2.117,7.497,3.247,11.523,3.017
					c3.434-0.196,8.439-1.424,9.846-5.027c1.414-3.621-1.693-7.314-4.61-9.114c-6.493-4.008-14.811-1.852-18.8,4.049
					c-0.702-0.916-1.301-1.915-1.756-3c-2.267-5.396-0.515-11.825,3.467-15.963c0.056-0.058,0.119-0.111,0.176-0.169
					c0.338,0.739,0.71,1.464,1.149,2.155c3.549,5.593,14.877,11.06,18.593,2.534c4.197-9.631-7.865-14.48-15.331-12.076
					c-0.708,0.228-1.388,0.518-2.055,0.836c-0.378-4.253,1.066-8.371,4.404-11.255c1.951-1.686-0.889-4.505-2.828-2.828
					c-4.717,4.076-6.421,10.501-5.272,16.444c-5.501,4.532-8.533,12.221-6.894,19.199c0.73,3.108,2.35,5.854,4.515,8.093
					c-0.011,0.042-0.029,0.08-0.04,0.122c-1.404,5.321,0.055,10.54,3.286,14.368c-0.294,0.242-0.573,0.479-0.823,0.707
					c-6.431,5.853-12.292,17.536-3.917,24.339c0.069,0.056,0.154,0.104,0.225,0.159c-1.042,3.896-0.405,8.21,2.41,11.931
					c0.277,0.366,0.587,0.727,0.924,1.08c-4.571,5.384-5.687,13.644-1.971,19.32c-2.651,2.985-4.147,7.016-3.598,11.494
					c1.362,11.112,14.192,15.392,22.647,8.835c2.032-1.575-0.818-4.388-2.828-2.828c-5.117,3.968-12.956,2.017-15.24-4.106
					c-1.43-3.833-0.578-7.686,1.692-10.461c0.888,0.709,1.896,1.333,3.045,1.838c3.973,1.747,9.032,1.677,12.672-0.867
					c3.873-2.707,3.314-6.135-0.927-7.93c-5.008-2.12-10.317-1.307-14.368,1.35c-2.322-4.023-1.646-9.653,1.265-13.351
					c0.216-0.275,0.443-0.538,0.678-0.793c5.55,3.576,13.687,4.753,16.682-2.193c1.306-3.029-0.017-5.886-3.227-6.696
					c-4.316-1.089-10.041,1.155-13.591,3.691c-1.698-1.97-2.824-4.385-2.902-6.69c-0.02-0.605,0.028-1.195,0.127-1.771
					c6.348,2.327,16.086,1.917,20.062-2.654c2.533-2.912,0.861-6.604-1.976-8.544c-3.75-2.564-9.012-2.235-12.993-0.474
					c-2.989,1.322-5.334,3.44-6.898,5.952c-1.156-1.132-1.942-2.646-2.091-4.652C183.2,79.352,187.264,74.135,191.457,70.728z
					 M197.917,26.231c3.393-0.114,8.857,2.322,7.363,6.718c-1.733,5.1-8.269,1.465-10.29-0.643c-1.203-1.254-2.1-2.782-2.716-4.411
					C193.996,26.92,195.91,26.298,197.917,26.231z M203.044,48.535c3.055,1.53,5.065,5.079,0.763,6.492
					c-2.133,0.701-4.405,0.773-6.605,0.417c-2.476-0.4-4.865-1.378-6.902-2.827C192.418,48.238,197.065,45.541,203.044,48.535z
					 M200.449,124.888c1.493,0.799,3.034-0.013,0.239,1.736c-2.448,1.532-6.338,1.006-8.713-0.307
					c-0.267-0.148-0.508-0.317-0.752-0.484c1.33-0.735,2.835-1.229,4.476-1.38C197.169,124.319,199.094,124.164,200.449,124.888z
					 M201.445,103.733c2.145,0.931,1.511,2.853-0.936,3.616c-2.394,0.746-4.897,0.174-7.074-1.135
					c1.092-0.683,2.27-1.239,3.511-1.646C198.096,104.191,200.33,103.25,201.445,103.733z M196.527,86.264
					c2.269-0.506,10.422,0.522,5.368,4.764c-1.526,1.28-5.395,1.201-7.373,1.199c-1.841-0.002-3.785-0.255-5.516-0.878
					C190.718,88.797,193.558,86.925,196.527,86.264z M207.304,64.733c0.604,0.121,1.207,0.242,1.811,0.363
					c0.759,2.215,0.281,3.491-1.433,3.827c-1.178,0.769-3.323,1.017-4.616,1.106c-2.796,0.191-5.704-0.342-8.169-1.707
					C198.315,66.265,203.908,63.634,207.304,64.733z"/>
			</g>
			<g>
				<path style="fill:#FFAF4F;" d="M713.193,326.687c-0.463-8.896-7.238-17.736-13.154-23.929
					c-4.927-5.157-10.685-9.319-16.991-12.498c13.384-1.276,35.375-4.756,26.783-17.845c-4.182-6.371-13.057-5.896-19.665-5.087
					c-5.364,0.657-10.551,2.056-15.504,4.063c5.679-6.107,11.218-12.437,15.892-19.195c4.657-6.733,5.707-15.999-2.919-19.898
					c-8.426-3.81-16.696,1.889-22.251,7.932c-4.763,5.181-8.555,11.096-11.35,17.475c0.002-8.582,0.003-17.189-0.579-25.702
					c-0.476-6.955-4.148-16.189-12.734-15.399c-7.789,0.717-9.301,9.81-9.814,16.04c-0.559,6.786-0.519,13.582,0.013,20.345
					c-1.227-1.459-2.454-2.918-3.681-4.378c-3.208-3.816-6.292-8.362-10.711-10.901c-7.487-4.303-13.594,1.495-13.185,9.371
					c0.463,8.896,7.238,17.736,13.154,23.929c4.927,5.157,10.685,9.319,16.991,12.498c-13.384,1.276-35.375,4.756-26.783,17.845
					c4.182,6.371,13.057,5.896,19.665,5.087c5.364-0.657,10.551-2.056,15.504-4.063c-5.679,6.107-11.218,12.437-15.892,19.195
					c-4.657,6.733-5.706,15.998,2.919,19.898c8.426,3.81,16.696-1.889,22.251-7.932c4.763-5.181,8.556-11.096,11.35-17.474
					c-0.002,8.582-0.003,17.188,0.579,25.702c0.476,6.955,4.148,16.189,12.734,15.399c7.79-0.716,9.301-9.81,9.814-16.04
					c0.559-6.786,0.519-13.583-0.013-20.345c1.227,1.459,2.454,2.918,3.68,4.378c3.208,3.815,6.292,8.362,10.711,10.901
					C707.495,340.362,713.602,334.564,713.193,326.687z"/>
				
					<ellipse transform="matrix(0.7576 -0.6528 0.6528 0.7576 -28.4087 501.4055)" style="fill:#0F4F5E;" cx="660.828" cy="288.949" rx="11.667" ry="19.667"/>
			</g>
			<g>
				<polygon style="fill:#0F4F5E;" points="639,145.5 567.333,146.015 575.603,0.015 629.353,0.015 				"/>
				<g>
					<rect x="585.939" y="12.333" style="fill:#FFFFFF;" width="8.269" height="24.667"/>
					<rect x="600.181" y="12.333" style="fill:#FFFFFF;" width="8.269" height="24.667"/>
					<rect x="614.422" y="12.333" style="fill:#FFFFFF;" width="8.269" height="24.667"/>
				</g>
				<g>
					<rect x="585.939" y="49.333" style="fill:#FFFFFF;" width="8.269" height="24.667"/>
					<rect x="600.181" y="49.333" style="fill:#FFFFFF;" width="8.269" height="24.667"/>
					<rect x="614.422" y="49.333" style="fill:#FFFFFF;" width="8.269" height="24.667"/>
				</g>
				<g>
					<rect x="585.939" y="86.333" style="fill:#FFFFFF;" width="8.269" height="24.667"/>
					<rect x="600.181" y="86.333" style="fill:#FFFFFF;" width="8.269" height="24.667"/>
					<rect x="614.422" y="86.333" style="fill:#FFFFFF;" width="8.269" height="24.667"/>
				</g>
			</g>
			<g>
				<path style="fill:#FFFFFF;" d="M530.872,0.015c-2.948,9.599-8.338,18.299-15.865,25.239
					c-10.342,9.535-23.662,15.434-37.304,18.417c-13.894,3.038-28.525,3.247-42.467,0.387c-12.301-2.524-24.71-7.615-33.681-16.654
					c-7.399-7.455-11.256-17.132-11.316-27.39h-50.702c8.16,23.186,25.015,42.849,44.195,57.801
					c18.113,14.119,39.5,24.88,62.187,29.069c10.589,1.956,21.53,2.42,32.192,0.749c10.931-1.713,21.693-5.555,31.568-10.489
					c18.989-9.486,35.337-24.217,45.886-42.715c6.11-10.714,10.019-22.392,11.807-34.415H530.872z"/>
				<g>
					<path style="fill:#C5E7F0;" d="M407.132,51.7c-2.273-1.395-4.492-2.902-6.634-4.555c-5.15-3.974-9.643-8.589-13.708-13.583
						c-2.218,1.497-4.465,2.952-6.741,4.371c3.449,4.306,7.188,8.366,11.353,12.03c4.043,3.557,8.413,6.671,13.028,9.353
						C405.349,56.782,406.283,54.255,407.132,51.7z"/>
					<path style="fill:#C5E7F0;" d="M434.612,62.319c-6.999-1.427-13.803-3.613-20.232-6.679c-0.867,2.489-1.788,4.961-2.672,7.445
						c7.294,3.379,15.044,5.797,22.973,7.291C434.761,67.687,434.768,64.998,434.612,62.319z"/>
					<path style="fill:#C5E7F0;" d="M464.735,64.09c-7.352,0.519-14.754,0.409-22.022-0.466c0.096,2.649,0.081,5.297,0.01,7.951
						c7.814,0.891,15.697,0.997,23.534,0.415C465.618,69.383,465.088,66.755,464.735,64.09z"/>
					<path style="fill:#C5E7F0;" d="M487.357,60.515c-4.755,1.166-9.62,2.097-14.54,2.755c0.356,2.658,0.913,5.277,1.586,7.874
						c5.484-0.744,10.921-1.837,16.281-3.217C489.634,65.429,488.545,62.949,487.357,60.515z"/>
					<path style="fill:#C5E7F0;" d="M515.966,49.626c-6.067,3.514-12.75,6.189-19.773,8.413c-0.297,0.094-0.598,0.181-0.897,0.273
						c1.128,2.441,2.175,4.919,3.21,7.403c8.352-2.591,16.571-5.907,23.932-10.488C520.303,53.337,518.132,51.485,515.966,49.626z"
						/>
					<path style="fill:#C5E7F0;" d="M534.98,32.129c-3.398,5.104-7.459,9.295-12.014,12.809c2.106,1.803,4.211,3.606,6.272,5.457
						c3.34-2.707,6.419-5.758,9.128-9.247c1.539-1.982,2.943-4.034,4.249-6.135C540.139,33.769,537.607,32.697,534.98,32.129z"/>
					<path style="fill:#C5E7F0;" d="M546.877,6.132c-2.23,6.393-4.63,12.71-7.702,18.725c2.513,0.815,4.953,1.929,7.357,3.142
						c3.482-6.951,6.154-14.311,8.702-21.725C552.449,6.252,549.663,6.206,546.877,6.132z"/>
					<path style="fill:#C5E7F0;" d="M381.881,27.087c-4.316-6.087-8.176-12.541-11.904-18.976c-2.4,1.182-4.821,2.323-7.266,3.416
						c3.901,6.736,7.935,13.488,12.436,19.875C377.42,30.001,379.665,28.565,381.881,27.087z"/>
				</g>
			</g>
			<path style="fill:#FFFFFF;" d="M614.149,181.082c-2.053,0.908-3.979,2.062-5.764,3.405c-0.033-5.788-1.797-10.947-7.773-11.515
				c-6.069-0.576-9.566,5.702-11.423,12.333c-1.15-1.986-2.422-4.19-4.57-5.201c-4.652-2.187-9.038,1.432-10.201,5.914
				c-2.761,10.641,7.672,23.288,15.201,29.441c1.057,0.864,2.235,1.081,3.323,0.893c0.492,0.284,1.065,0.48,1.729,0.543
				c7.858,0.746,13.893-4.518,19.03-9.783c4.847-4.969,12.245-11.387,12.069-18.96C625.613,181.439,620.03,178.481,614.149,181.082z
				"/>
			<path style="fill:#FFFFFF;" d="M354.918,229.496c-1.301,0.576-2.522,1.307-3.653,2.158c-0.021-3.668-1.138-6.938-4.926-7.297
				c-3.846-0.365-6.062,3.613-7.239,7.816c-0.729-1.258-1.535-2.656-2.896-3.296c-2.948-1.386-5.728,0.907-6.465,3.748
				c-1.75,6.744,4.862,14.758,9.633,18.657c0.67,0.548,1.417,0.685,2.106,0.566c0.312,0.18,0.675,0.304,1.096,0.344
				c4.98,0.473,8.804-2.863,12.06-6.2c3.072-3.148,7.76-7.216,7.648-12.015C362.183,229.722,358.645,227.847,354.918,229.496z"/>
			<path style="fill:#FFFFFF;" d="M342.019,352.262c-4.372-6.246-12.269-7.512-17.358-4.849c8.133-1.263,12.937,6.5,16.236,12.607
				c1.286,2.38,4.411,1.01,4.659-1.262c1.461-13.425,13.978-22.121,27.078-19.212C359.5,332.5,346.525,339.317,342.019,352.262z"/>
			<path style="fill:#FFFFFF;" d="M384.019,363.262c-4.372-6.246-12.269-7.512-17.358-4.849c8.133-1.263,12.937,6.5,16.236,12.607
				c1.286,2.38,4.411,1.01,4.659-1.262c1.461-13.425,13.978-22.121,27.078-19.212C401.5,343.5,388.525,350.317,384.019,363.262z"/>
			<g>
				<g>
					<path style="fill:#C5E7F0;" d="M634.729,378.027c-1.1-2.491-2.2-4.981-3.3-7.472c-0.527-1.192-2.268-1.471-3.302-0.866
						c-1.229,0.719-1.394,2.105-0.866,3.302c1.1,2.491,2.2,4.981,3.3,7.472c0.527,1.192,2.268,1.471,3.302,0.866
						C635.093,380.61,635.258,379.224,634.729,378.027z"/>
					<path style="fill:#C5E7F0;" d="M647.32,385.924l-5.9-13.407c-1.248-2.837-5.408-0.383-4.168,2.436l5.9,13.407
						C644.4,391.197,648.56,388.743,647.32,385.924z"/>
					<path style="fill:#C5E7F0;" d="M636.168,361.231c-0.701-1.259-1.402-2.519-2.102-3.778c-0.634-1.138-2.194-1.514-3.302-0.866
						c-1.147,0.671-1.502,2.159-0.866,3.302c0.701,1.259,1.402,2.519,2.102,3.778c0.633,1.138,2.194,1.514,3.302,0.866
						C636.449,363.861,636.804,362.373,636.168,361.231z"/>
					<path style="fill:#C5E7F0;" d="M647.795,365.979c-1.049-3.17-2.311-6.259-3.767-9.264c-1.354-2.795-5.517-0.35-4.168,2.436
						c1.276,2.635,2.36,5.332,3.28,8.111C644.112,370.198,648.775,368.94,647.795,365.979z"/>
					<path style="fill:#C5E7F0;" d="M657.647,385.766c-1.788-3.933-3.577-7.865-5.365-11.797c-1.284-2.824-5.445-0.373-4.168,2.436
						c1.788,3.932,3.577,7.865,5.365,11.798C654.763,391.026,658.925,388.575,657.647,385.766z"/>
					<path style="fill:#C5E7F0;" d="M658.085,367.702c-0.827-2.827-1.998-5.536-3.503-8.068c-1.585-2.668-5.759-0.243-4.168,2.436
						c1.303,2.194,2.299,4.465,3.016,6.915C654.301,371.96,658.96,370.694,658.085,367.702z"/>
				</g>
			</g>
			<g>
				<g>
					<path style="fill:#C5E7F0;" d="M270.588,24.764c-1.1-2.49-2.2-4.981-3.3-7.472c-0.527-1.192-2.267-1.471-3.302-0.866
						c-1.229,0.719-1.395,2.105-0.866,3.302c1.1,2.49,2.2,4.981,3.3,7.472c0.527,1.192,2.268,1.471,3.302,0.866
						C270.952,27.347,271.117,25.961,270.588,24.764z"/>
					<path style="fill:#C5E7F0;" d="M283.179,32.661l-5.9-13.407c-1.248-2.837-5.408-0.383-4.168,2.436l5.9,13.407
						C280.259,37.934,284.419,35.481,283.179,32.661z"/>
					<path style="fill:#C5E7F0;" d="M272.027,7.968c-0.701-1.259-1.402-2.519-2.103-3.778c-0.633-1.138-2.194-1.514-3.302-0.866
						c-1.147,0.671-1.502,2.159-0.866,3.302c0.701,1.259,1.402,2.518,2.103,3.778c0.633,1.138,2.194,1.514,3.302,0.866
						C272.308,10.599,272.663,9.111,272.027,7.968z"/>
					<path style="fill:#C5E7F0;" d="M283.654,12.717c-1.049-3.17-2.311-6.259-3.767-9.264c-1.354-2.795-5.517-0.35-4.168,2.436
						c1.276,2.635,2.36,5.331,3.28,8.111C279.971,16.935,284.634,15.678,283.654,12.717z"/>
					<path style="fill:#C5E7F0;" d="M293.506,32.504c-1.788-3.933-3.577-7.865-5.365-11.797c-1.284-2.824-5.445-0.373-4.168,2.436
						c1.788,3.933,3.577,7.865,5.365,11.797C290.622,37.763,294.784,35.313,293.506,32.504z"/>
					<path style="fill:#C5E7F0;" d="M293.944,14.439c-0.827-2.827-1.998-5.536-3.503-8.068c-1.585-2.668-5.759-0.243-4.168,2.436
						c1.303,2.194,2.299,4.466,3.016,6.915C290.16,18.697,294.819,17.432,293.944,14.439z"/>
				</g>
			</g>
			<g>
				<g>
					<path style="fill:#44C994;" d="M7.31,310.51c-1.1-2.491-2.2-4.981-3.3-7.472c-0.527-1.192-2.268-1.471-3.302-0.866
						c-1.229,0.719-1.395,2.105-0.866,3.302c1.1,2.49,2.2,4.981,3.3,7.472c0.527,1.193,2.268,1.471,3.302,0.866
						C7.673,313.093,7.839,311.707,7.31,310.51z"/>
					<path style="fill:#44C994;" d="M19.9,318.407L14,305c-1.248-2.837-5.408-0.383-4.168,2.436l5.9,13.407
						C16.981,323.68,21.141,321.226,19.9,318.407z"/>
					<path style="fill:#44C994;" d="M8.748,293.714c-0.701-1.259-1.402-2.519-2.103-3.778c-0.634-1.138-2.194-1.514-3.302-0.866
						c-1.147,0.671-1.502,2.159-0.866,3.302c0.701,1.259,1.402,2.518,2.102,3.778c0.634,1.138,2.194,1.514,3.302,0.866
						C9.03,296.345,9.384,294.857,8.748,293.714z"/>
					<path style="fill:#44C994;" d="M20.376,298.463c-1.049-3.17-2.311-6.259-3.767-9.264c-1.354-2.795-5.517-0.35-4.168,2.436
						c1.276,2.635,2.36,5.331,3.28,8.111C16.693,302.681,21.355,301.423,20.376,298.463z"/>
					<path style="fill:#44C994;" d="M30.228,318.25c-1.788-3.933-3.577-7.865-5.365-11.798c-1.284-2.824-5.445-0.373-4.168,2.436
						c1.788,3.932,3.577,7.865,5.365,11.797C27.344,323.509,31.505,321.059,30.228,318.25z"/>
					<path style="fill:#44C994;" d="M30.666,300.185c-0.827-2.827-1.998-5.536-3.503-8.068c-1.585-2.668-5.759-0.243-4.168,2.436
						c1.303,2.194,2.299,4.466,3.016,6.915C26.882,304.443,31.541,303.177,30.666,300.185z"/>
				</g>
			</g>
			<g>
				<g>
					<path style="fill:#FFAF4F;" d="M519.998,130.377c-1.1-2.49-2.2-4.981-3.3-7.472c-0.527-1.192-2.268-1.471-3.302-0.866
						c-1.229,0.719-1.394,2.105-0.866,3.302c1.1,2.491,2.2,4.981,3.3,7.472c0.527,1.192,2.268,1.471,3.302,0.866
						C520.361,132.96,520.527,131.574,519.998,130.377z"/>
					<path style="fill:#FFAF4F;" d="M532.588,138.274l-5.9-13.407c-1.248-2.837-5.408-0.383-4.168,2.436l5.9,13.407
						C529.669,143.547,533.829,141.093,532.588,138.274z"/>
					<path style="fill:#FFAF4F;" d="M521.436,113.581c-0.701-1.259-1.402-2.519-2.103-3.778c-0.633-1.138-2.194-1.514-3.302-0.866
						c-1.147,0.671-1.502,2.159-0.866,3.302c0.701,1.259,1.402,2.519,2.102,3.778c0.633,1.138,2.194,1.514,3.302,0.866
						C521.718,116.212,522.072,114.724,521.436,113.581z"/>
					<path style="fill:#FFAF4F;" d="M533.064,118.33c-1.049-3.17-2.311-6.259-3.767-9.264c-1.354-2.795-5.517-0.35-4.168,2.436
						c1.276,2.635,2.36,5.332,3.28,8.111C529.38,122.548,534.043,121.291,533.064,118.33z"/>
					<path style="fill:#FFAF4F;" d="M542.916,138.117c-1.788-3.933-3.577-7.865-5.365-11.798c-1.284-2.824-5.445-0.373-4.168,2.436
						c1.788,3.933,3.577,7.865,5.365,11.798C540.032,143.376,544.193,140.926,542.916,138.117z"/>
					<path style="fill:#FFAF4F;" d="M543.354,120.052c-0.827-2.827-1.998-5.536-3.502-8.068c-1.585-2.668-5.759-0.243-4.168,2.436
						c1.303,2.194,2.299,4.466,3.016,6.915C539.57,124.31,544.229,123.044,543.354,120.052z"/>
				</g>
			</g>
			<g>
				<g>
					<path style="fill:#FFFFFF;" d="M429.588,490.764c-1.1-2.491-2.2-4.981-3.3-7.472c-0.527-1.192-2.267-1.471-3.302-0.866
						c-1.229,0.719-1.395,2.105-0.866,3.302c1.1,2.491,2.2,4.981,3.3,7.472c0.527,1.192,2.268,1.471,3.302,0.866
						C429.952,493.347,430.117,491.961,429.588,490.764z"/>
					<path style="fill:#FFFFFF;" d="M442.179,498.661l-5.9-13.407c-1.248-2.837-5.408-0.383-4.168,2.436l5.9,13.407
						C439.259,503.934,443.419,501.48,442.179,498.661z"/>
					<path style="fill:#FFFFFF;" d="M431.027,473.968c-0.701-1.259-1.402-2.519-2.103-3.778c-0.633-1.138-2.194-1.514-3.302-0.866
						c-1.147,0.671-1.502,2.159-0.866,3.302c0.701,1.259,1.402,2.519,2.103,3.778c0.633,1.138,2.194,1.514,3.302,0.866
						C431.308,476.599,431.663,475.111,431.027,473.968z"/>
					<path style="fill:#FFFFFF;" d="M442.654,478.717c-1.049-3.17-2.311-6.259-3.767-9.264c-1.354-2.795-5.517-0.35-4.168,2.436
						c1.276,2.635,2.36,5.332,3.28,8.111C438.971,482.935,443.634,481.678,442.654,478.717z"/>
					<path style="fill:#FFFFFF;" d="M452.506,498.504c-1.788-3.933-3.577-7.865-5.365-11.797c-1.284-2.824-5.445-0.373-4.168,2.436
						c1.788,3.932,3.577,7.865,5.365,11.797C449.622,503.763,453.784,501.313,452.506,498.504z"/>
					<path style="fill:#FFFFFF;" d="M452.944,480.439c-0.827-2.827-1.998-5.536-3.503-8.068c-1.585-2.668-5.759-0.243-4.168,2.436
						c1.303,2.194,2.299,4.465,3.016,6.915C449.16,484.697,453.819,483.431,452.944,480.439z"/>
				</g>
			</g>
			<g>
				<g>
					<path style="fill:#FFFFFF;" d="M234.588,150.764c-1.1-2.491-2.2-4.981-3.3-7.472c-0.527-1.192-2.268-1.471-3.302-0.866
						c-1.229,0.719-1.395,2.105-0.866,3.302c1.1,2.491,2.2,4.981,3.3,7.472c0.527,1.192,2.268,1.471,3.302,0.866
						C234.952,153.347,235.117,151.961,234.588,150.764z"/>
					<path style="fill:#FFFFFF;" d="M247.179,158.661l-5.9-13.407c-1.248-2.837-5.408-0.383-4.168,2.436l5.9,13.407
						C244.259,163.934,248.419,161.48,247.179,158.661z"/>
					<path style="fill:#FFFFFF;" d="M236.027,133.968c-0.701-1.259-1.402-2.519-2.103-3.778c-0.633-1.138-2.194-1.514-3.302-0.866
						c-1.147,0.671-1.502,2.159-0.866,3.302c0.701,1.259,1.402,2.518,2.103,3.778c0.633,1.138,2.194,1.514,3.302,0.866
						C236.308,136.599,236.663,135.111,236.027,133.968z"/>
					<path style="fill:#FFFFFF;" d="M247.654,138.717c-1.049-3.17-2.311-6.259-3.767-9.264c-1.354-2.795-5.517-0.35-4.168,2.436
						c1.276,2.635,2.36,5.332,3.28,8.111C243.971,142.935,248.634,141.678,247.654,138.717z"/>
					<path style="fill:#FFFFFF;" d="M257.506,158.504c-1.788-3.933-3.577-7.865-5.365-11.798c-1.284-2.824-5.445-0.373-4.168,2.436
						c1.788,3.932,3.577,7.865,5.365,11.798C254.622,163.763,258.784,161.313,257.506,158.504z"/>
					<path style="fill:#FFFFFF;" d="M257.944,140.439c-0.827-2.827-1.998-5.536-3.502-8.068c-1.585-2.668-5.759-0.243-4.168,2.436
						c1.303,2.194,2.299,4.465,3.016,6.915C254.16,144.697,258.819,143.432,257.944,140.439z"/>
				</g>
			</g>
		</g>
	</g>
</g>
<g id="OBJECTS">
</g>
</svg>
