<?xml version="1.0" encoding="utf-8"?>
<!-- Generator: Adobe Illustrator 27.5.0, SVG Export Plug-In . SVG Version: 6.00 Build 0)  -->
<svg version="1.1" xmlns="http://www.w3.org/2000/svg" xmlns:xlink="http://www.w3.org/1999/xlink" x="0px" y="0px"
	 viewBox="0 0 750 500" style="enable-background:new 0 0 750 500;" xml:space="preserve">
<g id="BACKGROUND">
	<rect style="fill:#FFC4C4;" width="750" height="500"/>
</g>
<g id="OBJECTS">
	<g>
		<defs>
			<rect id="SVGID_1_" transform="matrix(-1 -1.224647e-16 1.224647e-16 -1 750 500)" width="750" height="500"/>
		</defs>
		<clipPath id="SVGID_00000111176826987436470650000004534113047308898207_">
			<use xlink:href="#SVGID_1_"  style="overflow:visible;"/>
		</clipPath>
		<path style="clip-path:url(#SVGID_00000111176826987436470650000004534113047308898207_);fill:#00CC72;" d="M-101.45,179.33
			c0,0,159.908,12.405,182.652-24.104c22.744-36.509,0.222-81.891-13.489-102.613C54,31.89-22.037,27.899-57.053,29.663
			c-35.016,1.764-105.062,4.896-116.799,30.796C-185.588,86.358-206.872,168.06-101.45,179.33z"/>
		<path style="clip-path:url(#SVGID_00000111176826987436470650000004534113047308898207_);fill:#4D96FF;" d="M619.319,45.424
			c0,0,44.328-84.726-28.49-103.791c-72.819-19.065-68.64-0.359-133.819-35.375C391.832-128.758,336.603-87,332.673-37.84
			c-3.93,49.161,36.349,117.596,103.892,120.804C504.109,86.173,590.92,87.883,619.319,45.424z"/>
		<path style="clip-path:url(#SVGID_00000111176826987436470650000004534113047308898207_);fill:#FF6B6B;" d="M-75.059,445.694
			c0,0-41.796,79.886,26.863,97.861s64.719,0.338,126.174,33.354c61.455,33.016,113.528-6.357,117.233-52.709
			c3.706-46.352-34.272-110.878-97.957-113.903C33.569,407.274-48.283,405.661-75.059,445.694z"/>
		<path style="clip-path:url(#SVGID_00000111176826987436470650000004534113047308898207_);fill:#FFD93D;" d="M631.259,389.732
			c-2.305,0.68-46.129,66.462-108.72,42.301c-50.341-19.432-58.405-51.288-52.353-79.165c6.052-27.876,37.746-54.393,77.652-57.113
			c39.906-2.72,80.175,22.589,87.501,39.435C646.485,360.826,631.259,389.732,631.259,389.732z"/>
		<path style="clip-path:url(#SVGID_00000111176826987436470650000004534113047308898207_);fill:#FFD93D;" d="M785.257,460.684
			c-1.352,0.399-27.059,38.985-63.774,24.813c-29.529-11.399-34.259-30.085-30.709-46.437c3.55-16.352,22.141-31.906,45.549-33.502
			c23.408-1.595,47.029,13.25,51.326,23.132C794.189,443.728,785.257,460.684,785.257,460.684z"/>
		<g style="clip-path:url(#SVGID_00000111176826987436470650000004534113047308898207_);">
			<path style="fill:#474744;" d="M109.44,52.664c2.394,7.432,3.247,16.944,9.486,22.419c0.476,0.418,0.82,0.88,1.332,0.331
				c0.474-0.507,0.499-1.426,0.568-2.075c0.233-2.199,0.017-4.433-0.281-6.615c-0.595-4.353-1.442-8.681-2.183-13.012
				c-0.422-2.467,3.443-2.881,3.863-0.423c0.701,4.097,1.471,8.189,2.081,12.3c0.292,1.969,0.5,3.952,0.477,5.945
				c-0.02,1.81-0.066,3.786-0.931,5.424c-0.795,1.506-2.263,2.604-4.001,2.624c-1.937,0.023-3.381-1.403-4.622-2.717
				c-2.467-2.612-4.182-5.874-5.43-9.22c-1.646-4.415-2.53-9.067-3.973-13.547C105.063,51.727,108.672,50.281,109.44,52.664z"/>
			<path style="fill:#474744;" d="M28.659,51.692c1.616-1.908,4.652,0.519,3.031,2.432c-2.111,2.492-3.877,5.207-5.211,8.191
				c-0.682,1.525-1.598,3.37-1.743,5.052c-0.14,1.616,1.337,2.336,2.695,2.733c5.26,1.539,10.733-0.849,15.476-3.632
				c1.426-1.088,2.952-2.036,4.534-2.791c1.973-0.941,3.731,2.177,1.875,3.367c-1.298,0.833-2.712,1.724-4.206,2.593
				c-2.304,1.803-4.23,4.107-5.381,6.781c-0.833,1.935-1.336,4.347-0.326,6.314c1.003,1.955,3.206,2.859,5.245,3.308
				c10.024,2.21,20.003-3.453,28.372-8.254c1.777-1.019,4.216,0.953,2.673,2.777c-3.672,4.342-7.125,8.936-9.471,14.147
				c-1.981,4.4-4.084,10.755-1.762,15.424c2.768,5.564,9.98,1.999,13.625-0.558c4.609-3.233,8.162-7.707,11.308-12.321
				c4.182-6.133,7.866-12.61,11.199-19.238c1.12-2.227,4.678-0.659,3.549,1.584c-3.434,6.828-7.252,13.493-11.539,19.824
				c-3.646,5.384-7.921,10.645-13.497,14.13c-4.794,2.996-11.863,5.485-16.435,0.725c-4.208-4.38-3.273-11.46-1.659-16.736
				c1.336-4.365,3.502-8.38,6.064-12.141c-3.128,1.547-6.346,2.894-9.723,3.796c-5.394,1.44-11.995,2.036-17.144-0.617
				c-5.104-2.63-6.19-8.087-4.259-13.184c0.249-0.656,0.537-1.295,0.862-1.915c-4.223,1.355-8.585,1.647-12.539-0.496
				c-4.096-2.219-3.694-6.045-2.301-9.886C23.484,58.933,25.795,55.074,28.659,51.692z"/>
			<path style="fill:#474744;" d="M-76.634,85.202c1.333,3.283,5.276,3.79,8.314,4.396c14.949,2.981,30.268,3.958,45.48,3.055
				c-2.354,4.355-4.145,8.967-5.269,13.824c-0.885,3.821-3.513,14.287,3.846,12.688c10.191-2.215,19.088-10.114,23.932-19.217
				c2.288,3.943,4.636,7.851,7.056,11.714c4.315,6.887,8.811,13.678,13.587,20.255c4.217,5.807,8.786,11.427,14.171,16.199
				c5.52,4.891,11.9,8.566,18.942,10.776c7.477,2.346,15.369,3.554,23.161,4.243c8.368,0.74,16.628,0.335,24.695-2.139
				c0.42-0.129,0.838-0.272,1.257-0.407c1.349,4.521,2.767,9.02,4.238,13.503c-1.836,0.583-3.668,1.178-5.481,1.83
				c-0.992,0.356-1.466,1.571-1.089,2.524c0.396,0.998,1.537,1.443,2.524,1.089c1.737-0.624,3.492-1.191,5.249-1.752
				c1.048,3.115,2.125,6.221,3.231,9.317c0.843,2.358,4.454,0.918,3.613-1.435c-1.07-2.993-2.109-5.996-3.124-9.008
				c1.462-0.426,2.92-0.865,4.394-1.248c1.022-0.265,1.438-1.643,1.089-2.524c-0.42-1.061-1.509-1.352-2.524-1.089
				c-1.397,0.363-2.779,0.781-4.165,1.183c-1.49-4.531-2.924-9.08-4.289-13.65c5.589-2.057,11.053-4.644,16.152-7.614
				c1.876-1.093,3.688-2.297,5.425-3.597c1.523,3.368,3.123,6.7,4.784,10.002c-2.344,1.113-4.718,2.166-7.141,3.107
				c-2.333,0.906-0.899,4.519,1.435,3.613c2.528-0.981,5.002-2.087,7.446-3.255c1.46,2.803,2.963,5.585,4.52,8.338
				c1.229,2.173,4.34-0.162,3.122-2.315c-1.445-2.555-2.843-5.136-4.198-7.739c2.613-1.365,5.185-2.811,7.685-4.38
				c0.893-0.56,0.992-1.926,0.403-2.719c-0.659-0.888-1.83-0.961-2.719-0.403c-2.31,1.449-4.687,2.779-7.101,4.036
				c-1.787-3.564-3.505-7.161-5.128-10.802c2.768-2.455,5.231-5.238,7.214-8.408c3.666-5.862,5.692-12.567,6.761-19.361
				c1.156-7.348,1.287-14.845,1.239-22.268c-0.056-8.707-0.568-17.41-1.533-26.063c-0.102-0.915-0.229-1.827-0.341-2.741
				c0.234,0.783,0.904,1.369,1.953,1.14c8.227-1.797,16.453-3.594,24.68-5.391c1.657-0.362,2.316-2.242,1.005-3.447
				c-5.836-5.362-11.993-10.348-18.418-14.983c7.974-4.202,16.24-7.804,24.779-10.708c1.343-0.457,1.671-2.494,0.499-3.322
				c-2.928-2.066-6.406-2.409-9.862-2.921c-4.096-0.607-8.192-1.215-12.288-1.822c-7.964-1.181-15.928-2.362-23.893-3.542
				c-0.058-0.089-0.104-0.182-0.162-0.271c-0.837-1.261-2.301-0.908-3.029,0.024c-0.475-0.422-1.141-0.634-1.907-0.388
				c-4.091,1.316-8.182,2.631-12.285,3.909c-16.623,5.178-33.283,9.236-50.608,11.16c-8.727,0.969-17.416,1.989-26.037,3.696
				c-8.437,1.671-16.784,3.786-25.059,6.126c-8.244,2.332-16.421,4.896-24.588,7.484c-1.029,0.326-2.155,0.631-3.244,1.016
				c-9.093-5.195-18.97-8.948-29.221-11.102c-9.042-1.9-19.304-3.283-28.388-1.019c-3.524,0.878-7.143,2.715-8.137,6.503
				c-0.998,3.802,1.224,7.548,3.81,10.163c5.962,6.026,14.716,8.865,22.88,10.216c2.075,0.343,4.16,0.582,6.249,0.781
				c-1.663,0.269-3.323,0.555-4.977,0.882c-7.179,1.418-14.787,3.021-20.972,7.136C-75.462,79.722-77.947,81.966-76.634,85.202z
				 M140.407,44.107c-1.331-6.118-2.689-12.387-5.363-18.067c6.46,0.958,12.92,1.916,19.38,2.874c3.84,0.569,7.68,1.139,11.52,1.708
				c1.902,0.282,4.117,0.405,6.195,0.832c-7.937,2.956-15.654,6.458-23.075,10.554c-1.164,0.642-1.831,2.39-0.499,3.322
				c6.258,4.374,12.237,9.116,17.955,14.169c-6.92,1.512-13.84,3.023-20.76,4.535c-1.071,0.234-1.587,1.121-1.621,1.991
				C143.215,58.669,141.983,51.352,140.407,44.107z M3.287,98.495C-0.703,91.65-4.48,84.682-8.045,77.607
				c-1.739-3.451-3.428-6.927-5.065-10.427c-0.782-1.672-1.774-3.395-2.237-5.193c-0.48-1.865,0.096-2.927,1.882-3.612
				c3.613-1.385,7.428-2.379,11.121-3.533c3.849-1.203,7.704-2.388,11.571-3.531c7.919-2.341,15.89-4.519,23.952-6.314
				c8.026-1.787,16.119-3.144,24.286-4.09c8.128-0.941,16.27-1.707,24.323-3.196c16.084-2.973,31.692-7.975,47.236-12.972
				c0.117-0.038,0.217-0.087,0.316-0.137c0.204,0.317,0.521,0.566,0.951,0.7c1.598,2.762,2.76,5.734,3.677,8.799
				c4.645,15.523,6.828,32.13,7.814,48.265c0.48,7.859,0.65,15.769,0.303,23.638c-0.296,6.737-1,13.607-3.098,20.048
				c-1.961,6.016-5.152,11.445-9.727,15.791c-0.812-1.9-1.629-3.798-2.397-5.716c-0.93-2.322-4.544-0.89-3.613,1.435
				c0.933,2.33,1.919,4.637,2.918,6.938c-4.775,3.69-10.213,6.437-15.733,8.845c-1.774,0.774-3.557,1.507-5.352,2.184
				c-0.75-2.58-1.494-5.162-2.204-7.753c-0.66-2.409-4.267-0.954-3.613,1.435c0.696,2.539,1.425,5.069,2.16,7.597
				c-4.545,1.473-9.201,2.503-14.076,2.748c-7.854,0.395-15.836-0.676-23.547-2.108c-7.142-1.326-14.226-3.427-20.379-7.393
				c-5.834-3.761-10.753-8.735-15.12-14.092C18.852,124.367,10.81,111.401,3.287,98.495z M-72.83,82.859
				c0.594-1.102,2.913-2.184,3.966-2.752c1.348-0.727,2.764-1.336,4.197-1.873c6.449-2.416,13.434-3.663,20.225-4.662
				c7.185-1.056,14.436-1.563,21.697-1.568c2.245-0.002,2.194-3.533,0.098-3.851c-9.849-1.493-19.879-1.08-29.715-2.663
				c-7.34-1.182-14.939-3.554-20.541-8.661c-2.326-2.121-5.168-6.229-2.029-8.904c2.982-2.541,8.221-2.64,11.908-2.704
				c15.54-0.269,31.324,4.256,44.978,11.614c-0.427,0.483-0.799,1.025-1.043,1.696c-1.203,3.306,0.853,6.848,2.211,9.755
				c4.412,9.451,9.198,18.729,14.333,27.808c-0.212,0.172-0.4,0.399-0.541,0.699c-3.815,8.052-10.7,14.474-19.045,17.636
				c-0.412,0.156-3.08,1.325-3.362,1.019c-0.246-0.266,0.172-2.136,0.216-2.526c0.286-2.504,0.757-4.987,1.402-7.423
				c1.286-4.856,3.355-9.542,6.026-13.794c0.874-1.391,0.08-3.292-1.727-3.148c-8.075,0.643-16.183,0.764-24.27,0.279
				c-7.024-0.421-14.023-1.264-20.946-2.523C-66.279,86.045-74.153,85.312-72.83,82.859z"/>
			<path style="fill:#474744;" d="M87.078,131.884c0.454-0.361,0.886-0.748,1.31-1.144c0.97-0.96,1.853-2.003,2.619-3.133
				c0.266-0.392,0.848-0.665,1.304-0.715c0.474-0.052,1.063,0.097,1.428,0.416c0.378,0.331,0.682,0.787,0.715,1.304
				c0.035,0.538-0.113,0.982-0.416,1.428c-1.276,1.881-2.866,3.554-4.645,4.967c-0.797,0.633-2.144,0.446-2.719-0.403
				C86.067,133.706,86.227,132.56,87.078,131.884z"/>
			<path style="fill:#474744;" d="M60.227,133.223c-0.087,0.048-0.174,0.097-0.261,0.145c0.786-0.44,1.505-0.978,2.168-1.586
				c0.563-0.569,1.064-1.191,1.502-1.861c0.32-0.546,0.61-1.108,0.837-1.699c0.365-0.951,1.662-1.435,2.567-0.982
				c0.982,0.491,1.373,1.55,0.983,2.567c-0.549,1.429-1.377,2.789-2.394,3.934c-1.136,1.28-2.448,2.274-3.95,3.082
				c-0.414,0.223-1.1,0.151-1.51-0.032c-0.426-0.191-0.859-0.608-1.014-1.057c-0.167-0.482-0.203-1.04,0.032-1.51
				C59.424,133.751,59.766,133.474,60.227,133.223z"/>
			<path style="fill:#474744;" d="M41.92,107.197c0.418-0.295,0.958-0.44,1.467-0.358c0.461,0.074,0.985,0.368,1.252,0.761
				c0.579,0.856,0.483,2.092-0.403,2.719c-0.871,0.616-1.693,1.296-2.472,2.024c-0.497,0.489-0.979,0.992-1.431,1.523
				c-0.329,0.386-0.794,0.66-1.304,0.715c-0.474,0.052-1.063-0.097-1.428-0.416c-0.378-0.331-0.682-0.787-0.715-1.304
				c-0.033-0.506,0.079-1.032,0.416-1.428C38.656,109.843,40.213,108.404,41.92,107.197z"/>
		</g>
		<path style="clip-path:url(#SVGID_00000111176826987436470650000004534113047308898207_);fill:#FFFFFF;" d="M669.276,102.216
			c-2.919-1.373-6.801-1.007-9.949-1.168c-2.364-0.121-4.731-0.191-7.096-0.278c2.175-2.257,4.268-4.699,5.656-7.404
			c0.785-1.53,0.523-3.39-1.167-4.136c-0.854-0.377-1.719-0.313-2.543-0.039c-0.582-0.372-1.346-0.424-2.017,0.177
			c-2.669,2.391-5.283,4.841-7.872,7.317c-0.724-2.687-1.528-5.351-2.42-7.988c-0.027-0.175-0.044-0.351-0.072-0.525
			c-0.468-2.901-1.368-5.822-3.574-7.88c-1.206-1.125-2.836-0.504-3.126,1.07c-0.709,3.845-0.319,7.735,0.296,11.567
			c0.401,2.504,0.835,5.002,1.273,7.5c-5.225-0.024-10.45,0.026-15.674,0.164c-0.885,0.024-1.456,0.579-1.693,1.243
			c-0.557,0.082-1.114,0.171-1.668,0.301c-1.503,0.354-1.904,2.326-0.639,3.224c4.247,3.019,9.365,3.918,14.512,4.26
			c-0.338,0.362-0.685,0.715-1.021,1.078c-1.634,1.769-3.246,3.557-4.841,5.361c-1.263,1.429-2.983,2.967-2.734,5.063
			c0.582,4.896,6.517,1.923,8.817,0.315c2.857-1.998,5.053-4.733,7.31-7.362c0.218,1.262,0.436,2.523,0.654,3.785
			c0.641,3.716,1.015,7.671,2.918,11.002c0.502,0.878,1.454,1.197,2.389,0.807c3.298-1.375,3.62-5.257,3.414-8.365
			c-0.25-3.766-0.701-7.517-1.284-11.246c5.032,0.046,10.064-0.003,15.093-0.169c2.684-0.089,6.629,0.405,8.663-1.781
			C672.811,106.037,671.556,103.288,669.276,102.216z M647.397,100.586c-0.247-0.007-0.495-0.009-0.743-0.015
			c0.305-0.321,0.61-0.643,0.916-0.964c1.25-1.316,2.485-2.652,3.782-3.923c0.459-0.45,0.943-0.875,1.424-1.302
			c-0.509,0.756-0.953,1.421-1.079,1.575c-1.258,1.531-2.626,2.964-4.028,4.363C647.579,100.41,647.487,100.497,647.397,100.586z
			 M628.518,105.387c0.061,0.169,0.142,0.33,0.255,0.469c-1.259-0.165-2.5-0.392-3.706-0.709
			C626.216,105.197,627.368,105.283,628.518,105.387z M644.563,124.314c0.113,0.016,0.227,0.023,0.341,0.02
			c-0.042,0.2-0.094,0.392-0.156,0.574C644.68,124.712,644.623,124.512,644.563,124.314z M628.006,119.546
			c-0.336,0.169-0.756,0.289-1.081,0.481c0.609-0.566,1.18-1.211,1.733-1.881c0.513,0.202,1.119,0.138,1.67-0.387
			c0.085-0.081,0.17-0.162,0.255-0.243c0.091,0.026,0.185,0.042,0.28,0.056c-0.285,0.242-0.557,0.5-0.856,0.725
			C629.374,118.772,628.713,119.189,628.006,119.546z M646.505,106.469c-0.003-0.017-0.007-0.035-0.01-0.052
			c0.012-0.011,0.023-0.022,0.034-0.033c5.345-0.015,10.69-0.029,16.035-0.044c-1.077,0.032-1.946,0.044-2.191,0.051
			C655.752,106.518,651.128,106.522,646.505,106.469z"/>
		<path style="clip-path:url(#SVGID_00000111176826987436470650000004534113047308898207_);fill:#474744;" d="M526.486,53.607
			c-0.785-1.448-1.778-2.785-2.954-3.938c-2.411-2.363-5.426-4.062-8.717-4.836c-3.503-0.823-7-0.535-10.358,0.738
			c-3.996,1.515-7.493,4.087-11.349,5.903c-4.071,1.917-8.458,3.399-12.923,4.043c-4.24,0.611-7.927-0.405-11.432-2.79
			c-3.064-2.085-5.74-4.678-8.782-6.792c-3.331-2.315-7.11-3.826-11.161-4.231c-8.77-0.878-17.4,3.594-21.818,11.202
			c-0.405,0.697-0.11,1.409,0.392,1.792c0.401,1.079,1.529,1.709,2.714,1.535c1.69-0.249,2.383-1.905,3.265-3.144
			c1.947-2.737,4.915-4.777,8.189-5.559c3.738-0.892,7.659-0.183,11.071,1.5c3.486,1.719,6.239,4.558,9.281,6.913
			c5.737,4.441,13.031,6.438,20.223,5.202c7.607-1.307,13.542-6.766,20.947-8.645c6.464-1.64,16.354-1.656,19.815,5.339
			c0.345,0.698,1.382,1.035,1.996,0.44c0.684-0.663,1.262-1.361,1.712-2.205C527.121,55.093,526.999,54.554,526.486,53.607z
			 M524.159,55.003c0.026-0.03,0.052-0.058,0.075-0.09c0.006,0.011,0.012,0.022,0.018,0.033c-0.02,0.035-0.04,0.07-0.06,0.104
			C524.18,55.035,524.17,55.018,524.159,55.003z M500.241,50.529c0.015,0.041,0.034,0.08,0.052,0.119
			c-0.214,0.071-0.427,0.146-0.64,0.222C499.849,50.757,500.044,50.643,500.241,50.529z M459.149,50.341
			c1.644,0.856,3.26,1.786,4.851,2.797c0.196,0.124,0.393,0.248,0.59,0.373c-0.24-0.057-0.499-0.123-0.732-0.211
			c-0.253-0.501-0.789-0.732-1.366-0.7c-0.025,0.001-0.05,0.003-0.075,0.004c-0.131,0.007-0.26,0.062-0.385,0.133
			C461.067,51.941,460.116,51.129,459.149,50.341z M431.258,51.594c-0.097,0.137-0.296,0.392-0.514,0.68
			c-0.05-0.036-0.105-0.065-0.16-0.093c0.716-0.934,1.513-1.797,2.369-2.592C432.342,50.218,431.766,50.88,431.258,51.594z
			 M439.704,45.401c1.655-0.618,3.397-1.015,5.191-1.161c-0.008,0.114,0,0.229,0.018,0.344
			C443.145,44.586,441.388,44.855,439.704,45.401z M482.085,58.414c0.186-0.182,0.298-0.416,0.338-0.667
			c1.133-0.23,2.256-0.508,3.356-0.815c1.45-0.405,2.876-0.887,4.287-1.41c-0.359,0.185-0.72,0.37-1.082,0.549
			C486.753,57.17,484.435,57.959,482.085,58.414z M510.195,49.017c-1.974,0.007-3.934,0.205-5.862,0.576
			c2.523-1.215,5.556-1.049,8.335-0.445C511.839,49.06,511.011,49.014,510.195,49.017z"/>
		<path style="clip-path:url(#SVGID_00000111176826987436470650000004534113047308898207_);fill:#FFFFFF;" d="M280.744,361.796
			c-4.328-2.655-10.846-1.625-15.507-0.64c-4.814,1.017-9.195,3.376-13.856,4.813c3.947-12.104,5.431-25.302,1.666-37.625
			c-0.944-3.091-2.165-6.529-4.111-9.146c-2.231-3-5.698-3.74-9.154-2.493c-6.277,2.265-9.434,8.875-12.126,14.481
			c-3.525,7.341-6.596,14.88-9.309,22.553c-1.848-3.107-3.689-6.235-5.747-9.187c-2.236-3.206-5.357-6.35-9.546-6.32
			c-8.774,0.064-12.934,11.738-14.445,18.683c-0.962,4.421-1.729,9.255-1.762,13.788c-0.036,5.012,5.11,5.405,8.921,6.176
			c10.462,2.116,20.966,4.017,31.505,5.704c9.927,1.588,19.886,2.97,29.866,4.176c0.492,0.342,1.103,0.473,1.676,0.2
			c1.304,0.155,2.607,0.319,3.913,0.467c1.1,0.125,1.85-0.582,2.117-1.413c0.29-0.026,0.591-0.12,0.891-0.324
			c5.05-3.43,9.876-7.28,14.206-11.59C283.325,370.733,285.884,364.949,280.744,361.796z M262.851,383.621
			C262.851,383.621,262.851,383.621,262.851,383.621C262.851,383.621,262.851,383.621,262.851,383.621
			C262.851,383.621,262.851,383.621,262.851,383.621z M257.685,382.989c-0.199-0.024-0.398-0.049-0.598-0.073
			c2.04-1.669,4.096-3.334,6.207-4.923C261.396,379.625,259.524,381.287,257.685,382.989z M253.546,380.942
			c-0.48,0.419-0.596,0.961-0.487,1.48c-0.91-0.116-1.822-0.216-2.732-0.335c3.045-2.437,6.14-4.809,9.293-7.1
			C257.695,377.069,255.685,379.073,253.546,380.942z M197.187,358.573c-0.277,3.612-0.716,7.208-1.355,10.784
			c-0.008,0.046-0.005,0.088-0.01,0.133c-0.095-0.036-0.204-0.055-0.291-0.1c-1.124-0.587-0.845-1.915-0.704-2.99
			C195.186,363.664,196.005,361.033,197.187,358.573z M201.915,358.443c-0.044,3.898-0.089,7.796-0.133,11.693
			c-0.729-0.065-1.459-0.13-2.188-0.195C200.367,366.108,201.141,362.275,201.915,358.443z M220.154,359.339
			c-0.985,2.573-2.006,5.162-3.237,7.606c-0.574-3.578-1.088-7.164-1.532-10.761c0.605,1.017,1.212,2.031,1.827,3.035
			C217.965,360.445,219.356,360.194,220.154,359.339z M210.43,370.909c-1.137-0.102-2.274-0.203-3.412-0.305
			c-0.295-0.026-0.59-0.053-0.886-0.079c1.2-4.648,2.005-9.37,2.61-14.125C209.552,361.201,210.118,366.04,210.43,370.909z
			 M219.942,369.211c-0.053,0.382-0.127,0.759-0.174,1.143c-0.068,0.544,0.13,1.034,0.45,1.429
			c-0.538-0.048-1.075-0.096-1.613-0.144C219.079,370.847,219.519,370.034,219.942,369.211z M223.333,371.574
			c2.706-7.835,5.543-15.625,8.521-23.361c0.491-1.276,1.008-2.541,1.507-3.814c-2.084,9.086-3.64,18.29-4.629,27.572
			c-0.021,0.201,0.01,0.391,0.049,0.577c-1.906-0.17-3.812-0.341-5.717-0.511C223.163,371.899,223.266,371.767,223.333,371.574z
			 M240.17,350.57c-1.811,7.503-3.622,15.007-5.433,22.51c-0.774-0.069-1.549-0.138-2.323-0.208
			C235.179,365.5,237.73,358.054,240.17,350.57z M242.699,358.238c0.773-2.882,1.545-5.763,2.317-8.645
			c0.406-1.514,0.72-3.192,1.266-4.745c-0.043,1.397-0.399,2.894-0.534,3.902c-0.415,3.111-0.907,6.212-1.473,9.299
			c-0.97,5.29-2.182,10.53-3.585,15.72c-0.204-0.117-0.452-0.197-0.748-0.223c-0.438-0.039-0.877-0.078-1.315-0.117
			C239.984,368.365,241.342,363.302,242.699,358.238z M249.426,370.366c1.693-0.382,3.327-0.91,4.937-1.507
			c-2.027,1.565-3.941,3.263-5.787,5.038C248.893,372.729,249.168,371.55,249.426,370.366z M246.775,381.108
			c0.013,0.172,0.053,0.34,0.106,0.504c-0.173-0.023-0.345-0.049-0.518-0.072C246.5,381.396,246.637,381.251,246.775,381.108z
			 M249.539,329.875c1.703,5.701,2.182,11.774,1.76,17.697c-0.34,4.77-1.237,9.495-2.545,14.1c-0.5-0.059-1.015,0.102-1.436,0.594
			c0.435-2.143,0.847-4.29,1.208-6.448c0.559-3.34,1.127-6.724,1.404-10.101c0.204-2.49-0.056-4.976-2.059-6.697
			c-0.292-0.251-0.644-0.365-1.003-0.413c0.859-4.371,1.402-8.785,1.108-13.259C248.596,326.845,249.098,328.398,249.539,329.875z
			 M228.741,337.868c2.375-5.276,4.719-11.896,9.257-15.761c2.257-1.922,5.86-3.462,7.949-0.549c0.531,0.74,0.979,1.559,1.393,2.404
			c-0.954-0.773-2.686-0.36-3.128,1.078c-2.839,9.254-5.687,18.509-8.73,27.697c1.729-8.881,3.955-17.662,6.703-26.296
			c0.542-1.704-1.652-2.689-2.923-1.948c-2.993,1.743-4.09,5.193-5.33,8.22c-0.486,1.188-0.945,2.386-1.425,3.576
			c-0.8-1.011-2.468-1.278-3.093,0.247c-2.412,5.876-4.824,11.752-7.236,17.628C224.151,348.649,226.336,343.21,228.741,337.868z
			 M212.615,351.584c-0.295,0.076-0.569,0.222-0.799,0.426c-0.168-0.852-0.342-1.703-0.525-2.553
			C211.741,350.16,212.179,350.871,212.615,351.584z M193.603,353.021c1.198-3.469,3.04-7.377,6.042-9.648
			c2.479-1.875,4.787-1.419,6.745,0.019c-0.06,0.142-0.122,0.282-0.137,0.453c-0.14,1.524-0.285,3.049-0.434,4.573
			c0.013-1.179,0.027-2.358,0.04-3.536c0.02-1.74-2.271-2.2-3.321-1.119c-1.562,1.608-2.333,3.773-2.847,6.027
			c-0.624-0.096-1.286,0.06-1.709,0.57c-3.582,4.313-6.062,9.541-6.853,15.114c0.019-0.17,0.033-0.341,0.053-0.511
			C191.643,360.937,192.275,356.864,193.603,353.021z M190.757,371.373c-0.376-0.751,0.005-2.259,0.08-3.059
			c0.036-0.384,0.08-0.767,0.118-1.15c-0.092,1.831,0.195,3.666,1.706,4.934c0.26,0.218,0.541,0.401,0.836,0.561
			C192.316,372.454,191.131,372.12,190.757,371.373z M209.45,375.654c-3.273-0.605-6.537-1.255-9.802-1.902
			c0.194,0.013,0.391,0.024,0.578,0.041c0.738,0.066,1.475,0.132,2.213,0.198c0.496,0.331,1.168,0.379,1.78,0.159
			c10.178,0.909,20.357,1.819,30.535,2.728c0.608,0.507,1.574,0.613,2.307,0.206c0.715,0.064,1.43,0.128,2.144,0.192
			c0.339,0.03,0.641-0.023,0.91-0.128c0.508,1.243,2.616,1.439,3.46,0.106c-0.339,0.981-0.672,1.963-1.059,2.93
			c-0.109,0.273-0.146,0.54-0.144,0.797C231.364,379.429,220.384,377.674,209.45,375.654z M265.802,380.993
			c0.891-0.81,1.792-1.608,2.663-2.438c2.486-2.059,5.03-4.048,7.616-5.986c-0.164,0.149-0.327,0.296-0.476,0.436
			C272.523,375.893,269.233,378.538,265.802,380.993z M278.002,370.74c0.263-0.723,0.025-1.536-0.478-2.07
			c0.144-1.284-1.048-2.673-2.461-2.078c-2.225,0.936-4.345,2.042-6.401,3.252c0.634-0.885,1.285-1.758,1.888-2.67
			c1.102-1.667-1.293-3.387-2.759-2.431c-3.098,2.021-6.141,4.122-9.145,6.278c0.357-0.467,0.715-0.934,1.072-1.401
			c0.717-0.937,0.417-2.095-0.303-2.722c0.81-0.312,1.623-0.617,2.449-0.897c4.432-1.502,9.769-2.55,14.448-1.772
			c1.749,0.291,3.925,1.062,3.597,3.238C279.73,368.658,278.933,369.754,278.002,370.74z"/>
		<path style="clip-path:url(#SVGID_00000111176826987436470650000004534113047308898207_);fill:#FF6B6B;" d="M81.513,270.786
			c-5.454-1.327-10.78-3.129-15.893-5.453c-2.508-1.14-4.956-2.422-7.338-3.806c-1.934-1.124-4.379-2.28-5.704-4.156
			c-1.351-1.915-0.55-4.521-0.202-6.642c0.458-2.794,0.852-5.598,1.183-8.409c0.662-5.624,1.057-11.275,1.218-16.936
			c0.041-1.445-1.506-2.396-2.785-1.751c-4.988,2.515-7.335,7.579-10.131,12.113c-1.727,2.8-3.688,5.469-5.89,7.915
			c-1.816,2.017-3.789,4.826-6.773,4.511c-3.041-0.321-6.048-0.953-9.096-1.266c-3.256-0.334-6.526-0.524-9.798-0.574
			c-6.478-0.098-12.954,0.377-19.36,1.341c-1.659,0.25-1.914,2.618-0.605,3.455c8.235,5.267,15.692,11.567,22.282,18.772
			c-5.818,5.126-10.998,10.905-15.932,16.881c-5.323,6.446-11.232,12.973-15.033,20.469c-0.496,0.979-0.318,1.949,0.57,2.631
			c2.738,2.104,6.425-1.013,8.791-2.356c3.527-2.002,7.054-4.003,10.581-6.005c6.343-3.6,12.686-7.2,19.03-10.8
			c2.556,10.592,5.422,21.105,8.627,31.52c0.563,1.83,2.972,1.939,3.671,0.142c5.337-13.709,11.025-27.278,17.053-40.697
			c6.019-0.759,12.024-1.625,18.005-2.644c3.093-0.527,6.266-0.95,9.309-1.722c2.453-0.622,4.452-1.752,5.467-4.15
			C83.145,272.263,82.441,271.012,81.513,270.786z"/>
		<g style="clip-path:url(#SVGID_00000111176826987436470650000004534113047308898207_);">
			<path style="fill:#474744;" d="M493.606,394.656c-0.679-0.735-1.424-1.609-2.408-1.917c-1.41-0.441-2.731,0.458-3.139,1.806
				c-0.54,1.782-0.425,3.844-0.124,5.655c0.338,2.031,1.168,4.02,2.36,5.697c0.523,0.735,1.431,1.1,2.272,0.722
				c0.072,0.114,0.137,0.232,0.212,0.344c0.537,0.802,1.578,1.151,2.448,0.642c0.514-0.3,0.852-0.896,0.885-1.498
				c0.314,0.133,0.639,0.243,0.985,0.296c0.652,0.1,1.249,0.031,1.741-0.46c0.428-0.428,0.666-1.149,0.46-1.741
				C498.067,400.661,496.152,397.412,493.606,394.656z"/>
			<path style="fill:#474744;" d="M555.998,393.556c0.191-0.009,0.38-0.054,0.562-0.119c0.544,0.635,1.523,0.932,2.245,0.503
				c0.813,0.789,2.143,0.678,2.802-0.344c2.009-3.116,1.348-6.983-0.087-10.176c-0.354-0.787-0.748-1.641-1.365-2.259
				c-1.018-1.02-2.656-0.981-3.618,0.097c-1.154,1.295-1.846,2.992-2.137,4.688c-0.331,1.933-0.3,3.871-0.191,5.822
				C554.261,392.7,554.995,393.601,555.998,393.556z"/>
			<path style="fill:#474744;" d="M515.716,434.212c0.639-3.277,0.99-6.606,1.083-9.943c0.2-0.348,0.292-0.773,0.191-1.265
				c-0.072-0.347-0.143-0.694-0.215-1.041c-0.413-2.001-3.519-1.511-3.514,0.476c0.008,3.263-0.232,6.525-0.795,9.741
				c-0.259,1.477-0.549,2.962-0.963,4.404c-0.312,1.086-0.74,2.313-1.667,3.035c-0.58,0.451-1.488,0.777-2.16,0.348
				c-0.957-0.61-1.388-2.318-1.779-3.309c-1.163-2.954-2.07-6.001-2.742-9.103c-0.487-2.249-3.938-1.298-3.45,0.951
				c0.806,3.719,1.966,7.335,3.454,10.836c0.655,1.541,1.484,3.121,3.059,3.893c1.56,0.764,3.364,0.589,4.879-0.201
				C514.296,441.366,515.088,437.437,515.716,434.212z"/>
			<path style="fill:#474744;" d="M550.438,434.763c1.644,1.051,3.399,0.694,4.897-0.43c2.391-1.795,3.269-4.803,3.865-7.6
				c0.851-3.99,1.669-7.993,2.218-12.038c0.13-0.956-0.23-1.921-1.25-2.201c-0.834-0.229-2.07,0.286-2.201,1.25
				c-0.446,3.287-1.075,6.543-1.747,9.791c-0.48,2.316-0.763,5.06-2.161,7.048c-0.207,0.294-0.448,0.587-0.728,0.813
				c-0.44,0.354-0.674,0.56-1.086,0.277c-0.843-0.579-1.375-1.558-1.741-2.49c-1.07-2.727-1.477-5.786-1.603-8.694
				c-0.099-2.294-3.678-2.306-3.578,0c0.157,3.634,0.678,7.538,2.243,10.861C548.204,432.708,549.163,433.947,550.438,434.763z"/>
			<path style="fill:#474744;" d="M523.746,443.343c0.748,0.201,1.567,0.175,2.336,0.188c0.885,0.014,1.771,0,2.656-0.041
				c0.033,0.089,0.064,0.179,0.092,0.27c0.054,0.172,0.101,0.346,0.141,0.522c0.04,0.175,0.057,0.357,0.099,0.531
				c-0.012-0.049-0.015-0.063-0.022-0.096c0.002,0.013,0.005,0.026,0.006,0.038c0.009,0.1,0.015,0.2,0.019,0.3
				c0.016,0.371-0.011,0.736-0.039,1.105c-0.013,0.072-0.026,0.144-0.04,0.216c-0.04,0.197-0.088,0.393-0.143,0.586
				c-0.05,0.174-0.106,0.346-0.168,0.517c-0.018,0.05-0.037,0.102-0.059,0.154c0.028-0.06,0.042-0.083-0.006,0.017
				c-0.015,0.038-0.034,0.075-0.043,0.111c0.006-0.025,0.018-0.057,0.031-0.087c-0.167,0.34-0.344,0.672-0.555,0.987
				c-0.049,0.073-0.1,0.144-0.151,0.216c-0.122,0.133-0.235,0.272-0.36,0.402c-0.139,0.144-0.285,0.281-0.437,0.411
				c-0.057,0.05-0.136,0.096-0.185,0.153c0.029-0.034,0.037-0.042,0.056-0.063c-0.025,0.024-0.053,0.049-0.082,0.069
				c-0.767,0.532-1.193,1.592-0.642,2.448c0.492,0.763,1.625,1.212,2.448,0.642c0.937-0.65,1.72-1.461,2.349-2.38
				c0.668,0.925,1.598,1.697,2.71,1.948c1.634,0.369,3.35-0.174,4.252-1.636c0.492-0.798,0.199-2.004-0.642-2.448
				c-0.852-0.45-1.862-0.212-2.399,0.588c-0.168,0.035-0.098,0.025-0.009,0.009c0,0.001-0.001,0.001-0.001,0.002
				c-0.031,0.01-0.064,0.02-0.099,0.03c-0.026,0-0.027-0.001-0.072-0.001c-0.056,0.001-0.067,0.004-0.093,0.006
				c-0.07-0.022-0.14-0.048-0.162-0.05c-0.028-0.016-0.067-0.039-0.114-0.064c-0.043-0.037-0.171-0.132-0.187-0.147
				c-0.086-0.083-0.16-0.177-0.245-0.261c-0.005-0.005-0.001,0.001-0.005-0.003c-0.01-0.017-0.005-0.012-0.021-0.037
				c-0.129-0.208-0.256-0.413-0.367-0.631c-0.008-0.016-0.038-0.077-0.067-0.136c-0.018-0.05-0.111-0.267-0.108-0.26
				c-0.196-0.524-0.351-1.064-0.464-1.613c-0.023-0.11-0.044-0.22-0.063-0.33c-0.005-0.029-0.045-0.376-0.042-0.309
				c-0.019-0.211-0.041-0.421-0.051-0.633c-0.023-0.5-0.002-1.001,0.042-1.5c0.394-0.055,0.789-0.098,1.181-0.162
				c1.481-0.242,2.971-0.508,4.153-1.506c1.293-1.092,1.539-2.975,0.467-4.31c-0.9-1.121-2.368-1.511-3.74-1.745
				c-0.134-0.045-0.274-0.068-0.418-0.07c-3.68-0.552-7.344,0.002-10.694,1.633c-0.741,0.361-0.989,1.301-0.769,2.062
				C521.36,440.202,521.598,442.766,523.746,443.343z M528.745,443.489c0.001,0,0.002,0,0.003,0
				c0.003,0.007,0.003,0.014,0.006,0.022C528.751,443.502,528.749,443.497,528.745,443.489z M534.302,439.246
				c0.03-0.115,0.06-0.225,0.069-0.344c0.117,0.023,0.234,0.031,0.35,0.058c0.128,0.03,0.256,0.065,0.383,0.098
				c-0.194,0.056-0.388,0.108-0.587,0.149C534.446,439.222,534.374,439.232,534.302,439.246z M535.837,439.333
				C535.905,439.385,535.876,439.391,535.837,439.333L535.837,439.333z"/>
			<path style="fill:#474744;" d="M526.973,449.779C527.054,449.702,527.081,449.656,526.973,449.779L526.973,449.779z"/>
			<path style="fill:#474744;" d="M528.618,447.648c0.002-0.006,0.004-0.011,0.006-0.017c-0.006,0.013-0.012,0.025-0.019,0.04
				c0.002-0.003,0.003-0.006,0.005-0.009C528.615,447.654,528.614,447.655,528.618,447.648z"/>
			<path style="fill:#474744;" d="M529.047,444.716C529.03,444.599,528.992,444.478,529.047,444.716L529.047,444.716z"/>
			<path style="fill:#474744;" d="M726.269,313.564c-4.837-9.491-13.763-17.97-24.676-19.415
				c-12.307-1.63-21.001,8.342-22.724,19.735c-0.92,6.085-0.833,13.181,1.103,19.076c1.513,4.607,5.388,9.82,10.769,9.721
				c2.114-0.039,4.339-0.932,5.349-2.89c1.304-2.526-0.262-6.251-0.805-8.817c-0.699-3.304-1.481-6.602-2.069-9.927
				c-0.509-2.876-0.79-6.144,0.773-8.759c2.607-4.362,8.894-4.715,12.993-2.519c2.002,1.073,3.636,2.57,4.957,4.318
				c-0.031,0.637,0.338,1.345,0.875,1.629c0.095,0.05,0.189,0.066,0.284,0.099c1.403,2.372,2.325,5.062,2.819,7.766
				c1.092,5.983,0.507,12.402-0.501,18.36c-0.949,5.604-2.493,11.107-4.578,16.394c-4.193,10.634-10.702,20.391-18.931,28.323
				c-1.252,1.207-2.755,2.322-4,3.617c-5.102-5.039-11.924-7.838-18.973-9.186c-2.714-0.519-5.467-0.878-8.234-1.139
				c-0.013-0.035-0.024-0.07-0.037-0.105c-0.651-1.683-2.732-1.617-3.348-0.164c-5.578-0.355-11.199-0.334-16.725-0.207
				c-23.171,0.535-46.127,4.708-68.465,10.725c-0.892-2.83-1.954-5.61-3.234-8.317c-1.325-2.801-2.872-5.508-4.714-8.002
				c-1.666-2.255-3.585-4.727-5.932-6.315c-5.357-3.624-9.344,4.156-11.284,7.958c-1.385,2.714-2.538,5.561-3.412,8.481
				c-0.346,1.154-0.526,2.644-1.368,3.56c-0.969,1.054-2.669,1.235-4.001,1.501c-6.769,1.357-13.543,2.693-20.314,4.039
				c-3.43,0.682-6.86,1.364-10.29,2.046c-3.564-3.923-7.671-7.612-12.228-10.218c-4.494-2.571-10.59-3.714-14.225,0.891
				c-3.156,3.998-2.635,9.668-2.031,14.388c0.868,6.784,2.484,13.425,4.19,20.039c1.747,6.774,3.507,13.545,5.261,20.317
				c1.675,6.469,3.154,13.042,5.364,19.357c0.358,1.022,0.755,2.04,1.173,3.053c-1.186,1.032-2.356,2.082-3.559,3.095
				c-0.826,0.696-0.639,2.354,0.362,2.81c1.179,0.537,2.206,0.403,3.207-0.414c0.363-0.297,0.516-0.753,0.512-1.215
				c0.34-0.291,0.674-0.589,1.013-0.882c0.95,1.914,2.021,3.767,3.223,5.514c-0.878,0.842-1.614,1.928-1.154,3.207
				c0.316,0.878,1.232,1.563,2.201,1.25c0.614-0.199,1.149-0.751,1.291-1.391c1.854,2.17,3.963,4.083,6.347,5.623
				c-0.308,9.756,0.283,19.511,1.766,29.161c0.755,4.914,1.746,9.791,2.971,14.61c0.612,2.409,1.282,4.804,2.011,7.18
				c0.581,1.898,1.192,2.749,3.273,2.801c5.076,0.127,6.81-6.043,7.568-9.993c1.164-6.071,1.243-12.289,1.592-18.441
				c0.111-1.965,0.084-4.211,1.072-5.978c1.259-2.251,4.35-3.131,6.587-4.011c4.819-1.897,9.789-3.353,14.849-4.438
				c3.813,6.909,4.581,14.949,6.259,22.558c0.853,3.87,1.963,7.698,3.742,11.254c0.667,1.333,1.334,3.194,2.928,3.571
				c0.789,0.187,1.637,0.15,2.408-0.093c3.68-1.161,4.94-6.224,5.649-9.497c1.25-5.774,1.539-11.786,1.503-17.677
				c-0.037-5.998-0.422-12.096-1.597-17.998c23.037-6.819,47.362-6.446,70.86-10.882c-0.337,7.295-0.328,14.656,0.589,21.902
				c0.62,4.901,1.431,11.592,5.451,15.048c3.967,3.41,9.877,0.565,11.66-3.838c1.143-2.822,0.99-6.022,1.057-9.01
				c0.101-4.479,0.674-8.953,1.082-13.411c0.245-2.679,0.331-5.434,0.751-8.091c0.353-2.234,4.578-2.327,6.444-2.636
				c4.95-0.818,9.992-0.927,14.989-0.525c2.931,9.617,4.793,19.341,6.37,29.268c0.566,3.561,2.299,7.134,6.268,7.59
				c3.41,0.391,6.899-1.693,8.547-4.635c2.183-3.899,1.649-8.578,1.231-12.828c-0.521-5.306-1.043-10.612-1.564-15.918
				c-1.043-10.612-2.086-21.224-3.128-31.836c-0.944-9.608-1.573-19.313-3.086-28.854c-0.48-3.028-1.112-6.07-1.986-9.032
				c9.161-5.685,15.797-14.508,20.98-23.84c6.11-11.003,11.308-23.048,13.232-35.555
				C732.572,335.28,731.469,323.766,726.269,313.564z M725.6,353.937c-0.917-0.9-1.824-1.811-2.697-2.753
				c0.811,0.238,1.622,0.475,2.432,0.713c0.255,0.075,0.525,0.075,0.787,0.025C725.959,352.595,725.782,353.267,725.6,353.937z
				 M719.073,352.411c-0.119-0.053-0.238-0.106-0.354-0.165c-0.148-0.076-0.294-0.155-0.435-0.243
				c-0.024-0.015-0.153-0.112-0.217-0.156c-0.032-0.032-0.06-0.06-0.098-0.095c-0.007-0.061-0.23-0.428-0.103-0.093
				c-0.147-0.389-0.411-0.737-0.74-0.981c0.049-0.18,0.089-0.363,0.137-0.543c0.662,0.804,1.344,1.59,2.036,2.368
				C719.209,352.465,719.109,352.425,719.073,352.411z M718.379,308.388c0.017-0.096,0.014-0.189,0.015-0.287
				c0.069,0.082,0.132,0.17,0.2,0.253C718.522,308.365,718.448,308.368,718.379,308.388z M726.287,348.447
				c-0.146-0.055-0.291-0.111-0.435-0.17c-0.042-0.021-0.306-0.139-0.306-0.139c-0.328-0.153-0.65-0.318-0.966-0.494
				c-0.154-0.085-0.292-0.195-0.442-0.285c0.985,0.038,1.97,0.038,2.954-0.027c-0.084,0.472-0.18,0.943-0.274,1.413
				C726.658,348.629,726.487,348.522,726.287,348.447z M728.074,335.669c0.041,2.714-0.128,5.411-0.454,8.086
				c-0.078-0.007-0.154-0.018-0.235-0.012c-1.424,0.109-2.852,0.115-4.276,0.003c-1.342-0.105-2.563-0.316-3.955-0.658
				c-0.111-0.027-0.222-0.027-0.333-0.034c0.249-1.425,0.468-2.856,0.644-4.294c0.862-7.074,0.957-15.122-1.803-21.816
				c0.029-0.008,0.057-0.008,0.086-0.017c0.395-0.128,0.754-0.404,1.002-0.752c0.215,0.025,0.433,0.017,0.643-0.051
				c0.142-0.06,0.285-0.12,0.427-0.18c0.269-0.159,0.483-0.373,0.642-0.642c0.334-0.454,0.621-0.942,0.851-1.457
				c0.156-0.349,0.296-0.701,0.42-1.059C725.867,319.626,727.955,327.741,728.074,335.669z M686.01,308.022
				c1.625,0.879,3.182,1.879,4.657,2.993c0.012,0.009,0.03,0.013,0.043,0.022c-0.024,0.045-0.045,0.093-0.068,0.139
				c-0.264-0.117-0.529-0.234-0.79-0.358c-0.555-0.263-1.1-0.544-1.636-0.842c-1.09-0.607-2.136-1.289-3.135-2.035
				c-0.181-0.135-0.438-0.206-0.7-0.229c0.259-0.565,0.534-1.121,0.84-1.662C685.046,306.798,685.287,307.631,686.01,308.022z
				 M692.887,338.182c-0.431,0.835-1.761,0.981-2.588,0.912c-2.516-0.21-4.576-2.471-5.75-4.527
				c-1.563-2.736-2.052-5.965-2.327-9.06c-0.271-3.055-0.358-6.141-0.072-9.198c0.17-1.814,0.52-3.618,1.033-5.366
				c0.034,0.027,0.055,0.059,0.091,0.085c1.925,1.437,4.022,2.579,6.229,3.506c-0.067,0.367-0.148,0.729-0.185,1.11
				c-0.269,2.809,0.28,5.655,0.85,8.395c0.691,3.322,1.404,6.639,2.106,9.958C692.503,335.077,693.408,337.173,692.887,338.182z
				 M697.659,305.44c-1.888,0.573-3.504,1.534-4.813,2.779c-0.11-0.113-0.234-0.212-0.374-0.295
				c-1.475-1.113-3.032-2.113-4.657-2.993c-0.417-0.226-0.916-0.308-1.379-0.18c-0.204,0.056-0.415,0.163-0.603,0.302
				c0.879-1.364,1.905-2.638,3.136-3.754c8.596-7.799,20.787-2.245,27.847,5.008c-0.673-0.064-1.351,0.221-1.72,0.851
				c-0.604,1.032-1.159,2.09-1.671,3.169c-0.741-0.781-1.533-1.531-2.432-2.213C707.199,305.238,702.283,304.039,697.659,305.44z
				 M703.995,378.106c0.232,0.653,0.469,1.304,0.712,1.952c-0.269-0.307-0.55-0.602-0.81-0.917
				c-0.116-0.141-0.272-0.223-0.427-0.306C703.649,378.594,703.82,378.348,703.995,378.106z M711.356,385.582
				c-0.793-1.117-1.45-2.322-2.022-3.572c0.725,0.524,1.449,1.048,2.174,1.572c0.28,0.202,0.621,0.246,0.96,0.221
				C712.106,384.401,711.733,384.993,711.356,385.582z M713.676,380.772c-0.198-0.23-0.38-0.472-0.573-0.706
				c0.195,0.09,0.389,0.182,0.583,0.271c0.22,0.101,0.451,0.166,0.681,0.195c-0.131,0.235-0.266,0.469-0.399,0.703
				C713.889,381.074,713.8,380.917,713.676,380.772z M660.331,422.296c0.023,1.668,0.046,3.337,0.06,5.005
				c0.012,1.363,0.1,2.861-0.454,4.14c-0.12,0.277-0.222,0.683-0.555,0.768c-0.377,0.096-0.258-0.102-0.512-0.397
				c-0.484-0.562-0.861-1.527-1.141-2.202c-0.077-0.184-0.124-0.38-0.194-0.567c0.463-0.268,0.78-0.761,0.73-1.482
				c-0.301-4.37-0.657-8.736-0.993-13.104c0.333,1.336,0.705,2.663,1.142,3.976c0.276,0.829,1.087,1.223,1.862,1.221
				C660.291,420.535,660.319,421.415,660.331,422.296z M656.741,386.757c-0.354-1.225-0.809-2.404-1.404-3.506
				c0.529,0.026,1.059,0.04,1.588,0.07C656.847,384.466,656.784,385.612,656.741,386.757z M652.082,394.97
				c-0.74-3.99-1.553-7.965-2.441-11.925c0.459,0.009,0.918,0.004,1.377,0.016C651.398,387.028,651.73,391,652.082,394.97z
				 M625.642,400.394c-0.074,2.627-0.109,5.259-0.228,7.884c-0.049,1.075-0.131,2.145-0.359,3.198c0-0.03,0.006-0.056,0.005-0.088
				c-0.055-1.514-0.141-3.027-0.245-4.537c-0.125-3.434-0.105-6.872,0.095-10.306c0.13-2.226,0.171-4.842,0.7-7.247
				C625.859,392.984,625.746,396.699,625.642,400.394z M623.731,414.552c-0.018,0.015-0.025,0.022-0.042,0.036
				c-0.052-0.082-0.148-0.176-0.322-0.292c-0.189-0.446-0.465-0.858-0.667-1.304c0.744,0.263,1.634,0.085,2.079-0.552
				C624.498,413.18,624.115,413.79,623.731,414.552z M622.211,388.525c-0.433-1.459-1.032-2.846-1.883-4.087
				c1.174-0.129,2.348-0.253,3.524-0.365C623.057,385.452,622.545,386.957,622.211,388.525z M600.045,431.61
				c-0.01,1.448,0.166,3.106-0.163,4.528c-0.352,1.522-1.434,1.141-2.142,0.003c-0.789-1.269-1.076-2.988-1.494-4.404
				c-0.022-0.073-0.04-0.147-0.062-0.22c0.449-0.266,0.764-0.704,0.788-1.275c0.386,1.355,2.247,1.428,3.069,0.523
				C600.04,431.046,600.047,431.328,600.045,431.61z M594.755,399.283c-0.709-3.306-1.587-6.568-2.897-9.686
				c-0.073-0.173-0.178-0.298-0.276-0.434c1.283-0.276,2.567-0.543,3.853-0.803C594.895,391.983,594.72,395.629,594.755,399.283z
				 M588.407,390.548c1.507,8.517,2.711,17.079,3.67,25.67c-0.295-1.196-0.615-2.386-0.897-3.585
				c-1.745-7.413-3.242-14.88-4.512-22.389c0.577-0.133,1.157-0.251,1.734-0.381C588.374,390.075,588.363,390.298,588.407,390.548z
				 M598.737,408.077c-0.123-1.687-0.231-3.379-0.309-5.073c0.814,6.826,1.319,13.686,1.515,20.561
				C599.529,418.403,599.113,413.241,598.737,408.077z M540.451,405.958c0.038,0.284,0.083,0.567,0.12,0.852
				c-0.057-0.28-0.097-0.563-0.138-0.845C540.439,405.962,540.445,405.96,540.451,405.958z M504.667,472.438
				c0.434-0.369,0.868-0.737,1.302-1.106c1.612-1.37,3.224-2.74,4.836-4.109c0.716-0.608,0.673-1.913,0-2.53
				c-0.762-0.699-1.767-0.649-2.53,0c-1.796,1.526-3.593,3.053-5.389,4.579c-0.125,0.106-0.25,0.213-0.376,0.319
				c-0.216-0.321-0.438-0.639-0.643-0.966c-0.94-1.498-1.754-3.059-2.49-4.656c2.849-2.521,5.667-5.077,8.416-7.707
				c1.667-1.595-0.865-4.123-2.53-2.53c-2.406,2.302-4.857,4.553-7.34,6.771c-0.953-2.515-1.75-5.095-2.473-7.682
				c-1.673-5.983-3.152-12.025-4.71-18.039c-3.172-12.25-7.205-24.662-8.376-37.31c-0.347-3.748-0.471-10.091,4.27-11.157
				c5.124-1.153,10.768,4.121,14.22,7.217c2.136,1.916,4.118,3.985,5.973,6.173c0.945,1.115,2.301,0.5,2.792-0.543
				c-0.026,6.23,0.64,12.684,4.017,18.069c1.003,1.6,3.148,0.807,3.334-0.903c0.698-6.432,0.443-12.906-0.657-19.275
				c2.505-0.498,5.01-0.996,7.515-1.494c0.035,3.713-0.123,7.509,0.274,11.197c0.368,3.417,1.684,6.892,4.862,8.619
				c1.081,0.587,2.845-0.123,2.692-1.545c-0.674-6.25-1.348-12.501-2.023-18.751c-0.024-0.225-0.084-0.44-0.166-0.641
				c1.776-0.353,3.552-0.706,5.329-1.059c0.106,2.541,1.184,4.905,1.568,7.483c0.481,3.228,0.256,6.467,1.616,9.516
				c0.544,1.218,1.338,2.346,2.38,3.188c1.234,0.996,3.07,1.572,4.058-0.117c0.789-1.35,0.136-3.441-0.04-4.883
				c-0.21-1.723-0.44-3.443-0.686-5.161c-0.283-1.966-0.591-3.929-0.927-5.887c-0.332-1.938-0.66-3.846-0.528-5.815
				c0.537-0.22,1.054-0.477,1.531-0.803c2.049-1.401,2.561-3.706,3.231-5.943c0.818-2.729,1.881-5.373,3.193-7.903
				c0.667-1.285,1.391-2.541,2.172-3.761c0.614-0.96,1.482-2.599,2.654-2.975c1.147-0.369,2.231,1.048,2.941,1.757
				c1.037,1.035,2.007,2.139,2.895,3.304c6.898,9.043,9.805,20.643,11.236,31.735c0.727,5.637,1.101,11.314,1.438,16.985
				c0.328,5.536,0.702,11.103,0.586,16.656c-3.77-0.25-7.548-0.337-11.325-0.238c-2.298,0.06-2.307,3.639,0,3.578
				c3.121-0.082,6.243-0.052,9.361,0.105c0.605,0.03,1.209,0.085,1.814,0.125c-0.235,2.782-0.77,5.426-1.671,7.951
				c-1.858-0.492-3.704-1.027-5.534-1.619c-0.919-0.297-1.953,0.347-2.201,1.249c-0.266,0.969,0.327,1.902,1.25,2.201
				c1.672,0.541,3.359,1.03,5.054,1.487c-0.61,1.181-1.305,2.339-2.12,3.469c-3.094,4.292-6.987,8.113-11.245,11.243
				c-8.2,6.028-18.062,9.894-28.226,10.729c-5.486,0.45-11.421,0.323-16.47-2.115c-0.372-0.18-0.728-0.386-1.089-0.586
				c-0.219-0.233-0.504-0.388-0.818-0.466C508.531,476.419,506.459,474.551,504.667,472.438z M702.648,489.764
				c0.408,4.158,1.779,10.165-1.194,13.703c-1.022,1.216-2.784,2.192-4.417,1.997c-2.199-0.261-2.817-2.626-3.145-4.473
				c-0.897-5.04-1.519-10.101-2.599-15.114c-1.156-5.367-2.576-10.672-4.224-15.908c-0.258-0.819-0.907-1.232-1.725-1.314
				c-4.484-0.448-8.998-0.462-13.48,0.034c-1.948,0.215-3.891,0.504-5.813,0.885c-1.868,0.37-4.2,0.635-5.628,2.033
				c-1.287,1.261-1.395,3.011-1.553,4.704c-0.22,2.359-0.432,4.718-0.648,7.077c-0.393,4.294-0.954,8.608-1.07,12.921
				c-0.073,2.689,0.254,5.803-0.859,8.33c-0.737,1.673-2.947,3.423-4.866,2.915c-1.597-0.423-2.534-2.367-3.121-3.755
				c-1.061-2.506-1.586-5.273-1.998-7.949c-1.282-8.332-1.123-16.935-0.661-25.327c0.068-1.233-1.192-1.944-2.265-1.725
				c-24.775,5.048-50.552,4.226-74.841,11.797c-0.953,0.297-1.471,1.23-1.25,2.201c1.558,6.837,1.91,13.992,1.822,20.984
				c-0.077,6.136-0.216,13.082-2.63,18.836c-0.386,0.921-0.832,1.817-1.528,2.426c-0.223,0.195-0.384,0.3-0.572,0.335
				c-6.651-11.292-4.821-25.581-11.732-36.848c-0.44-0.718-1.222-0.982-2.02-0.822c-5.971,1.193-11.818,2.926-17.453,5.237
				c-2.332,0.957-4.905,1.889-6.585,3.867c-1.701,2.003-2.139,4.611-2.345,7.151c-0.591,7.29-0.196,14.852-2.174,21.96
				c-0.499,1.792-1.349,4.566-3.291,4.774c-4.767-15.627-7.018-31.882-6.705-48.208c1.33,0.581,2.732,1.054,4.21,1.401
				c10.973,2.572,23.315-0.047,33.347-4.757c5.063-2.378,9.777-5.496,13.97-9.198c4.259-3.759,8.346-8.303,10.891-13.43
				c1.144,0.265,2.291,0.517,3.444,0.744c0.947,0.187,1.932-0.27,2.201-1.249c0.242-0.879-0.297-2.013-1.249-2.201
				c-1.012-0.2-2.02-0.415-3.025-0.644c0.928-2.769,1.425-5.648,1.658-8.566c0.449,0.043,0.898,0.083,1.346,0.131
				c0.435,0.046,0.869,0.095,1.303,0.146c0.127,0.015,0.253,0.03,0.38,0.046c0.609,0.736,1.761,1.086,2.68,0.264
				c0.734-0.656,0.807-1.727,0.305-2.544c-0.547-0.89-1.476-1.11-2.436-1.231c-1.133-0.143-2.267-0.265-3.404-0.374
				c0.021-0.966,0.03-1.931,0.021-2.894c-0.063-6.779-0.533-13.572-1.021-20.331c-0.586-8.109-1.498-16.297-3.58-24.162
				c3.349-0.902,6.714-1.751,10.087-2.564c0.003,0.026,0.001,0.049,0.005,0.075c1.29,7.637,2.817,15.233,4.599,22.77
				c1.745,7.378,3.458,14.975,6.011,22.123c0.911,2.552,2.923,5.193,5.986,4.688c2.839-0.468,3.649-3.252,3.767-5.753
				c0.362-7.709-0.062-15.549-0.676-23.234c-0.649-8.123-1.747-16.206-3.227-24.219c4.681-0.879,9.382-1.645,14.1-2.288
				c0.662,4.994,1.428,9.973,2.349,14.926c0.492,2.642,1.022,5.277,1.59,7.904c0.486,2.248,0.911,4.543,1.851,6.656
				c0.751,1.686,2.092,3.935,4.22,3.779c2.037-0.15,3.408-2.384,4.106-4.079c1.718-4.17,1.201-9.306,1.325-13.72
				c0.16-5.704,0.29-11.404-0.699-17.038c0.353-0.027,0.705-0.067,1.058-0.092c5.467-0.39,10.951-0.571,16.434-0.561
				c0.007,0.096,0.014,0.192,0.037,0.294c1.782,7.873,3.281,15.808,4.467,23.794c0.601,4.047,1.113,8.105,1.557,12.172
				c0.373,3.419,0.711,6.904,1.809,10.181c0.772,2.304,2.176,6.316,5.032,6.614c3.361,0.352,4.79-3.749,5.012-6.367
				c0.316-3.733-0.008-7.597-0.068-11.34c-0.067-4.171-0.15-8.342-0.248-12.512c-0.173-7.301,0.099-15.008-1.728-22.166
				c6.539,0.637,13.135,1.978,18.784,5.397c2.045,1.238,3.779,2.712,5.303,4.336c-0.031,0.97,0.773,1.756,1.634,1.901
				c2.171,2.812,3.779,6.014,4.977,9.445c-0.117,0.59,0.111,1.224,0.531,1.666c2.447,7.947,3.012,16.861,3.774,24.613
				C698.801,450.617,700.724,470.19,702.648,489.764z M699.946,399.098c-1.419,1.215-2.924,2.312-4.491,3.316
				c-1.276-3.376-2.942-6.585-5.178-9.463c1.369-1.614,3.345-2.954,4.772-4.36c1.89-1.861,3.685-3.817,5.381-5.856
				c0.308-0.37,0.596-0.757,0.898-1.132c0.016,0.021,0.023,0.047,0.04,0.067c2.252,2.739,4.898,5.112,7.807,7.133
				C706.49,392.569,703.474,396.078,699.946,399.098z M715.945,377.602c-0.125-0.145-0.271-0.272-0.453-0.355
				c-2.779-1.272-5.622-2.588-7.618-4.967c0.608-1.006,1.206-2.018,1.771-3.049c2.552-4.658,4.656-9.542,6.292-14.577
				c0.839,0.664,1.87,1.106,2.946,1.506c1.82,0.676,3.7,1.167,5.613,1.495c-1.579,4.932-3.57,9.744-5.775,14.387
				C717.838,373.902,716.907,375.758,715.945,377.602z"/>
		</g>
		<path style="clip-path:url(#SVGID_00000111176826987436470650000004534113047308898207_);fill:#FFFFFF;" d="M707.29,47.946
			c-0.159-2.608-2.356-4.01-4.826-4.095c-2.776-0.096-5.662,0.338-8.451,0.657c0.3-0.49,0.601-0.98,0.901-1.471
			c1.063-1.735,2.222-3.473,2.895-5.408c0.443-1.273,0.512-3.382-1.422-3.341c-0.339,0.007-0.639,0.11-0.921,0.252
			c-0.526-0.374-1.295-0.404-1.755,0.289c-1.969,2.967-3.942,5.931-5.91,8.898c-1.624-2.156-3.218-4.332-4.557-6.665
			c-0.188-0.75-0.392-1.494-0.679-2.215c-0.253-0.637-0.687-1.105-1.2-1.368c-0.309-0.303-0.732-0.36-1.121-0.24
			c-0.563,0.03-1.135,0.279-1.616,0.788c-1.451,1.536-0.468,3.491,0.398,5.032c1.263,2.248,2.549,4.484,3.85,6.71
			c-3.214,0.407-6.423,0.852-9.626,1.337c-0.694,0.105-0.992,0.624-0.982,1.162c-0.826,0.531-1.368,1.388-1,2.486
			c0.504,1.504,2.255,1.743,3.622,1.626c2.647-0.227,5.292-0.506,7.936-0.795c-1.481,2.728-2.61,5.614-2.808,8.778
			c-0.042,0.667,0.51,1.322,1.194,1.338c1.539,0.036,2.647-0.858,3.508-2.062c1.207-1.689,2.215-3.56,3.295-5.336
			c0.917,1.489,1.827,2.983,2.761,4.461c0.973,1.54,2.374,5.073,4.729,4.417c0.531-0.148,0.996-0.584,1.01-1.17
			c0.1-4.146-1.652-7.995-3.85-11.479c4.538-0.472,9.076-0.943,13.614-1.415C706.779,49.064,707.321,48.459,707.29,47.946z
			 M693.41,57.819c0.065,0.22,0.122,0.442,0.177,0.664c-0.111-0.175-0.221-0.351-0.332-0.526
			C693.31,57.914,693.362,57.868,693.41,57.819z M703.804,46.602c0.136,0.056,0.26,0.12,0.372,0.196
			c-0.095,0.01-0.191,0.02-0.286,0.03C703.868,46.748,703.841,46.672,703.804,46.602z M695.052,60.713
			C695.13,60.757,695.135,60.878,695.052,60.713L695.052,60.713z"/>
		<path style="clip-path:url(#SVGID_00000111176826987436470650000004534113047308898207_);fill:#474744;" d="M823.191,113.479
			c-2.607-7.535-7.746-13.992-15.018-17.433c-0.126-0.06-0.247-0.099-0.364-0.125c2.197-3.351,4.255-6.784,6.034-10.371
			c5.255-10.596,8.103-22.847,4.899-34.501c-0.554-2.016-3.751-1.371-3.194,0.657c4.843,17.613-4.095,33.743-14.342,47.998
			c-0.194-0.101-0.424-0.165-0.692-0.177c-14.172-0.638-28.858-1.26-42.505,3.312c-2.584,0.866-6.047,2.281-6.237,5.476
			c-0.198,3.324,3.59,5.287,6.28,6.105c3.506,1.066,7.283,0.945,10.897,0.681c3.361-0.246,6.697-0.733,9.98-1.495
			c5.825-1.351,11.443-3.505,16.68-6.373c-1.394,1.833-2.771,3.633-4.1,5.394c-5.426,7.191-10.728,14.537-16.474,21.497
			c-0.094-0.083-0.201-0.16-0.328-0.228c-13.274-7.085-28.993-9.26-43.66-5.752c-2.973,0.711-7.511,1.95-7.646,5.739
			c-0.125,3.519,4.213,5.447,6.843,6.728c6.835,3.328,14.542,4.45,22.09,4.103c4.199-0.193,8.411-0.753,12.496-1.754
			c1.144-0.28,2.266-0.617,3.355-1.018c-7.089,7.573-14.671,14.616-21.673,22.259c-0.319-0.003-0.648,0.11-0.957,0.379
			c-0.076-0.062-0.156-0.123-0.252-0.176c-12.053-6.772-26.068-14.357-40.368-10.625c-1.344,0.351-2.753,0.81-3.404,2.146
			c-0.636,1.305-0.155,2.639,0.431,3.871c1.409,2.957,3.784,5.395,6.5,7.186c5.861,3.863,13.26,4.715,20.107,5.145
			c3.868,0.243,7.967,0.145,11.715-0.931c-1.341,1.458-2.724,2.875-4.206,4.191c-2.529,2.246-5.327,4.144-8.196,5.924
			c-5.093,3.16-10.247,6.226-15.387,9.311c-5.442-2.111-11.298-2.131-17.1-1.408c-6.171,0.77-12.71,2.01-17.987,5.487
			c-2.356,1.552-4.823,3.705-5.944,6.365c-1.226,2.909,0.25,5.352,3.235,6.076c6.161,1.494,12.835,0.875,18.856-0.936
			c7.473-2.247,14.169-6.326,20.378-10.975c0.487-0.365,0.645-0.828,0.593-1.273c0.379-0.305,0.633-0.743,0.683-1.183
			c4.283-2.577,8.567-5.152,12.836-7.754c2.817-1.717,5.509-3.525,8.051-5.527c-2.353,4.577-4.18,9.417-5.37,14.431
			c-1.44,6.066-2.451,12.928-1.586,19.156c0.394,2.837,2.604,4.861,5.54,4.149c3.089-0.749,4.463-4.112,5.701-6.688
			c2.977-6.192,5.139-12.812,6.227-19.603c0.97-6.057,0.666-12.81-3.594-17.617c-0.049-0.055-0.102-0.095-0.153-0.141
			c4.065-4.436,7.888-9.067,12.116-13.361c4.392-4.462,8.945-8.764,13.3-13.263c2.664-2.751,5.195-5.613,7.654-8.535
			c-0.92,6.548-1.315,13.163-1.086,19.776c0.242,7.008,0.299,15.609,4.694,21.471c1.992,2.656,5.423,4.355,8.522,2.464
			c2.671-1.63,3.817-4.91,4.479-7.799c1.644-7.176,1.84-14.645,0.562-21.897c-1.343-7.623-4.181-17.161-11.987-20.38
			c3.752-4.762,7.376-9.629,11.028-14.471c3.476-4.607,7.081-9.188,10.525-13.882c-2.264,11.608-0.582,24.192,7.847,33.079
			c2.317,2.443,5.261,4.679,8.814,4.335c3.576-0.346,5.432-3.277,5.94-6.582C826.299,127.449,825.393,119.842,823.191,113.479z"/>
		<path style="clip-path:url(#SVGID_00000111176826987436470650000004534113047308898207_);fill:#474744;" d="M694.76,223.051
			c0,0.002,0,0.007-0.001,0.008c0.001,0.002,0.001,0.004,0.001,0.006C694.798,223.132,694.784,223.101,694.76,223.051z"/>
		<g style="clip-path:url(#SVGID_00000111176826987436470650000004534113047308898207_);">
			<path style="fill:#FFFFFF;" d="M269.568,94.693c-6.208,3.813-8.71,12.367-8.006,19.289c-5.646-2.988-11.701-7.622-18.269-4.738
				c-6.138,2.695-6.48,10.423-4.096,15.793c1.454,3.273,3.685,6.198,5.812,9.056c2.161,2.903,4.417,5.734,6.764,8.49
				c4.667,5.48,9.693,10.65,15.02,15.49c2.79,2.535,5.665,4.976,8.621,7.315c1.301,1.029,2.617,2.039,3.948,3.029
				c1.122,0.834,2.733,2.536,4.264,1.676c1.225-0.688,1.463-2.495,1.79-3.719c0.497-1.86,0.902-3.743,1.213-5.643
				c0.588-3.592,0.858-7.228,0.983-10.862c0.254-7.398-0.053-14.802,0.294-22.198c0.186-3.96,0.433-7.936,0.095-11.896
				c-0.317-3.715-1.234-7.381-2.686-10.815C282.781,98.965,277.155,90.032,269.568,94.693z"/>
			<path style="fill:#FFFFFF;" d="M250.477,99.383c0.722,1.769,1.656,3.442,2.735,5.016c0.364,0.531,1.362,0.661,1.821,0.188
				c0.143-0.147,0.264-0.305,0.374-0.467c0.44-0.262,0.659-0.771,0.628-1.31c-0.188-3.246-1.307-6.601-3.28-9.209
				c-0.535-0.707-1.38-1.161-2.266-0.883c-0.846,0.265-1.305,1.077-1.328,1.934c-0.023,0.852,0.28,1.688,0.524,2.494
				C249.915,97.903,250.177,98.65,250.477,99.383z M250.696,95.191c-0.043-0.02-0.073-0.054-0.076-0.115
				C250.621,95.09,250.655,95.137,250.696,95.191z"/>
			<path style="fill:#FFFFFF;" d="M301.892,108.216c-0.746-0.296-1.496-0.078-2.195,0.233c-1.171,0.52-2.29,1.174-3.332,1.921
				c-1.191,0.854-3.487,2.461-2.139,4.114c0.264,0.323,0.694,0.494,1.109,0.47c0.275,0.076,0.574,0.078,0.872-0.038
				c1.23-0.48,2.429-1.034,3.588-1.668c0.648-0.355,1.284-0.733,1.908-1.13c0.645-0.411,1.127-0.95,1.301-1.711
				C303.204,109.532,302.739,108.552,301.892,108.216z"/>
			<path style="fill:#FFFFFF;" d="M258.113,163.993c-0.451,0.231-0.855,0.524-1.234,0.844c-0.084,0.044-0.165,0.098-0.237,0.17
				c-0.082,0.082-0.156,0.17-0.235,0.253c-0.059,0.061-0.117,0.124-0.174,0.187c-0.735,0.807-1.349,1.689-1.825,2.688
				c-0.249,0.522-0.447,1.066-0.596,1.625c-0.173,0.648-0.345,1.304-0.279,1.981c0.071,0.725,0.468,1.495,1.175,1.78
				c0.873,0.352,1.719-0.047,2.267-0.756c0.767-0.992,1.388-2.137,1.87-3.292c0.551-1.32,0.914-2.731,1.085-4.15
				C260.044,164.379,259.003,163.538,258.113,163.993z M256.112,171.501c0-0.002-0.001-0.01-0.001-0.013
				c-0.003-0.004-0.004-0.01-0.006-0.015c0.002,0.003,0.003,0.005,0.005,0.008c-0.001-0.01-0.001-0.023-0.003-0.039
				C256.174,171.547,256.122,171.635,256.112,171.501z"/>
			<path style="fill:#FFFFFF;" d="M242.741,146.153c-0.228-0.112-0.485-0.179-0.772-0.163c-3.246,0.181-6.323,1.89-8.277,4.472
				c-0.672,0.888,0.142,2.233,1.243,2.044c3.155-0.543,6.138-1.947,8.543-4.064c0.524-0.462,0.641-1.264,0.188-1.821
				C243.44,146.344,243.094,146.182,242.741,146.153z"/>
			<path style="fill:#FFFFFF;" d="M305.376,136.56c-1.132-0.762-2.455-1.169-3.803-1.317c-1.488-0.163-3.003-0.045-4.487,0.099
				c-0.675,0.066-1.214,0.818-1.081,1.477c0.027,0.134,0.085,0.247,0.142,0.359c-0.142,0.588,0.029,1.241,0.596,1.662
				c0.661,0.491,1.611,0.461,2.396,0.549c1.599,0.18,3.197,0.366,4.797,0.54c0.826,0.09,1.705-0.05,2.224-0.768
				c0.329-0.455,0.363-1.073,0.158-1.585C306.143,137.139,305.756,136.815,305.376,136.56z"/>
		</g>
		<g style="clip-path:url(#SVGID_00000111176826987436470650000004534113047308898207_);">
			<path style="fill:#474744;" d="M139.922,262.07c-0.436-0.173-0.947-0.105-1.318,0.387c-3.902,5.161-7.547,10.508-10.929,16.025
				c-1.414,2.305-3.515,5.361-3.168,8.229c0.311,2.571,3.295,2.852,5.089,1.61c2.083-1.442,3.251-4.274,4.495-6.382
				c1.661-2.813,3.297-5.642,4.84-8.522c0.771-1.439,1.518-2.89,2.233-4.357c0.587-1.205,1.351-2.474,1.621-3.804
				C143.156,263.419,141.81,261.374,139.922,262.07z M139.305,267.267c-0.072-0.03-0.142-0.065-0.219-0.084
				c0.337-0.687,0.679-1.374,1.068-2.022c0.015-0.026,0.052-0.081,0.095-0.147c-0.035,0.123-0.069,0.247-0.116,0.364
				C139.881,266.014,139.599,266.642,139.305,267.267z M129.906,279.548c-0.199,0.385-0.398,0.77-0.597,1.155
				c-0.056,0.109-0.07,0.216-0.089,0.323c-0.531,0.919-1.063,1.837-1.593,2.756C128.215,282.304,129.047,280.906,129.906,279.548z"
				/>
			<path style="fill:#474744;" d="M156.692,242.974c0.44-1.02,0.867-2.045,1.281-3.075c0.384-0.956,0.942-2.016,0.836-3.076
				c-0.168-1.677-1.892-2.703-3.485-2.465c-0.905,0.135-1.665,0.607-2.325,1.224c-0.352-0.034-0.722,0.067-1.031,0.379
				c-2.985,3.007-5.415,6.569-7.104,10.457c-0.621,1.429-1.789,3.584-0.588,5.02c0.64,0.765,1.695,0.889,2.623,1.029
				c1.042,0.158,2.131,0.274,3.186,0.233c2.176-0.085,2.97-1.974,3.812-3.679C154.88,247.03,155.812,245.013,156.692,242.974z
				 M155.974,238.175c-0.007,0.015-0.017,0.036-0.023,0.05c-0.15,0.38-0.303,0.76-0.457,1.139c-0.22,0.542-0.448,1.08-0.676,1.619
				c-0.159-0.186-0.368-0.319-0.609-0.387C154.791,239.784,155.378,238.977,155.974,238.175z M150.438,250.079
				c0.34-0.628,0.68-1.255,1.02-1.883c0.049-0.056,0.092-0.116,0.141-0.172c-0.073,0.148-0.143,0.298-0.217,0.446
				C151.163,248.906,150.888,249.763,150.438,250.079z"/>
			<path style="fill:#474744;" d="M137.811,234.818c-1.884-0.684-3.373,0.893-4.429,2.224c-1.675,2.11-3.338,4.229-5.006,6.344
				c-1.821,2.307-3.641,4.613-5.462,6.92c-1.771,2.243-3.523,4.413-4.331,7.199c-0.161,0.554,0.06,0.953,0.425,1.17
				c0.604,1.125,1.878,1.787,3.23,1.598c2.119-0.296,3.783-2.383,5.216-3.787c3.677-3.605,7.094-7.465,10.366-11.439
				c1.269-1.542,3.26-3.309,3.078-5.495C140.759,237.882,139.445,235.41,137.811,234.818z M138.034,240.745
				c-0.081-0.055-0.166-0.1-0.26-0.139c0.163-0.313,0.332-0.622,0.491-0.937c0.033-0.066,0.033-0.129,0.052-0.194
				C138.4,239.938,138.289,240.324,138.034,240.745z M137.248,237.408c0.187,0.125,0.367,0.418,0.522,0.718
				c-0.116-0.073-0.243-0.127-0.374-0.164c-0.008-0.03-0.005-0.06-0.014-0.09c-0.082-0.265-0.29-0.486-0.547-0.632
				C136.948,237.251,137.074,237.292,137.248,237.408z M125.32,255.094c0.155-0.163,0.308-0.329,0.462-0.493
				c0.009,0.004,0.017,0.009,0.026,0.012c-0.038,0.038-0.075,0.077-0.113,0.115C125.64,254.782,125.503,254.917,125.32,255.094z"/>
		</g>
		<path style="clip-path:url(#SVGID_00000111176826987436470650000004534113047308898207_);fill:#474744;" d="M529.414,31.489
			c-0.154-2.351-1.005-4.565-2.358-6.485c-2.872-4.076-7.685-6.244-12.637-5.974c-2.628,0.143-5.195,0.832-7.546,2.019
			c-2.343,1.182-4.261,2.924-6.295,4.548c-2.178,1.738-4.595,2.95-7.442,2.905c-2.984-0.047-5.447-1.365-7.619-3.332
			c-1.983-1.796-3.84-3.661-6.168-5.022c-2.134-1.247-4.458-2.144-6.901-2.538c-2.433-0.393-4.921-0.187-7.219,0.718
			c-2.514,0.99-4.426,2.901-6.309,4.768c-3.863,3.831-9.043,6.931-14.681,5.393c-5.447-1.486-7.267-7.414-12.184-9.775
			c-4.939-2.371-11.001-1.57-15.303,1.748c-4.318,3.33-6.584,8.926-6.446,14.3c0.015,0.577,0.31,0.988,0.705,1.224
			c1.212,1.694,3.112,0.555,3.856-0.967c1.045-2.137,1.344-4.576,2.348-6.751c1.918-4.155,5.724-7.813,10.614-7.333
			c2.52,0.247,4.113,1.898,5.702,3.701c1.537,1.744,3.188,3.388,5.051,4.785c3.797,2.849,8.493,4.38,13.201,3.177
			c4.693-1.199,8.195-4.389,11.869-7.337c1.896-1.521,4.038-2.937,6.549-3.028c2.55-0.092,4.952,1.093,7.033,2.453
			c4.143,2.708,7.528,6.528,12.257,8.298c4.683,1.752,8.911,0.282,12.676-2.685c4.223-3.327,8.384-7.166,14.201-6.603
			c2.634,0.255,5.207,1.508,6.737,3.713c1.525,2.198,1.963,4.951,2.258,7.552c0.069,0.61,0.741,1.099,1.321,1.125
			C529.176,36.196,529.538,33.38,529.414,31.489z"/>
		<g style="clip-path:url(#SVGID_00000111176826987436470650000004534113047308898207_);">
			<path style="fill:#474744;" d="M649.808,253.916c-0.212-0.003-0.42,0.046-0.592,0.177c-3.955,3.014-7.455,6.51-10.443,10.487
				c-1.339,1.783-3.152,3.97-2.3,6.346c0.934,2.605,3.796,2.296,5.745,1.111c3.992-2.427,6.465-6.6,8.78-10.518
				c0.685-1.159,1.33-2.335,1.835-3.585c0.464-1.147,0.794-2.451,0.006-3.539C651.951,253.17,650.856,253.306,649.808,253.916z
				 M644.456,266.806c0.299-0.363,0.594-0.729,0.883-1.1c0.006-0.002,0.012-0.003,0.018-0.006
				C645.067,266.078,644.767,266.447,644.456,266.806z"/>
			<path style="fill:#474744;" d="M671.348,259.289c-0.19-0.061-0.402-0.085-0.636-0.043c-2.726,0.488-4.741,3.303-6.557,5.174
				c-2.078,2.141-4.124,4.316-6.043,6.602c-1.662,1.979-3.517,4.114-3.943,6.753c-0.2,1.239-0.033,2.549,1.12,3.267
				c1.052,0.655,2.307,0.531,3.384,0.016c2.484-1.188,4.567-3.47,6.357-5.504c1.937-2.202,3.79-4.48,5.675-6.726
				c1.667-1.986,3.828-4.151,4.073-6.877C674.977,259.741,673.117,259.048,671.348,259.289z M656.615,278.929
				c-0.146-0.155-0.076-0.558,0.018-0.909c0.087,0.138,0.195,0.261,0.323,0.355c0.026,0.216,0.104,0.423,0.22,0.602
				C656.96,279.042,656.739,279.061,656.615,278.929z M669.181,266.77c-0.458,0.546-0.912,1.1-1.366,1.658
				c-0.031-0.094-0.073-0.183-0.124-0.269c1.415-1.649,2.807-3.317,4.16-5.018c-0.151,0.307-0.323,0.606-0.507,0.892
				C670.715,265.012,669.927,265.881,669.181,266.77z M672.325,261.848c-0.009-0.052-0.017-0.104-0.031-0.154
				c0.017,0.011,0.046,0.008,0.059,0.022C672.358,261.722,672.345,261.775,672.325,261.848z"/>
		</g>
		<g style="clip-path:url(#SVGID_00000111176826987436470650000004534113047308898207_);">
			<path style="fill:#4D96FF;" d="M430.334,491.651c-0.943-5.239-4.246-9.862-7.909-13.584c-8.932-9.076-21-15.481-33.202-18.86
				c-3.169-0.878-6.388-1.538-9.642-2.01c-0.236-0.034-0.454-0.019-0.658,0.027c-0.626-1.863-1.202-3.741-1.829-5.617
				c-2.192-6.554-7.058-11.827-11.456-17.016c-4.412-5.205-9.167-10.186-14.741-14.164c-5.754-4.107-12.221-6.647-19.246-7.458
				c-1.154-0.133-2.318-0.225-3.486-0.298c-0.021-0.049-0.034-0.097-0.06-0.147c-0.612-1.16-0.381-2.5-0.131-3.732
				c0.315-1.552,0.713-3.097,0.737-4.69c0.028-1.802-0.369-3.583-0.314-5.386c0.048-1.563,0.532-3.022,1.293-4.363
				c0.332-0.079,0.658-0.173,0.977-0.286c1.351-0.48,2.69-1.198,3.444-2.474c1.528-2.587,0.081-5.825-2.397-7.173
				c-2.349-1.278-5.637-1.458-7.924,0.075c-2.226,1.492-3.419,4.575-2.002,7.036c0.698,1.211,1.93,1.901,3.278,2.102
				c0.189,0.393,0.497,0.659,0.877,0.81c-0.438,1.131-0.736,2.314-0.852,3.539c-0.195,2.049,0.298,4.071,0.267,6.118
				c-0.043,2.906-1.369,5.648-0.762,8.44c-4.672-0.053-9.378,0.34-13.921,1.154c-6.592,1.18-12.934,3.566-18.431,7.428
				c-5.745,4.037-10.774,9.101-15.713,14.063c-5.725,5.753-11.184,11.827-15.979,18.359c-0.155-0.051-0.321-0.088-0.508-0.093
				c-12.162-0.335-24.725,0.341-36.137,4.933c-5.44,2.189-10.945,5.151-14.511,9.951c-3.369,4.534-3.737,10.182-1.609,15.322
				c2.181,5.267,6.311,9.485,10.663,13.037c3.009,2.456,6.227,4.619,9.574,6.567c-1.496,1.988-2.937,4.073-3.578,6.511
				c-0.622,2.367-0.471,5.027,0.922,7.104c1.378,2.053,3.496,3.353,5.96,3.603c2.518,0.256,4.908-0.821,6.667-2.578
				c2.098-2.094,3.822-4.696,5.327-7.237c0.057-0.096,0.09-0.2,0.125-0.304c9.064,3.271,18.519,5.435,27.982,7.22
				c0.452,0.085,0.906,0.165,1.359,0.249c-1.844,5.051-0.465,10.385-0.941,15.606c-0.28,3.063-1.656,5.039-3.483,7.402
				c-1.615,2.088-2.351,4.272-1.892,6.916c0.459,2.645,1.562,4.799,0.312,7.399c-1.138,2.367-2.97,4.475-3.111,7.215
				c-0.064,1.251,0.302,2.375,0.716,3.532c0.524,1.462,0.678,2.639,0.202,4.141c-0.844,2.662-2.547,4.934-3.001,7.737
				c-0.341,2.106,2.885,3.024,3.23,0.894c0.452-2.79,2.158-5.079,3.001-7.737c0.39-1.229,0.561-2.519,0.38-3.799
				c-0.182-1.29-0.865-2.411-1.103-3.675c-0.507-2.693,1.996-5.177,2.981-7.51c1.016-2.405,0.73-4.652,0.088-7.119
				c-0.337-1.296-0.766-2.653-0.339-3.982c0.391-1.216,1.383-2.233,2.162-3.208c1.722-2.154,2.739-4.454,3.096-7.196
				c0.694-5.317-0.966-10.88,1.032-16.006c12.996,2.31,26.114,4.045,39.282,5.04c-0.006,0.051-0.018,0.097-0.02,0.151
				c-0.074,2.263,0.075,4.594,0.583,6.806c0.479,2.085,1.637,4.027,3.634,4.959c1.962,0.915,4.095,0.982,6.208,0.685
				c0.983-0.138,2.022-0.342,2.85-0.921c0.994-0.695,1.564-1.717,2.058-2.799c1.152-2.519,1.799-5.183,1.913-7.953
				c0.001-0.025-0.014-0.047-0.014-0.072c5.874,0.141,11.751,0.131,17.626-0.065c1.597-0.053,3.194-0.121,4.79-0.201
				c0.007,0.069,0.008,0.136,0.023,0.207c1.293,6.06,2.585,12.121,3.878,18.181c0.646,3.03,1.293,6.06,1.939,9.091
				c0.499,2.338,0.799,4.995,2.104,7.06c0.541,0.855,1.216,1.519,2.009,2.136c0.859,0.669,1.731,1.066,1.497,2.245
				c-0.229,1.156-0.752,2.215-0.931,3.398c-0.171,1.128-0.203,2.246-0.004,3.373c0.201,1.141,0.64,2.196,1.303,3.146
				c0.705,1.011,1.698,1.842,2.077,3.05c0.689,2.192-0.236,4.683-0.938,6.753c-0.693,2.044,2.539,2.932,3.23,0.894
				c0.776-2.29,1.49-4.716,1.203-7.16c-0.126-1.072-0.438-2.109-0.99-3.042c-0.637-1.077-1.676-1.896-2.217-3.028
				c-1.147-2.399,0.138-4.624,0.616-6.969c0.487-2.387-0.895-3.775-2.614-5.15c-2.174-1.74-2.415-4.333-2.966-6.916
				c-0.646-3.03-1.293-6.06-1.939-9.091c-1.306-6.125-2.613-12.251-3.919-18.376c10.395-0.643,20.757-1.852,31.004-3.717
				c0.036,2.282,0.526,4.521,1.469,6.607c0.503,1.114,1.177,2.185,2.277,2.793c1.083,0.599,2.439,0.801,3.664,0.714
				c5.006-0.358,8.576-4.53,9.595-9.22c0.328-1.511,0.464-3.072,0.431-4.617c-0.001-0.047-0.009-0.09-0.011-0.137
				c0.703-0.188,1.41-0.364,2.11-0.562c5.922-1.671,11.915-4.025,16.276-8.532C429.249,503.022,431.377,497.444,430.334,491.651z
				 M326.188,387.018c0.008-0.002-0.019,0.008-0.093,0.032c0.003-0.001,0.005-0.002,0.007-0.003
				C326.132,387.037,326.16,387.028,326.188,387.018z M324.682,388.39c-0.006-0.004,0.01-0.038,0.036-0.086
				c0.03-0.093,0.025-0.069,0.007-0.012c0.078-0.142,0.237-0.392,0.246-0.406c0.028-0.041,0.082-0.103,0.109-0.134
				c-0.017,0.019-0.048,0.052-0.106,0.115c0.036-0.039,0.072-0.078,0.108-0.117c0.015-0.016,0.017-0.019,0.007-0.007
				c0.02-0.022,0.039-0.044,0.06-0.065c0.06-0.061,0.127-0.115,0.187-0.176c0.04-0.04,0.04-0.046,0.052-0.061
				c0.008-0.004,0.014-0.007,0.027-0.014c-0.106,0.263-0.182,0.533-0.241,0.806c-0.227,0.274-0.435,0.561-0.635,0.859
				c0.001-0.026-0.003-0.052-0.002-0.078c0.002-0.041,0.07-0.358,0.016-0.175c0.022-0.077,0.05-0.175,0.056-0.198
				c0.026-0.095,0.06-0.187,0.09-0.281C324.692,388.375,324.685,388.392,324.682,388.39z M364.731,438.736
				c-0.811,0.437-1.669,0.795-2.551,1.112c-0.005-0.107-0.015-0.216-0.041-0.331c-0.392-1.729-0.784-3.457-1.176-5.186
				C362.246,435.775,363.499,437.246,364.731,438.736z M287.1,433.931c2.4-2.275,4.831-4.543,7.384-6.641
				c-1.836,2.267-3.559,4.627-5.156,7.078c-0.117,0.18-0.181,0.364-0.218,0.549c-0.698-0.296-1.39-0.608-2.075-0.936
				C287.057,433.962,287.079,433.95,287.1,433.931z M284.222,432.509c-0.043-0.025-0.087-0.049-0.131-0.073
				c0.069-0.066,0.138-0.132,0.207-0.197C284.264,432.329,284.237,432.419,284.222,432.509z M296.256,433.23
				c1.565-1.922,3.097-3.828,4.885-5.554c1.564-1.51,3.259-2.855,5.024-4.096c-1.133,1.395-2.276,2.781-3.404,4.18
				c-2.457,3.048-4.958,6.044-5.793,9.871c-1.437-0.4-2.858-0.843-4.263-1.332C294.11,435.603,295.237,434.482,296.256,433.23z
				 M314.234,418.945c0.7-0.852,0.514-1.845-0.097-2.401c2.045-0.27,4.104-0.441,6.167-0.528c-3.146,1.944-6.127,4.113-8.952,6.464
				C312.314,421.303,313.268,420.12,314.234,418.945z M314.786,423.989c-0.849,1.265-1.702,2.527-2.546,3.795
				c-2.39,3.593-4.616,7.299-5.784,11.486c-0.052,0.189-0.054,0.356-0.054,0.522c-1.731-0.337-3.457-0.691-5.174-1.082
				c-0.147-0.034-0.292-0.071-0.439-0.105C304.774,433.111,309.485,428.196,314.786,423.989z M320.078,429.733
				c-2.552,3.346-5.096,6.686-6.289,10.787c-0.055,0.188-0.058,0.361-0.052,0.531c-1.363-0.201-2.724-0.419-4.081-0.654
				c3.417-4.412,7.285-8.456,11.509-12.089C320.802,428.783,320.44,429.258,320.078,429.733z M327.943,426.699
				c-0.479,1.25-0.951,2.503-1.4,3.763c-1.278,3.586-2.063,7.274-1.301,11.061c0.075,0.371,0.259,0.637,0.489,0.835
				c-2.899-0.203-5.795-0.488-8.681-0.852C320.348,436.32,323.986,431.381,327.943,426.699z M328.478,441.542
				c1.228-3.894,2.651-7.711,4.258-11.45c-0.99,3.82-1.939,7.646-1.822,11.644c0.011,0.363,0.139,0.652,0.311,0.899
				c-1.178-0.04-2.355-0.094-3.533-0.162C328.047,442.272,328.344,441.966,328.478,441.542z M334.205,442.184
				c0.631-2.098,1.329-4.171,2.063-6.23c-0.311,1.48-0.621,2.959-0.932,4.439c-0.366,1.74,2.163,3.097,3.054,1.308
				c1.223-2.457,2.563-4.847,3.964-7.2c-0.58,1.801-1.173,3.598-1.718,5.41c-0.636,2.117,2.435,2.836,3.23,0.894
				c0.005-0.013,0.011-0.026,0.017-0.04c0.127,1.371,2.332,2.03,3.146,0.642c1.405-2.397,2.809-4.794,4.214-7.191
				c0.249,1.87,0.757,3.713,1.546,5.503c0.662,1.502,2.582,0.789,3.073-0.379c0.606-1.442,1.213-2.884,1.819-4.326
				c0.405,1.787,0.811,3.574,1.216,5.361c0.032,0.142,0.079,0.268,0.134,0.384c-3.075,0.69-6.313,0.966-9.275,1.279
				c-5.253,0.554-10.54,0.761-15.82,0.676C334.046,442.561,334.143,442.392,334.205,442.184z M354.542,433.905
				c-0.267-1.96-0.173-3.963,0.295-5.919c0.529,0.492,1.049,0.994,1.563,1.502C355.781,430.96,355.162,432.432,354.542,433.905z
				 M350.102,424.004c-0.379,0.465-0.751,0.934-1.116,1.407c0.214-0.592,0.409-1.191,0.627-1.781
				C349.778,423.751,349.938,423.88,350.102,424.004z M347.005,421.856c-0.152,0.101-0.295,0.219-0.413,0.372
				c-2.055,2.68-3.974,5.453-5.767,8.305c0.71-3.382,1.421-6.763,2.131-10.145c0.06-0.287,0.021-0.555-0.054-0.808
				c0.845,0.396,1.683,0.823,2.509,1.298C345.953,421.189,346.479,421.522,347.005,421.856z M340.374,418.52
				c-0.179,0.134-0.343,0.309-0.471,0.56c-0.821,1.612-1.599,3.243-2.355,4.885c0.338-1.761,0.576-3.538,0.608-5.348
				c0.006-0.368-0.12-0.679-0.311-0.938C338.696,417.929,339.539,418.207,340.374,418.52z M335.741,417.118
				c-0.276,0.126-0.528,0.323-0.7,0.636c-0.167,0.304-0.326,0.613-0.491,0.919c-0.022-1.287-1.912-2.104-2.882-1.101
				c-0.318,0.329-0.625,0.666-0.94,0.998c-0.522-0.41-1.232-0.579-1.836-0.191c-4.862,3.124-9.359,6.712-13.487,10.694
				c0.02-0.029,0.039-0.059,0.059-0.088c2.387-3.571,4.786-7.134,7.179-10.701c0.579-0.862,0.104-1.879-0.674-2.32
				c1.239-0.027,2.478-0.036,3.714-0.014C329.127,416.013,332.487,416.363,335.741,417.118z M310.467,417.148
				c-1.359,0.667-2.688,1.388-3.974,2.184c0.149-0.421,0.072-0.846-0.154-1.204c0.021-0.006,0.04-0.013,0.061-0.019
				C307.743,417.729,309.101,417.418,310.467,417.148z M274.922,441.652c2.171-2.296,4.386-4.569,6.649-6.796
				c0.016,0.01,0.026,0.022,0.043,0.032c9.999,5.977,21.925,8.102,33.314,9.672c11.228,1.548,22.622,2.025,33.916,0.922
				c5.831-0.569,12.454-1.014,17.675-3.896c0.136-0.075,0.248-0.162,0.349-0.254c2.004,2.462,4.078,4.927,5.567,7.742
				c1.719,3.25,2.387,6.949,3.675,10.375c1.168,3.107,2.558,6.122,3.967,9.125c2.723,5.802,5.556,11.724,6.443,18.126
				c-8.674,2.139-17.807,2.865-26.667,3.858c-9.17,1.028-18.374,1.745-27.606,1.71c-18.422-0.069-37.445-1.203-55.258-6.181
				c-4.988-1.394-9.899-3.111-14.608-5.27c-3.445-1.58-8.516-3.491-9.61-7.559C257.997,461.401,266.058,451.022,274.922,441.652z
				 M231.856,505.352c-1.44,1.297-2.737,2.747-3.872,4.321c0.676-1.741,1.859-3.304,2.975-4.773
				C231.255,505.056,231.558,505.199,231.856,505.352z M235.57,515.586c-0.734,0.716-1.634,1.233-2.589,1.456
				c2.227-2.56,4.453-5.12,6.68-7.68c0.096-0.11,0.16-0.243,0.23-0.371c0.065,0.026,0.131,0.05,0.197,0.076
				c-0.214,0.307-0.347,0.683-0.397,1.113C238.501,512.106,237.174,514.022,235.57,515.586z M320.377,530.914
				c0.007,0.232,0.014,0.464,0.021,0.695c0.004,0.132,0.043,0.248,0.075,0.367c-0.29-0.242-0.541-0.539-0.743-0.899
				C319.945,531.066,320.166,531.008,320.377,530.914z M323.575,525.625c-0.023-0.561-0.084-1.125-0.232-1.648
				c0.391,0.02,0.782,0.043,1.173,0.063C324.201,524.567,323.887,525.096,323.575,525.625z M326.921,532.279
				c-0.139,0.136-0.308,0.209-0.491,0.265c0.516-0.772,1.034-1.543,1.558-2.31c-0.105,0.251-0.194,0.508-0.313,0.753
				C327.47,531.412,327.258,531.948,326.921,532.279z M397.591,526.133c-0.024,0.201-0.005,0.405,0.049,0.603
				c-0.281,0.071-0.567,0.123-0.853,0.148C397.136,526.731,397.414,526.467,397.591,526.133z M397.797,525.394
				c0-0.004,0.002-0.008,0.002-0.012c-0.001-0.583,0-1.166,0.019-1.749c0.018-0.561-0.006-1.197,0.128-1.745
				c-0.101,0.414,0.002-0.007,0.014-0.083c0.022-0.131,0.045-0.262,0.071-0.392c0.06-0.302,0.133-0.602,0.222-0.897
				c0.038-0.126,0.078-0.251,0.121-0.375c0.017-0.049,0.095-0.343,0.139-0.369c-0.092,0.211-0.098,0.228-0.019,0.051
				c0.019-0.04,0.038-0.079,0.057-0.119c0.078-0.159,0.163-0.314,0.251-0.468c0.175-0.305,0.218-0.664,0.189-1.014
				c0.407-0.09,0.811-0.189,1.217-0.282C399.405,520.424,398.601,522.909,397.797,525.394z M392.737,519.772
				c0.001-0.085-0.008-0.17-0.006-0.255c0.052-0.01,0.103-0.02,0.155-0.03C392.831,519.58,392.785,519.676,392.737,519.772z
				 M394.044,525.658c-0.17-0.333-0.3-0.682-0.435-1.029c0.204,0.048,0.413,0.054,0.623,0.014c0.091,0.389,0.181,0.777,0.272,1.166
				c0.105,0.452,0.42,0.794,0.81,1.005C394.754,526.654,394.377,526.312,394.044,525.658z M402.293,522.769
				c-0.08,0.157-0.185,0.3-0.273,0.452c0.442-1.366,0.884-2.732,1.326-4.097c-0.022,0.167-0.04,0.334-0.07,0.5
				C403.077,520.702,402.79,521.787,402.293,522.769z M425.854,500.645c-2.779,5.469-8.305,8.689-13.91,10.64
				c-5.648,1.966-11.585,3.246-17.432,4.464c-12.129,2.525-24.442,4.086-36.807,4.82c-24.679,1.465-49.497-0.291-73.882-4.212
				c-12.011-1.931-24.084-4.155-35.674-7.918c-11.307-3.672-22.479-9.041-31.068-17.432c-3.571-3.489-7.089-8.099-7.321-13.292
				c-0.262-5.839,4.118-10.18,8.778-12.99c9.808-5.915,21.61-7.667,32.879-7.955c2.286-0.058,4.573-0.042,6.859,0.001
				c-3.752,5.491-7.018,11.303-9.562,17.524c-0.517,1.265,0.598,2.077,1.689,1.998c1.318,2.308,3.596,3.983,5.948,5.273
				c4.139,2.27,8.582,4.086,13.032,5.645c9.048,3.168,18.485,5.039,27.979,6.252c19.414,2.48,39.188,2.851,58.654,0.858
				c5.33-0.546,10.647-1.211,15.961-1.893c5.25-0.673,10.528-1.263,15.673-2.551c0.266-0.067,0.483-0.178,0.658-0.319
				c0.914,0.106,1.855-0.414,1.743-1.584c-0.604-6.345-2.944-12.196-5.596-17.935c-1.333-2.886-2.728-5.744-3.98-8.667
				c-0.096-0.225-0.176-0.454-0.268-0.681c11.755,1.944,22.948,6.549,32.59,13.582C420.564,479.944,431.252,490.021,425.854,500.645
				z"/>
			<path style="fill:#4D96FF;" d="M267.728,473.401c1.71,0.924,3.663,1.513,5.424,0.351c1.471-0.971,2.376-2.611,3.216-4.113
				c0.969-1.733,1.797-3.548,2.496-5.406c0.626-1.666,1.761-3.969,0.368-5.535c-1.02-1.147-2.958-1.904-4.461-2.001
				c-2.006-0.13-3.168,1.22-4.028,2.776c-0.992,1.443-1.958,2.904-2.882,4.392c-0.518,0.834-1.025,1.674-1.521,2.521
				c-0.516,0.882-1.114,1.78-1.288,2.802C264.715,471.166,266.126,472.535,267.728,473.401z M268.544,469.963
				c-0.135-0.115-0.258-0.231-0.245-0.304c-0.003,0.019,0.201-0.305,0.227-0.354c0.098-0.188,0.21-0.37,0.311-0.557
				c0.069,0.042,0.148,0.063,0.222,0.095c-0.039,0.076-0.079,0.152-0.118,0.228c-0.173,0.333-0.216,0.699-0.18,1.051
				C268.677,470.067,268.602,470.013,268.544,469.963z M272.229,469.997c1.069-2.065,2.138-4.13,3.207-6.195
				c-0.441,1.113-0.928,2.206-1.486,3.268C273.441,468.038,272.878,469.124,272.229,469.997z"/>
			<path style="fill:#4D96FF;" d="M303.425,466.498c-0.351,1.425-0.702,2.849-1.053,4.274c-0.228,0.926-0.457,1.853-0.685,2.779
				c-0.197,0.801-0.466,1.638-0.473,2.471c-0.006,0.85,0.277,1.66,0.901,2.249c0.83,0.783,2.063,0.796,3.134,0.896
				c0.892,0.083,1.788,0.13,2.684,0.139c0.905,0.009,1.915,0.066,2.799-0.157c2.009-0.507,2.213-3.241,2.613-4.91
				c0.454-1.897,0.858-3.806,1.209-5.725c0.171-0.936,0.383-1.889,0.472-2.837c0.11-1.176-0.578-2.057-1.655-2.44
				c-1.728-0.615-3.708-0.837-5.526-0.968c-1.076-0.078-2.383-0.258-3.245,0.547c-0.762,0.712-0.881,1.989-1.068,2.958
				C303.485,466.014,303.466,466.258,303.425,466.498z M304.599,475.746c0.001-0.007,0.001-0.005,0.002-0.012
				c0.031-0.134,0.063-0.268,0.097-0.402c0.012,0.154,0.035,0.301,0.092,0.434C304.726,475.758,304.663,475.751,304.599,475.746z
				 M304.568,476.117c0,0.001,0.001,0.002,0.002,0.003C304.57,476.231,304.569,476.207,304.568,476.117z"/>
			<path style="fill:#4D96FF;" d="M328.001,473.879c0.061,0.822,0.138,1.643,0.233,2.462c0.105,0.911,0.115,1.917,0.528,2.754
				c0.797,1.618,2.949,2.007,4.59,1.861c0.853-0.076,1.641-0.279,2.424-0.621c0.317-0.138,0.62-0.296,0.909-0.485
				c0.707-0.465,1.017-0.99,1.005-1.823c-0.03-2.041-0.342-4.119-0.612-6.138c-0.264-1.978-0.601-3.945-1.005-5.899
				c-0.153-0.741-0.894-1.202-1.625-1.212c-0.233-0.229-0.505-0.424-0.867-0.524c-0.902-0.25-1.939,0.151-2.819,0.354
				c-0.819,0.189-1.636,0.347-2.234,0.987c-0.768,0.824-0.672,2.044-0.685,3.093C327.821,470.42,327.873,472.152,328.001,473.879z
				 M331.572,477.415c0.007-0.02,0.022,0.001,0.039,0.036C331.585,477.44,331.567,477.429,331.572,477.415z M331.761,477.492
				c-0.002-0.159-0.046-0.36-0.087-0.544c0.061,0.189,0.12,0.378,0.185,0.565c-0.002,0-0.003,0-0.004-0.001
				C331.832,477.506,331.797,477.499,331.761,477.492z"/>
			<path style="fill:#4D96FF;" d="M353.972,465.538c0.091,0.759,0.195,1.527,0.317,2.298c0.014,0.092,0.027,0.185,0.042,0.278
				c0.036,0.218,0.079,0.434,0.12,0.652c0.451,2.63,1.059,5.229,1.879,7.776c0.566,1.758,1.052,3.97,3.168,4.341
				c1.012,0.177,2.128-0.052,3.146-0.137c1.008-0.085,2.016-0.17,3.023-0.255c0.912-0.077,1.663-0.703,1.678-1.674
				c0.069-4.639-0.5-9.303-1.714-13.782c-0.317-1.169-0.641-2.436-1.795-3.057c-1.015-0.546-2.317-0.438-3.435-0.415
				c-2.064,0.042-4.201,0.342-5.946,1.524c-0.749,0.507-1.104,1.452-0.632,2.284C353.859,465.435,353.926,465.479,353.972,465.538z
				 M357.702,467.314c0.042,0.43,0.067,0.862,0.101,1.293c-0.194-1.063-0.363-2.129-0.491-3.201c0.049-0.018,0.1-0.03,0.15-0.046
				C357.538,466.011,357.614,466.663,357.702,467.314z M362.101,477.102c0.051,0.108,0.082,0.227,0.163,0.318
				c0.001,0.002,0.004,0.003,0.006,0.006c-0.252,0.021-0.505,0.043-0.757,0.064C361.742,477.397,361.945,477.274,362.101,477.102z
				 M360.242,477.597c-0.021-0.048-0.037-0.099-0.056-0.148c0.099,0.046,0.193,0.1,0.298,0.127
				C360.403,477.583,360.323,477.59,360.242,477.597z"/>
			<path style="fill:#4D96FF;" d="M324.717,388.304c-0.004,0.013-0.004,0.01-0.01,0.029c-0.003,0.008-0.005,0.017-0.008,0.026
				c0.009-0.02,0.017-0.041,0.025-0.067C324.722,388.296,324.719,388.301,324.717,388.304z"/>
			<path style="fill:#4D96FF;" d="M325.082,387.75c0,0-0.001,0.001-0.001,0.001c0.004-0.004,0.006-0.006,0.008-0.009
				C325.086,387.745,325.084,387.747,325.082,387.75z"/>
			<path style="fill:#4D96FF;" d="M295.375,543.324c-0.037-0.415-0.057-0.831-0.048-1.247c0.005-0.238,0.022-0.475,0.046-0.711
				c0-0.001,0,0,0-0.001c0.002-0.011,0.001-0.003,0.005-0.019c0.02-0.101,0.039-0.202,0.062-0.303
				c0.048-0.207,0.116-0.406,0.183-0.607c0.008-0.016,0.003-0.01,0.016-0.033c0.048-0.083,0.097-0.166,0.143-0.25
				c0.022-0.04,0.023-0.041,0.033-0.057c0.064-0.068,0.13-0.133,0.195-0.201c0.007-0.008,0.002-0.004,0.007-0.01
				c0.104-0.063,0.206-0.12,0.315-0.174c0.812-0.402,1.061-1.527,0.632-2.284c-0.467-0.825-1.471-1.035-2.284-0.632
				c-2.022,1.001-2.694,3.337-2.707,5.437c-0.006,1,0.166,1.991,0.196,2.99c0.009,0.285,0.008,0.571-0.008,0.855
				c-0.001,0.024-0.011,0.172-0.014,0.232c-0.01,0.043-0.05,0.292-0.058,0.327c-0.027,0.117-0.06,0.232-0.092,0.347
				c-0.011,0.041-0.035,0.109-0.044,0.138c-0.114,0.248-0.212,0.382-0.309,0.489c-0.611,0.668-0.689,1.695-0.032,2.37
				c0.604,0.621,1.757,0.703,2.37,0.032C295.708,548.124,295.588,545.706,295.375,543.324z"/>
			<path style="fill:#4D96FF;" d="M293.487,566.447c0.054-0.3,0.112-0.599,0.211-0.889c0.07-0.22,0.081-0.44,0.033-0.661
				c-0.01-0.218-0.073-0.422-0.19-0.612c-0.103-0.198-0.245-0.357-0.427-0.478c-0.164-0.154-0.359-0.258-0.584-0.311
				c-0.423-0.097-0.894-0.08-1.273,0.157c-0.114,0.086-0.229,0.171-0.343,0.257c-0.216,0.211-0.365,0.463-0.446,0.754
				c-0.179,0.526-0.266,1.063-0.334,1.613c-0.051,0.413-0.06,0.829-0.026,1.244c-0.008,0.224,0.037,0.434,0.137,0.629
				c0.065,0.207,0.178,0.388,0.338,0.541c0.153,0.169,0.335,0.289,0.547,0.358c0.202,0.108,0.419,0.157,0.652,0.15
				c0.426-0.018,0.87-0.156,1.171-0.475c0.295-0.312,0.544-0.754,0.507-1.199C293.431,567.165,293.452,566.806,293.487,566.447z"/>
			<path style="fill:#4D96FF;" d="M342.353,552.637c-0.32-0.828-0.219-1.49,0.063-2.321c0.612-1.801,1.428-3.429,1.229-5.392
				c-0.196-1.932-1.038-3.74-2.472-5.065c-1.582-1.461-3.99,0.872-2.403,2.338c1.043,0.963,1.647,2.261,1.551,3.7
				c-0.109,1.648-1.17,3.094-1.445,4.716c-0.15,0.883-0.145,1.781,0.139,2.638c0.23,0.693,0.589,1.313,0.662,2.053
				c0.164,1.667-0.55,3.358-1.136,4.88c-0.326,0.846,0.356,1.837,1.168,2.062c0.944,0.261,1.736-0.32,2.062-1.168
				c0.686-1.783,1.357-3.682,1.266-5.623C342.988,554.435,342.716,553.577,342.353,552.637z"/>
			<path style="fill:#4D96FF;" d="M321.604,563.655c-0.022-0.435-0.166-0.852-0.475-1.171c-0.152-0.169-0.335-0.289-0.547-0.358
				c-0.202-0.107-0.419-0.157-0.652-0.15c-0.426,0.018-0.87,0.156-1.171,0.475c-0.3,0.318-0.53,0.748-0.507,1.199
				c0.045,0.878,0.09,1.755,0.135,2.633c0.022,0.435,0.165,0.852,0.475,1.171c0.153,0.169,0.335,0.289,0.547,0.358
				c0.201,0.107,0.419,0.157,0.652,0.15c0.426-0.018,0.87-0.156,1.171-0.475c0.3-0.318,0.531-0.748,0.507-1.199
				C321.694,565.411,321.649,564.533,321.604,563.655z"/>
		</g>
		<path style="clip-path:url(#SVGID_00000111176826987436470650000004534113047308898207_);fill:#474744;" d="M508.973,130.042
			c0.995-3.828,2.806-7.63,5.343-10.683c2.437-2.932,6.067-5.159,9.919-3.529c2.628,1.112,4.191,3.284,5.296,5.731
			c2.817-7.199,6.195-14.512,12.067-19.613c3.554-3.088,7.896-3.259,11.472-0.084c3.302,2.931,5.261,7.118,6.287,11.35
			c0.853,3.517,1.02,7.136,0.935,10.752c0.268-0.452,0.537-0.904,0.805-1.356c1.273-2.144,2.451-4.416,4-6.378
			c2.488-3.152,6.715-5.515,10.646-3.451c3.59,1.885,5.805,6.062,6.91,9.803c1.276,4.322,1.155,8.945,0.269,13.33
			c-0.966,4.786-2.446,10.018-4.974,14.308c-0.034,0.232-0.122,0.469-0.295,0.703c-0.135,0.184-0.295,0.332-0.442,0.499
			c-0.08,0.116-0.168,0.212-0.261,0.294c-2.349,2.42-5.935,3.063-9.179,3.568c-4.243,0.661-8.566,0.818-12.853,0.656
			c-8.884-0.335-17.701-1.998-26.413-3.668c-4.207-0.806-8.437-1.739-12.403-3.395c-3.414-1.425-6.835-3.46-7.765-7.305
			C507.446,137.896,508.037,133.646,508.973,130.042z"/>
		<path style="clip-path:url(#SVGID_00000111176826987436470650000004534113047308898207_);fill:#474744;" d="M422.571,431.114
			c2.501-0.747,4.039-3.079,5.043-5.346c1.048-2.364,1.467-5.013,0.181-7.384c-1.204-2.221-3.661-3.158-6.074-2.695
			c-1.668,0.321-3.028,1.31-3.982,2.63c-1.001,0.613-1.836,1.512-2.324,2.535c-1.09,2.285-0.781,4.95,0.553,7.075
			C417.372,430.166,419.826,431.934,422.571,431.114z"/>
		<path style="clip-path:url(#SVGID_00000111176826987436470650000004534113047308898207_);fill:#474744;" d="M411.873,63.916
			c1.675-0.5,2.706-2.063,3.379-3.582c0.702-1.584,0.983-3.359,0.121-4.947c-0.807-1.488-2.453-2.116-4.07-1.805
			c-1.118,0.215-2.029,0.877-2.668,1.762c-0.671,0.411-1.23,1.013-1.557,1.699c-0.73,1.531-0.524,3.317,0.371,4.741
			C408.39,63.281,410.034,64.465,411.873,63.916z"/>
		<path style="clip-path:url(#SVGID_00000111176826987436470650000004534113047308898207_);fill:#FFFFFF;" d="M633.663,180.03
			c1.866,0.302,3.679-0.43,4.983-1.773c1.312-1.351,2.221-3.329,2.01-5.239c-0.203-1.836-1.483-3.616-3.393-3.939
			c-1.001-0.169-2.011,0.093-2.929,0.575c-1.01,0.326-1.935,1.015-2.668,1.853c-1.257,1.438-2.178,3.377-1.68,5.317
			C630.421,178.517,631.969,179.756,633.663,180.03z M637.419,171.916c-0.006-0.038-0.011-0.077-0.02-0.114
			c0.014,0.009,0.028,0.019,0.042,0.029c0.015,0.015,0.043,0.041,0.064,0.06C637.476,171.899,637.447,171.907,637.419,171.916z"/>
		<path style="clip-path:url(#SVGID_00000111176826987436470650000004534113047308898207_);fill:#FFFFFF;" d="M452.551,467.343
			c1.515,0.245,2.987-0.349,4.045-1.439c1.065-1.097,1.803-2.702,1.631-4.252c-0.165-1.49-1.204-2.935-2.754-3.197
			c-0.813-0.138-1.632,0.076-2.377,0.467c-0.82,0.265-1.571,0.824-2.165,1.504c-1.02,1.167-1.768,2.742-1.364,4.316
			C449.92,466.115,451.176,467.121,452.551,467.343z M455.6,460.757c-0.005-0.031-0.009-0.062-0.016-0.092
			c0.012,0.008,0.022,0.015,0.034,0.023c0.012,0.012,0.035,0.033,0.052,0.049C455.646,460.743,455.623,460.75,455.6,460.757z"/>
		<path style="clip-path:url(#SVGID_00000111176826987436470650000004534113047308898207_);fill:#FFFFFF;" d="M387.537,132.488
			c3.054,0.494,6.021-0.704,8.155-2.901c2.147-2.211,3.635-5.447,3.289-8.573c-0.332-3.005-2.427-5.917-5.553-6.446
			c-1.638-0.277-3.29,0.153-4.793,0.941c-1.654,0.534-3.167,1.661-4.365,3.033c-2.056,2.352-3.564,5.527-2.749,8.701
			C382.232,130.012,384.764,132.039,387.537,132.488z M393.682,119.21c-0.01-0.063-0.018-0.126-0.033-0.186
			c0.023,0.015,0.045,0.031,0.068,0.047c0.024,0.024,0.071,0.066,0.105,0.098C393.775,119.182,393.729,119.195,393.682,119.21z"/>
		<path style="clip-path:url(#SVGID_00000111176826987436470650000004534113047308898207_);fill:#FFFFFF;" d="M202.669,444.817
			c3.001,0.485,5.916-0.691,8.013-2.851c2.11-2.173,3.572-5.353,3.232-8.424c-0.327-2.953-2.385-5.814-5.456-6.334
			c-1.61-0.272-3.233,0.15-4.709,0.925c-1.625,0.524-3.112,1.633-4.289,2.98c-2.021,2.312-3.502,5.431-2.701,8.55
			C197.456,442.384,199.944,444.377,202.669,444.817z M208.707,431.771c-0.01-0.061-0.017-0.124-0.032-0.183
			c0.023,0.015,0.044,0.03,0.067,0.046c0.024,0.024,0.07,0.065,0.103,0.096C208.799,431.743,208.753,431.756,208.707,431.771z"/>
		<path style="clip-path:url(#SVGID_00000111176826987436470650000004534113047308898207_);fill:#474744;" d="M323.922,35.366
			c-0.851-0.946-1.971-1.667-3.191-2.09c0.007-0.044,0.02-0.082,0.023-0.129c1.554-19.241,3.25-39.546-3.545-58.05
			c-1.416-3.857-3.739-6.52-8.072-6.733c-2.405-0.118-4.847,0.263-7.233,0.525c-2.628,0.288-5.253,0.612-7.875,0.952
			c-10.04,1.301-20.059,2.847-30.165,3.556c-4.939,0.347-9.877,0.162-14.812,0.412c-4.184,0.212-7.848,1.749-10.811,4.735
			c-3.081,3.106-4.697,7.244-5.746,11.415c-1.189,4.729-2.051,9.564-2.94,14.357c-0.918,4.951-1.754,9.918-2.506,14.897
			c-0.656,4.341-1.427,8.734-1.702,13.127c-0.802,0.138-1.587,0.418-2.334,0.848c-3.326,1.917-5.284,6.693-3.623,10.283
			c1.684,3.64,6.09,5.444,9.798,3.679c0.214-0.102,0.418-0.215,0.617-0.334c0.254-0.033,0.508-0.113,0.741-0.25
			c2.375-1.392,3.444-4.098,3.313-6.747c0.668-0.459,1.308-0.95,1.915-1.383c1.892-1.346,3.723-2.776,5.533-4.229
			c3.755-3.013,7.428-6.142,11.407-8.861c2.022-1.382,4.12-2.677,6.327-3.744c0.92-0.445,1.892-0.946,2.902-1.146
			c1.671-0.331,2.069,0.587,2.639,1.974c2.135,5.196,4.245,10.403,6.368,15.604c1.061,2.599,2.051,5.278,3.366,7.758
			c-1.368,0.685-2.542,1.763-3.389,3.1c-1.255,1.98-1.608,4.64-0.62,6.806c1.056,2.316,3.103,3.963,5.558,4.607
			c2.462,0.646,5.396,0.108,7.342-1.569c0.608-0.524,1.103-1.134,1.496-1.808c0.363-0.458,0.683-0.95,0.942-1.479
			c1.118-2.276,0.964-5.055-0.488-7.151c-0.607-0.876-1.38-1.535-2.249-2.028c3.6-7.095,5.939-14.772,9.516-21.893
			c1.072-2.134,2.252-4.226,3.621-6.185c0.97-1.389,3.116-4.379,5.163-3.438c0.901,0.414,1.447,1.574,1.961,2.369
			c0.746,1.154,1.476,2.318,2.19,3.492c1.423,2.342,2.781,4.724,4.07,7.142c1.159,2.173,2.053,5.179,3.928,6.859
			c0.013,0.012,0.028,0.019,0.041,0.03c-0.998,0.763-1.852,1.72-2.484,2.813c-1.324,2.289-1.292,5.061,0.333,7.187
			c1.5,1.962,3.723,3.77,6.267,4.006c1.402,0.13,2.754-0.23,3.887-0.947c2.157-0.71,3.523-2.844,4.108-5.016
			C326.194,40.161,325.693,37.336,323.922,35.366z M320.763,41.002c0.009-0.559-0.017-1.119-0.088-1.673
			c-0.058-0.449-0.126-0.913-0.251-1.351c0.022-0.044,0.041-0.09,0.063-0.133c0.621,1.298,0.824,3.205,0.57,4.636
			c-0.018,0.103-0.046,0.193-0.069,0.29C321.014,42.18,320.937,41.581,320.763,41.002z M243.235-21.169
			c3.865-2.348,8.665-1.628,12.98-1.711c9.453-0.183,18.85-1.351,28.209-2.604c4.808-0.644,9.612-1.313,14.428-1.89
			c2.186-0.262,4.374-0.506,6.566-0.717c2.014-0.194,4.577-0.642,6.348,0.609c1.815,1.282,2.442,4.097,3.08,6.09
			c0.471,1.471,0.879,2.963,1.257,4.462c-6.485,0.407-12.98,0.747-19.457,1.267c-6.65,0.534-13.21,2.095-19.797,3.113
			c-13.722,2.122-27.545,3.53-41.399,4.424c0.33-1.362,0.7-2.711,1.146-4.028C237.82-15.767,239.913-19.152,243.235-21.169z
			 M224.827,36.032c-0.042,0.082-0.076,0.168-0.115,0.253c-0.116,0.007-0.229,0.021-0.339,0.043c0.1-0.073,0.201-0.145,0.305-0.211
			C224.696,36.104,224.759,36.069,224.827,36.032z M281.276,50.609c0.046,0.103,0.103,0.225,0.118,0.259
			c0.063,0.146,0.121,0.295,0.182,0.442c-0.133,0.165-0.235,0.349-0.299,0.547c-0.04-0.356-0.09-0.711-0.159-1.064
			C281.169,50.731,281.223,50.67,281.276,50.609z M312.805,26.984c-1.268-2.428-2.604-4.82-4.006-7.173
			c-2.016-3.382-4.501-9.514-9.419-8.448c-4.285,0.929-6.85,5.787-8.795,9.291c-2.355,4.245-4.14,8.769-5.933,13.271
			c-1.521,3.819-3.073,7.627-4.963,11.27c-0.586-0.098-1.179-0.164-1.769-0.191c-0.082-0.004-0.16,0.008-0.241,0.007
			c-1.419-2.444-2.373-5.205-3.425-7.781c-1.831-4.487-3.663-8.975-5.494-13.462c-1.378-3.377-2.527-7.345-7.001-6.679
			c-3.711,0.553-7.428,3.117-10.479,5.165c-6.41,4.304-12.008,9.685-18.363,14.062c-0.806-1.562-2.081-2.893-3.736-3.55
			c-0.168-0.067-0.338-0.117-0.508-0.171c0.092-1.22,0.247-2.437,0.401-3.638c0.597-4.655,1.286-9.3,2.037-13.933
			c0.754-4.65,1.582-9.287,2.481-13.911c0.386-1.983,0.741-4,1.144-6.006c0.227,0.101,0.49,0.157,0.796,0.137
			c13.903-0.893,27.775-2.305,41.544-4.434c6.587-1.019,13.148-2.579,19.797-3.113c6.654-0.534,13.328-0.877,19.99-1.299
			c0.983,4.827,1.508,9.749,1.744,14.665c0.492,10.26-0.279,20.522-1.102,30.746c-0.352,0.038-0.704,0.186-1.016,0.492
			C315.549,33.224,313.157,27.658,312.805,26.984z"/>
		<g style="clip-path:url(#SVGID_00000111176826987436470650000004534113047308898207_);">
			<path style="fill:#474744;" d="M177.093,391.056c-2.234-7.425-6.782-13.728-11.796-19.53c-4.002-4.631-8.897-11.136-15.46-11.794
				c-0.465-0.621-1.258-0.983-2.065-0.759c-0.664,0.185-1.091,0.638-1.387,1.206c-0.162-0.221-0.307-0.449-0.479-0.664
				c-0.388-0.484-1.052-0.617-1.654-0.491c0.235-2.296,0.491-4.63,0.39-6.881c-0.1-2.22-1.558-4.21-3.959-4.031
				c-1.693,0.126-2.984,1.169-4.098,2.383c-0.429-0.319-0.856-0.638-1.3-0.938c0.876-2.924,1.751-5.847,2.627-8.771
				c0.317-1.058-0.583-2.453-1.777-2.332c-4.276,0.433-7.202,3.226-9.684,6.507c-0.629-0.253-1.269-0.481-1.906-0.715
				c0.62-2.276,1.24-4.553,1.86-6.829c0.322-1.18-0.584-2.3-1.777-2.332c-4.24-0.115-7.236,2.973-9.454,6.26
				c-0.586-0.155-1.177-0.317-1.756-0.465c-0.931-0.239-1.869-0.448-2.806-0.658c0.145-1.367,0.289-2.735,0.434-4.102
				c0.06-0.569-0.381-1.362-0.912-1.591c-3.77-1.625-6.298,1.279-8.24,4.204c-2.288-0.257-4.584-0.394-6.882-0.423
				c0.233-0.973,0.469-1.946,0.694-2.919c0.354-1.53-1.279-2.929-2.706-2.081c-2.424,1.441-4.501,3.233-6.417,5.19
				c-0.392,0.108-0.776,0.234-1.163,0.355c0.32-1.349-1.129-2.994-2.708-2.098c-3.7,2.1-6.898,5.034-9.29,8.546
				c-2.397,1.961-4.524,4.223-6.292,6.731c-0.046-0.017-0.085-0.04-0.134-0.054c-1.74-0.507-3.448,0.024-4.782,1.094
				c-0.378-0.087-0.796-0.063-1.226,0.135c-14.819,6.8-27.559,17.578-36.852,30.96c-1.013,1.459,1.057,3.643,2.521,2.521
				c0.362-0.277,0.723-0.554,1.085-0.832c0.522-0.4,0.744-0.94,0.764-1.479c6.91-9.463,15.692-17.418,25.71-23.426
				c-8.614,8.435-16.212,17.876-22.629,28.09c-0.834,1.327,0.556,3.209,2.08,2.706c0.829-0.273,1.43-0.692,1.848-1.474
				c0.159-0.297,0.223-0.587,0.227-0.864c4.629-7.176,9.858-13.927,15.628-20.199c-4.329,6.905-8.441,13.944-12.315,21.115
				c-1.127,2.086,2.053,3.949,3.182,1.86c4.305-7.968,8.907-15.768,13.771-23.405c-2.957,7.244-5.961,14.469-9.038,21.663
				c-0.394,0.922-0.267,1.965,0.661,2.521c0.771,0.462,2.13,0.253,2.521-0.661c3.208-7.5,6.342-15.031,9.425-22.583
				c0.234,0.203,0.51,0.36,0.838,0.451c0.379,0.104,0.775,0.101,1.148,0.007c0.011,0.412-0.007,0.817,0.021,1.233
				c1.111,15.978,14.973,27.552,29.919,30.575c1.831,0.37,3.712,0.646,5.62,0.834c-0.791,4.735-0.828,9.382-0.51,14.173
				c0.053,0.791,0.066,1.578,0.088,2.366c-3.785-2.262-7.99-3.746-12.222-4.976c-5.802-1.687-11.655-3.212-17.483-4.808
				c-1.705-0.467-3.206,1.827-1.792,3.079c0.234,0.208,0.469,0.415,0.703,0.623c0.611,0.541,1.319,0.579,1.916,0.341
				c5.056,1.375,10.121,2.724,15.158,4.168c4.835,1.385,9.568,3.056,13.712,5.951c-0.093,2.534-0.306,5.063-0.62,7.603
				c-1.147,9.299-2.959,18.588-1.05,27.915c-8.017,18.216-14.837,36.935-20.364,56.056c-0.66,2.282,2.895,3.257,3.553,0.98
				c5.26-18.197,11.681-36.045,19.233-53.415c5.742,10.655,10.555,21.784,14.308,33.296c1.941,5.954,3.749,12.035,5.007,18.174
				c0.223,1.089,0.214,2.318,1.074,3.146c0.763,0.734,1.912,0.975,2.868,0.517c1.948-0.935,1.357-3.22-0.234-3.932
				c-0.003-0.018-0.005-0.035-0.007-0.052c-0.118-0.658-0.297-1.319-0.449-1.97c-0.28-1.203-0.572-2.402-0.874-3.6
				c-0.632-2.503-1.312-4.994-2.038-7.472c-1.421-4.847-3.025-9.641-4.803-14.369c-3.574-9.503-7.842-18.734-12.757-27.617
				c-0.252-0.455-0.603-0.712-0.983-0.828c-1.788-8.903,0.105-17.958,1.201-26.828c0.285-2.304,0.504-4.611,0.617-6.922
				c3.179,0.206,6.227-1.059,9.182-2.081c3.276-1.133,6.539-2.304,9.788-3.511c6.536-2.429,13.011-5.016,19.434-7.729
				c2.177-0.919,0.301-4.094-1.86-3.182c-6.13,2.589-12.317,5.04-18.554,7.358c-3.025,1.124-6.062,2.216-9.11,3.276
				c-2.815,0.979-5.78,2.342-8.812,2.185c-0.008-0.896-0.022-1.792-0.075-2.69c-0.296-4.969-0.502-9.775,0.374-14.707
				c0.017-0.096,0.018-0.185,0.022-0.276c12.944,0.468,26.72-3.257,36.051-11.991c4.761-4.456,7.977-10.563,9.061-16.889
				c2.13,7.861,4.358,15.695,6.724,23.488c0.687,2.263,4.245,1.298,3.553-0.98c-2.293-7.552-4.452-15.144-6.523-22.76
				c0.024-0.069,0.071-0.129,0.083-0.201c4.861,7.523,8.966,15.521,12.178,23.892c0.839,2.188,4.063,1.376,3.553-0.98
				c-0.083-0.382-0.165-0.764-0.248-1.145c-0.101-0.466-0.328-0.792-0.618-1.008c-3.948-9.794-9-19.09-15.132-27.692
				c-0.02-0.086-0.034-0.173-0.055-0.258c1.449,0.982,2.738,2.17,3.955,3.478c2.033,2.185,3.951,4.486,5.848,6.789
				c3.88,4.711,7.545,9.591,11.014,14.612c0.665,0.963,1.789,0.992,2.585,0.538c0.545,0.581,1.244,1.032,2.039,1.365
				C176.151,393.877,177.461,392.281,177.093,391.056z M140.322,352.06c0.559-0.27,0.463-0.439,0.633,0.081
				c0.188,0.573,0.022,1.513-0.084,2.244c-0.456-0.533-0.939-1.053-1.458-1.554c0.024-0.025,0.046-0.052,0.071-0.077
				C139.731,352.509,140.004,352.214,140.322,352.06z M134.21,353.331c-0.031,0.037-0.061,0.075-0.092,0.112
				c0.015-0.049,0.029-0.098,0.044-0.147C134.178,353.308,134.194,353.32,134.21,353.331z M133.361,343.127
				c-0.445,1.487-0.891,2.974-1.336,4.46c-0.706-0.384-1.41-0.771-2.139-1.121C130.884,345.174,132.022,343.95,133.361,343.127z
				 M124.186,348.079c-0.377,0.534-0.752,1.07-1.125,1.608c0.168-0.616,0.336-1.233,0.504-1.849
				C123.772,347.917,123.98,347.997,124.186,348.079z M122.045,339.395c-0.332,1.217-0.663,2.435-0.995,3.652
				c-0.725-0.23-1.447-0.454-2.172-0.667C119.773,341.149,120.808,340.049,122.045,339.395z M113.157,344.588
				c-1.224,1.996-2.446,3.994-3.643,6.008c0.236-2.235,0.473-4.47,0.709-6.704C111.2,344.111,112.177,344.343,113.157,344.588z
				 M107.168,337.937c-0.055,0.52-0.11,1.039-0.165,1.559c-0.369-0.066-0.735-0.147-1.104-0.208
				C106.291,338.75,106.729,338.243,107.168,337.937z M99.694,342.192c-2.187,3.458-4.375,6.916-6.562,10.374
				c-0.692-1.772-0.414-3.944-0.039-5.816c0.321-1.603,0.691-3.198,1.065-4.792C96.005,341.955,97.852,342.03,99.694,342.192z
				 M73.467,353.703c0.437-1.84,1.297-3.59,2.268-5.208c0.235-0.392,0.521-0.743,0.777-1.119c1.576-1.178,3.267-2.201,5.039-3.069
				c-1.677,2.103-3.325,4.237-5.085,6.262c-0.616,0.709-1.248,1.406-1.903,2.079c-0.342,0.352-0.769,0.705-1.098,1.081
				C73.467,353.721,73.465,353.712,73.467,353.703z M64.956,355.639c-1.605,3.066-2.722,6.39-3.186,9.913
				c-0.002-0.016-0.008-0.031-0.01-0.047c-0.076-0.605-0.071-1.234-0.039-1.842c0.069-1.334,0.39-2.643,0.793-3.913
				c0.361-1.138,0.753-2.404,1.509-3.352C64.285,356.067,64.581,355.821,64.956,355.639z M137.675,384.614
				c-8.528,11.632-25.09,15.484-38.766,14.652c-13.992-0.851-28.554-8.529-32.711-22.771c-2.176-7.455-0.616-15.544,3.592-21.989
				c0.19,1.859,1.419,3.58,3.517,3.349c2.307-0.254,4.158-2.846,5.58-4.468c1.683-1.919,3.242-3.941,4.819-5.946
				c1.378-1.752,2.783-3.497,4.287-5.141c0.766-0.086,1.533-0.167,2.301-0.22c-0.437,1.895-0.834,3.796-1.082,5.707
				c-0.435,3.345-0.113,7.111,2.737,9.339c0.946,0.739,2.2,0.723,2.894-0.373c2.212-3.497,4.425-6.995,6.637-10.492
				c0.756-1.195,1.512-2.391,2.269-3.586c0.96,0.141,1.916,0.299,2.87,0.476c-0.55,5.199-1.1,10.397-1.649,15.596
				c-0.201,1.904,2.559,2.386,3.433,0.93c2.652-4.416,5.304-8.832,7.956-13.248c0.162-0.27,0.331-0.558,0.502-0.851
				c1.082,0.314,2.157,0.653,3.227,1.008c-1.154,4.236-2.308,8.472-3.462,12.708c-0.57,2.093,2.213,3.094,3.367,1.42
				c2.562-3.716,5.12-7.433,7.685-11.146c0.903,0.421,1.793,0.861,2.665,1.325c0.201,0.107,0.396,0.221,0.594,0.331
				c-0.993,3.316-1.987,6.632-2.98,9.948c-0.503,1.679,1.883,3.247,3.079,1.793c1.956-2.378,3.833-4.949,5.85-7.343
				c1.397,1.385,2.598,2.931,3.537,4.654c-0.035,0.484-0.069,0.968-0.103,1.452c-0.077,1.079,0.648,1.658,1.475,1.751
				c0.261,0.822,0.469,1.677,0.617,2.566C143.486,372.493,141.506,379.388,137.675,384.614z M161.794,374.201
				c-2.576-3.128-5.249-6.701-8.495-9.378c1.009,0.625,1.951,1.392,2.833,2.215c2.471,2.304,4.697,4.919,6.894,7.48
				c3.318,3.871,6.413,8.012,8.602,12.608C168.492,382.712,165.236,378.381,161.794,374.201z"/>
			<path style="fill:#474744;" d="M82.872,363.992c-1.758-0.797-3.716-0.983-5.522-0.223c-1.795,0.756-3.049,2.227-4.128,3.799
				c-1.357,1.977-2.588,4.206-1.436,6.58c0.434,0.895,1.709,1.135,2.521,0.661c0.91-0.532,1.092-1.611,0.665-2.507
				c0,0,0-0.004,0-0.004c0.036,0.096,0.032,0.07-0.001-0.042c0-0.029,0.001-0.053-0.003-0.134c0.027-0.162,0.01-0.151-0.002-0.13
				c0.009-0.018,0.025-0.053,0.06-0.142c0.154-0.387,0.219-0.591,0.489-1.05c0.407-0.694,0.864-1.38,1.354-2.019
				c0.048-0.054,0.238-0.286,0.268-0.321c0.142-0.162,0.288-0.321,0.442-0.472c0.131-0.129,0.266-0.251,0.404-0.371
				c0.168-0.139,0.187-0.154,0.057-0.045c0.074-0.053,0.149-0.103,0.226-0.15c0.616-0.388,1.032-0.486,1.658-0.468
				c0.065,0.002,0.235,0.02,0.289,0.023c0.197,0.036,0.393,0.079,0.585,0.137c0.045,0.014,0.25,0.088,0.3,0.102
				c0.131,0.06,0.26,0.123,0.385,0.193c0.612,0.342,1.051,0.75,1.394,1.288c0.452,0.709,0.597,1.106,0.779,2.008
				c0.02,0.1,0.037,0.201,0.053,0.303c0.001,0.015,0.001,0.017,0.005,0.056c0.02,0.222,0.035,0.445,0.039,0.668
				c0.004,0.191,0.001,0.383-0.007,0.574c-0.003,0.066-0.068,0.769-0.025,0.459c-0.131,0.95,0.229,2.026,1.287,2.266
				c0.867,0.197,2.126-0.266,2.266-1.287C87.793,369.978,86.612,365.689,82.872,363.992z M74.969,372.294
				c-0.001-0.002-0.001-0.003-0.001-0.005c0.001,0.002,0,0,0.001,0.002C74.969,372.292,74.969,372.294,74.969,372.294z"/>
			<path style="fill:#474744;" d="M132.71,367.87c-1.405-1.139-3.158-1.535-4.918-1.064c-1.639,0.439-2.954,1.509-3.956,2.842
				c-1.07,1.423-1.641,3.172-2.186,4.846c-0.299,0.917,0.348,2.052,1.287,2.266c1.011,0.23,1.947-0.305,2.266-1.287
				c0.134-0.413,0.269-0.826,0.414-1.235c0.055-0.154,0.11-0.307,0.168-0.46c0.016-0.042,0.126-0.308,0.162-0.401
				c0.141-0.315,0.288-0.627,0.457-0.928c0.105-0.187,0.216-0.37,0.335-0.549c0.022-0.034,0.101-0.142,0.148-0.208
				c0.206-0.251,0.433-0.474,0.665-0.701c0.039-0.032,0.036-0.031,0.055-0.047c0.052-0.037,0.103-0.074,0.156-0.109
				c0.163-0.108,0.332-0.207,0.506-0.296c0.05-0.026,0.176-0.071,0.237-0.093c0.134-0.044,0.267-0.09,0.405-0.122
				c0.066-0.015,0.132-0.027,0.199-0.039c0.144-0.015,0.333,0.007,0.435,0.007c0.007,0,0.008,0,0.014-0.001
				c0.026,0.009,0.065,0.021,0.122,0.036c0.069,0.017,0.138,0.037,0.206,0.06c0.091,0.033,0.124,0.045,0.125,0.044
				c0.052,0.028,0.102,0.057,0.152,0.09c-0.01-0.007,0,0.002,0.047,0.042c0.053,0.044,0.104,0.09,0.154,0.138
				c0.049,0.046,0.233,0.263,0.26,0.281c0.062,0.09,0.126,0.18,0.182,0.274c0.058,0.098,0.162,0.246,0.204,0.371
				c0.004,0.011,0.002,0.005,0.007,0.018c0.033,0.089,0.064,0.178,0.093,0.268c0.043,0.135,0.08,0.272,0.113,0.41
				c0.01,0.042,0.049,0.306,0.064,0.375c0.035,0.4,0.045,0.801,0.024,1.202c-0.013,0.246-0.036,0.491-0.063,0.736
				c-0.005,0.047-0.007,0.07-0.01,0.1c-0.006,0.032-0.014,0.077-0.026,0.146c-0.084,0.488-0.174,0.975-0.27,1.461
				c-0.186,0.943,0.268,2.034,1.287,2.266c0.914,0.208,2.066-0.276,2.266-1.287c0.371-1.876,0.674-3.729,0.35-5.634
				C134.604,370.27,133.837,368.785,132.71,367.87z M129.838,370.36c0.03,0,0.097,0.031,0.169,0.068
				C129.991,370.422,129.943,370.402,129.838,370.36z M130.166,370.523c0.069,0.046,0.13,0.091,0.147,0.117
				C130.231,370.574,130.185,370.538,130.166,370.523z"/>
			<path style="fill:#474744;" d="M112.803,380.076c-0.891-0.245-2.091,0.302-2.266,1.287c-0.701,3.943-3.047,7.503-6.573,9.473
				c-0.739,0.413-1.822,0.943-2.667,0.546c-0.717-0.338-1.334-1.088-1.815-1.696c-1.217-1.539-1.956-3.404-2.3-5.322
				c-0.384-2.14-0.085-4.363,0.74-6.41c0.372-0.923-0.405-2.024-1.287-2.266c-1.051-0.289-1.893,0.36-2.266,1.287
				c-1.899,4.717-1.111,10.503,1.932,14.572c0.812,1.086,1.737,2.165,2.908,2.879c1.354,0.826,2.997,0.932,4.503,0.501
				c2.557-0.731,4.916-2.627,6.595-4.645c1.903-2.287,3.26-4.998,3.783-7.939C114.264,381.364,113.825,380.357,112.803,380.076z"/>
		</g>
	</g>
</g>
</svg>
