<svg width="595" height="620" xmlns="http://www.w3.org/2000/svg" xml:space="preserve" enable-background="new 0 0 1024 1024" version="1.1">

 <g>
  <title>Layer 1</title>
  <path id="svg_1" d="m427.05887,34.06469c30.39026,16.43528 56.27294,37.86948 79.14642,63.17978c27.39587,30.31446 46.24274,65.20529 58.24518,104.1847c6.58685,21.39175 11.22094,43.10794 13.02307,65.28775c1.27783,15.72711 0.96124,31.63607 -0.70252,47.41391c-2.62304,24.87549 -7.04602,49.41693 -16.39208,72.71124c-2.29236,5.71362 -1.36487,10.64172 -0.23041,15.81488c7.97564,36.36737 16.11676,72.69843 24.2312,109.03534c3.32904,14.90729 6.76599,29.79059 10.07208,44.70294c2.11609,9.54468 -2.07361,14.47021 -12.20666,14.46375c-68.32111,-0.04322 -136.64338,0.07849 -204.96192,-0.36908c-8.91424,-0.05835 -14.50189,3.52526 -19.23224,10.00488c-2.94403,4.03271 -5.71728,8.19287 -8.49163,12.34625c-24.15473,36.16058 -79.25803,36.03442 -104.41773,2.56854c-5.19693,-6.91265 -9.90857,-14.20849 -15.83948,-20.57733c-2.54739,-2.73535 -5.28622,-4.05578 -9.1532,-4.04962c-67.98748,0.10901 -135.97516,0.09577 -203.96281,0.11005c-0.83316,0.00018 -1.66629,0.01642 -2.49947,0.01983c-11.43158,0.04633 -15.28295,-4.36383 -13.10582,-15.49285c2.07358,-10.59961 4.44977,-21.14039 6.72335,-31.70045c8.91879,-41.4251 17.84954,-82.84753 26.7762,-124.27093c0.87715,-4.07043 -0.01238,-7.89008 -1.41524,-11.71887c-9.10881,-24.86035 -13.394,-50.65735 -15.50823,-76.97339c-2.88742,-35.94019 0.6941,-71.20474 11.22143,-105.55826c9.30014,-30.34888 22.30484,-58.93573 41.04583,-85.04147c24.69205,-34.39539 54.46106,-62.97818 91.23517,-83.73468c27.51972,-15.53302 56.94989,-26.54161 88.25961,-32.25437c20.77457,-3.79051 41.68921,-4.96531 62.6308,-3.64611c26.85297,1.69157 52.90851,7.80201 78.16785,17.12887c12.65832,4.67401 25.13702,9.77707 37.34125,16.4147m-389.59076,457.28556c1.54022,0.38373 2.93167,-0.13751 4.3432,-0.66132c22.31204,-8.27917 45.58923,-12.61987 69.13208,-14.09552c22.36142,-1.40149 44.85574,-1.16333 67.08035,3.65424c40.24271,8.72314 76.32907,24.53387 102.57486,57.8872c1.60559,2.04041 3.36966,2.44672 5.66745,1.93439c7.08646,-1.58008 14.2944,-1 21.38126,-0.49194c3.41296,0.24469 5.02087,-0.58686 6.89709,-3.14819c8.23908,-11.24805 18.04199,-20.97815 29.83923,-28.47468c32.55762,-20.68878 68.5655,-30.59771 106.75135,-32.19622c32.30194,-1.35224 64.01446,3.28546 94.89703,13.14471c3.52338,1.12488 6.97986,2.8711 11.73077,2.69629c-1.8529,-7.19806 -3.54791,-13.90338 -5.3211,-20.58801c-0.45648,-1.72071 -2.09302,-1.92786 -3.53369,-2.37165c-20.00769,-6.1629 -40.47168,-9.40106 -61.40753,-9.68859c-15.49738,-0.21283 -30.98706,0.09918 -46.36597,2.07c-18.67938,2.39368 -37.14826,5.83844 -54.64099,13.2251c-3.60529,1.52234 -7.13831,3.28027 -11.28778,3.45581c9.55041,-7.66083 20.05475,-13.72931 31.01422,-19.00226c45.52887,-21.90521 92.83587,-21.27661 141.39117,-10.63147c-1.34478,-8.37774 -3.68255,-16.12719 -5.77874,-23.92865c-0.44166,-1.64361 -1.6189,-2.48462 -3.32062,-2.49054c-6.96778,-0.02417 -13.91028,-0.04419 -20.85083,-1.10028c-6.60547,-1.00512 -13.19513,0.534 -19.79267,0.98639c-6.96301,0.47754 -13.92968,0.47992 -20.90765,1.24152c-29.0722,3.17303 -56.84528,10.57495 -83.05969,23.73956c-27.29309,13.70642 -51.05597,31.78937 -70.36255,55.5669c-0.67639,0.833 -1.30554,2.07928 -2.98895,0.99389c0.20513,-0.73987 0.28051,-1.58044 0.64996,-2.26135c10.41174,-19.18982 23.30078,-36.3418 40.2558,-50.37122c35.15881,-29.09204 76.41607,-42.3161 120.98687,-47.0863c15.92395,-1.70429 31.92121,-1.74542 47.91163,-1.70074c3.82672,0.01074 5.43042,-0.80896 4.23895,-5.2511c-3.87964,-14.46503 -7.39087,-29.02997 -10.94592,-43.58045c-1.85547,-7.59442 -1.99067,-7.7832 -9.68476,-6.52667c-16.24481,2.65295 -32.4469,5.48004 -48.40887,9.607c-31.42951,8.12597 -60.90393,20.64831 -87.0362,40.02984c-43.90417,32.5625 -70.75109,75.69147 -78.88043,130.09674c-0.34088,2.28137 0.13318,5.34583 -2.66333,6.92426c-2.14386,-1.76386 -2.14721,-4.02619 -2.50128,-6.10504c-9.35089,-54.90192 -35.16995,-99.6529 -81.32251,-131.8349c-20.62988,-14.38508 -43.06772,-25.14869 -66.74835,-33.55066c-21.30857,-7.56049 -43.49976,-10.92109 -65.60828,-14.7901c-8.97836,-1.57123 -9.83334,-0.98194 -11.87423,7.8305c-3.04062,13.12933 -6.16208,26.24072 -9.36091,39.3324c-1.90255,7.78656 -1.99722,7.8736 6.24555,7.75012c30.92926,-0.46319 61.48657,2.07837 91.3453,10.74957c49.71613,14.43793 89.70011,41.57013 114.98679,87.92682c0.5574,1.02192 1.73706,2.0614 0.70847,3.48615c-1.54276,-0.30445 -2.25412,-1.53638 -3.05616,-2.53919c-6.59317,-8.24371 -14.41619,-15.20788 -22.45532,-21.98059c-26.08066,-21.97223 -55.31833,-38.20154 -88.02408,-47.88135c-33.18362,-9.82116 -67.2904,-11.30902 -101.61013,-10.22802c-2.26627,0.07141 -5.55683,-0.19348 -6.14722,2.29333c-1.85483,7.8125 -4.51395,15.53784 -4.61533,24.51105c29.64755,-7.28125 59.05612,-8.80579 88.64994,-4.63648c29.78457,4.19611 56.08377,16.74836 81.39529,33.82691c-2.92059,1.43085 -4.08093,0.10315 -5.35202,-0.4837c-16.62302,-7.67438 -34.30731,-11.97217 -52.24026,-14.4029c-21.40027,-2.90069 -42.95386,-3.97027 -64.69077,-2.69012c-16.61841,0.97876 -32.6474,4.00555 -48.60111,8.21594c-2.02328,0.534 -4.13659,1.10578 -4.72241,3.20837c-1.82061,6.53431 -4.36792,12.93018 -3.90597,20.3852m302.35174,-197.09214c4.88184,-2.8619 9.63898,-5.96835 14.67169,-8.53436c10.2356,-5.21884 20.76398,-9.83093 31.84272,-12.96658c4.84155,-1.37033 9.80627,0.9107 12.09533,4.85867c2.49012,4.29444 1.13172,8.08472 -1.75232,11.46274c-2.02551,2.37238 -5.14727,2.86954 -7.96252,3.88617c-30.04565,10.84985 -55.33032,28.18103 -73.86597,54.59668c-3.65295,5.20581 -3.35791,6.20355 2.55146,8.6225c14.44604,5.91339 29.46997,5.85571 44.6809,4.29797c30.96308,-3.1709 55.28864,-18.14178 74.21271,-42.18591c15.10193,-19.18793 22.11932,-41.79099 26.03681,-65.57425c4.55291,-27.64105 10.04919,-55.03348 24.70751,-79.54071c2.17023,-3.62836 0.7295,-5.30786 -2.79406,-5.89212c-3.59509,-0.59613 -7.23474,-1.04764 -10.87213,-1.2453c-35.1872,-1.91263 -68.57825,4.73092 -99.51319,21.87665c-28.75183,15.93575 -49.66424,38.88656 -60.0816,70.47222c-6.29035,19.07258 -6.98902,38.83466 -5.80426,58.71497c0.04816,0.80768 0.16937,1.66144 1.65796,2.11115c8.35223,-9.74427 18.39013,-17.865 30.18896,-24.96049m-120.44952,-48.95077c27.03604,15.44461 48.35861,36.88007 65.74527,64.24194c0.98843,-20.18744 0.65665,-38.53909 -6.39618,-56.12832c-8.2522,-20.58045 -21.45956,-37.3635 -38.57993,-51.33338c-23.06735,-18.82251 -49.47561,-29.91739 -78.76776,-33.9714c-16.47479,-2.28012 -33.10464,-3.01404 -49.76636,-1.27875c-5.95535,0.62027 -6.95211,1.74423 -4.11621,7.01721c6.09729,11.3371 10.8815,23.17694 14.55298,35.51618c5.84424,19.64141 8.4577,39.96454 12.89395,59.90271c6.45951,29.03112 20.38062,53.19921 44.49778,71.19867c22.79379,17.01171 48.72839,22.15161 76.39407,20.52838c7.41446,-0.43494 14.86118,-1.73737 21.89127,-4.60803c3.76159,-1.53608 4.67236,-3.93818 2.8876,-7.49335c-2.09226,-4.16767 -4.17349,-8.34095 -6.28861,-12.49701c-0.93112,-1.82953 -2.03231,-3.34888 -4.4403,-3.47321c-8.80454,-0.45489 -17.4961,-2.02942 -26.25193,-2.86474c-11.4118,-1.08869 -21.72662,-4.80188 -31.11212,-11.18946c-2.82232,-1.92083 -5.68258,-4.04052 -6.87781,-8.01379c19.21451,-11.90082 37.21125,-5.71057 55.19892,3.2273c-19.29211,-30.85358 -46.61386,-51.37726 -80.20413,-63.91486c-6.97861,-2.60474 -10.34491,-6.35962 -9.21253,-11.99545c1.10388,-5.49417 6.12326,-8.61435 13.05097,-7.96219c1.63192,0.15359 3.26828,0.61786 4.82431,1.16275c10.24161,3.58642 20.10885,7.99896 30.07675,13.9288m66.52624,-40.51923c0.12436,-2.65905 0.35373,-5.31796 0.35657,-7.97717c0.02457,-22.99713 -0.03958,-45.99445 0.03122,-68.99136c0.02371,-7.7031 5.35892,-12.63342 12.2695,-11.67762c6.02356,0.83317 9.36237,5.02527 9.37415,12.11924c0.039,23.49698 -0.01526,46.99411 0.04126,70.49099c0.00494,2.05311 -0.73914,4.37327 1.16308,6.10785c1.85401,0.38987 3.3208,-0.5039 4.68323,-1.39639c20.56836,-13.47384 32.36987,-32.76401 36.37738,-56.70001c3.32477,-19.85873 0.09277,-39.00443 -7.84222,-57.54202c-9.94672,-23.23761 -23.76508,-43.88239 -40.54962,-62.63094c-4.16163,-4.64856 -5.03596,-4.53354 -9.45026,0.16432c-14.82721,15.77951 -26.87317,33.49533 -36.46982,52.87613c-9.96515,20.12497 -16.31409,40.86441 -12.95071,63.8663c3.30902,22.63028 12.82623,41.48676 30.97574,55.60202c3.48602,2.71116 6.74395,6.32257 11.9905,5.68866m-95.73104,324.52484c2.56793,0.68628 5.14468,1.34138 7.70233,2.06403c16.96118,4.79205 33.03091,11.40247 46.65402,22.97339c9.05063,7.6872 8.97333,7.63159 16.49994,-1.54852c1.94439,-2.37152 2.08505,-3.98737 -0.00311,-6.37342c-6.84012,-7.81585 -14.44709,-14.75543 -22.98093,-20.63507c-39.87357,-27.47253 -84.62787,-33.2539 -131.51569,-29.41809c-22.86532,1.87048 -44.81979,7.77545 -66.55804,14.79401c-5.25742,1.69745 -8.67578,4.05707 -9.44284,9.93432c-0.62015,4.75184 -2.19284,9.37519 -3.2605,14.07428c-0.79398,3.49445 0.38722,4.58783 3.98643,3.51355c30.08007,-8.97778 60.85045,-13.80328 92.19173,-15.18158c22.21991,-0.97705 44.21622,0.50538 66.72666,5.8031m269.9523,-6.05151c36.12036,-0.13055 71.12787,7.42499 106.3125,16.28821c0.11077,-1.69873 0.34796,-2.5296 0.18432,-3.2721c-1.28692,-5.83764 -2.77289,-11.63391 -3.94446,-17.49359c-0.70031,-3.50244 -2.5299,-5.42236 -5.95514,-6.50384c-34.72857,-10.96533 -69.7976,-18.95825 -106.71142,-16.7406c-17.24402,1.03607 -34.08405,3.18878 -50.50421,8.43408c-24.95746,7.97253 -47.65503,19.69 -65.16284,39.85931c-1.48706,1.71314 -3.41663,3.18012 -3.63062,6.03028c4.26819,2.78918 6.48608,7.63012 10.3775,11.28747c9.1167,-10.86181 20.4375,-17.97088 33.12879,-23.06256c27.25342,-10.93377 55.67004,-15.23279 85.90558,-14.82666m-135.09205,60.19837c0.43659,-1.17695 0.10218,-2.25147 -0.31475,-3.37592c-4.06653,-10.96668 -11.27643,-18.58234 -23.25959,-19.96094c-13.93045,-1.6026 -24.47134,3.70581 -31.3132,16.43628c-2.55575,4.75531 -1.84146,7.88343 1.76935,11.31513c14.70923,13.97924 40.20267,12.20489 53.11819,-4.41455m-153.97582,-456.97077c2.83032,-2.9295 7.28274,-2.96158 10.70895,-5.84381c-4.40149,-2.81424 -9.18579,-4.32245 -12.60986,-8.16794c-3.41175,-3.83163 -3.32386,-9.40738 -7.09229,-13.99063c-1.91366,5.82901 -3.44254,10.63651 -6.78448,14.72586c-3.38447,4.14142 -8.83716,4.51221 -13.47553,7.71512c5.26355,2.23151 10.01114,3.45868 13.74838,7.13156c3.73343,3.66919 3.19199,9.50147 7.37305,13.78037c2.62576,-5.5885 3.63779,-11.0311 8.13178,-15.35053m249.16174,-7.79458c-1.3581,0.45343 -3.05237,0.41247 -3.58295,2.93856c8.33002,1.44535 12.59833,7.7663 16.54901,16.48401c3.04865,-9.16165 7.52936,-14.77661 15.83924,-17.32193c-7.89154,-3.3829 -12.82019,-8.97342 -15.83295,-17.03613c-2.65576,6.55856 -5.78705,12.11447 -12.97235,14.93549m87.7749,100.28677c-0.59137,0.75912 -0.68512,1.72046 0.05457,2.21756c4.16266,2.79758 7.14837,6.53195 8.74676,12.91562c3.50641,-6.72809 6.2464,-11.91922 12.86414,-13.62601c-6.25464,-1.75525 -8.50299,-7.64151 -12.99652,-11.93106c-2.34418,4.27914 -4.56403,7.77905 -8.66895,10.42389m-430.39902,12.60059c2.46906,-5.18366 5.95633,-9.3566 11.94751,-11.46543c-6.28763,-1.65689 -9.3732,-6.3818 -13.07846,-11.35757c-1.40878,5.71191 -6.81631,7.71826 -9.97851,12.5383c5.73422,1.81497 6.98694,7.20379 11.10946,10.2847m124.45914,-148.90543c0.91272,1.04648 0.80362,3.01688 3.14246,3.14184c1.64114,-3.81149 4.99963,-6.49548 7.90377,-9.58956c-3.14334,-2.95011 -5.85226,-5.4925 -8.70013,-8.16532c-0.91016,0.84424 -1.68491,1.44522 -2.31885,2.16941c-5.22912,5.97357 -5.22119,5.98049 -0.02725,12.44363m198.37396,-7.06192c-1.84912,-2.09268 -4.33783,-3.53836 -5.85022,-5.9953c-0.92535,-1.50339 -2.19104,-1.69788 -3.77514,-0.59607c-5.45356,3.79315 -5.42853,11.11606 0.09063,14.61215c0.95093,0.60236 2.01825,0.92795 2.65332,0.00275c1.96717,-2.86588 5.47919,-4.23657 6.88141,-8.02353z" fill="#6159e6"/>
  <path id="svg_2" d="m365.74942,261.83819c-11.64783,8.52259 -28.60547,14.19931 -36.24585,11.82373c1.54828,-5.7644 4.08337,-11.17868 7.09466,-16.22869c9.64216,-16.17041 23.55603,-26.4199 42.448,-29.30283c5.44116,-0.83035 6.47895,0.36908 5.0813,5.46539c-3.08618,11.25324 -8.88324,20.74094 -18.37811,28.2424z" fill="#6159e6"/>
 </g>
</svg>